{"glyphs":{"0":{"ha":744,"x_min":111,"x_max":681,"o":"m 550 686 q 553 675 569 672 q 532 681 542 676 q 513 685 522 686 q 480 678 501 685 q 435 656 458 671 q 389 617 411 639 q 348 573 367 596 q 315 528 329 550 q 292 492 300 507 q 242 388 268 450 q 199 257 217 325 q 179 123 182 189 q 197 8 176 57 q 219 -25 206 -11 q 256 -37 232 -39 q 331 -9 293 -36 q 403 56 368 18 q 465 134 438 93 q 508 203 492 175 q 552 288 529 238 q 591 394 575 339 q 612 502 607 449 q 600 597 617 556 q 593 612 597 606 q 586 624 589 618 q 528 593 556 617 q 482 546 501 569 q 468 546 479 543 q 445 553 457 549 q 424 563 433 558 q 417 571 414 568 q 444 600 429 585 q 476 627 458 615 q 512 646 493 639 q 551 651 531 653 q 636 617 604 644 q 664 575 653 604 q 676 479 681 533 q 656 370 672 425 q 616 265 639 315 q 572 178 593 214 q 527 106 556 147 q 465 28 499 65 q 391 -37 431 -10 q 313 -65 351 -64 q 192 -33 251 -67 q 132 31 151 -11 q 114 147 111 81 q 134 281 117 213 q 177 411 151 349 q 226 517 203 474 q 250 553 235 532 q 284 598 265 575 q 325 642 303 621 q 372 681 347 664 q 450 712 408 706 q 550 686 492 718 z "},"1":{"ha":581,"x_min":119,"x_max":475,"o":"m 279 572 q 235 584 257 574 q 199 610 213 594 q 183 644 185 625 q 203 685 182 664 q 237 705 217 700 q 278 707 257 710 q 322 697 300 704 q 360 683 343 690 l 372 678 q 385 692 378 685 q 401 701 393 700 q 465 678 438 704 q 464 656 475 668 q 431 644 450 642 q 374 539 403 604 q 317 396 344 474 q 274 267 294 333 q 236 140 253 201 q 206 25 219 78 q 185 -64 193 -28 q 173 -65 183 -67 q 151 -58 163 -62 q 129 -49 139 -54 q 119 -40 119 -43 q 141 50 128 -3 q 171 164 154 103 q 208 292 188 225 q 251 421 229 358 q 308 560 279 496 q 364 665 336 625 q 335 678 347 674 q 304 679 324 682 q 267 660 282 675 q 250 621 251 643 q 260 592 250 601 q 266 588 260 592 q 278 581 272 585 q 287 574 285 576 q 279 572 289 571 z "},"2":{"ha":839,"x_min":101,"x_max":724,"o":"m 506 175 q 494 184 494 181 q 501 186 493 188 q 567 169 538 183 q 615 131 596 154 q 638 64 640 101 q 626 18 636 39 q 601 -19 617 -3 q 514 -62 567 -54 q 401 -54 457 -72 q 293 -15 344 -36 q 249 0 269 -7 q 211 6 229 7 q 192 -19 200 -11 q 176 -31 183 -28 q 158 -31 171 -33 q 133 -25 146 -29 q 111 -15 121 -21 q 101 -3 101 -8 q 119 19 101 10 q 149 32 138 29 q 201 118 174 81 q 263 188 229 156 q 338 252 296 221 q 432 321 379 283 q 515 381 475 351 q 585 442 554 410 q 634 513 615 475 q 656 599 653 551 q 651 641 657 619 q 635 678 646 663 q 606 704 624 694 q 564 713 588 714 q 488 688 525 710 q 424 635 450 667 q 389 566 399 604 q 396 493 379 528 q 417 477 403 478 q 451 467 432 476 q 468 457 464 461 q 467 453 472 453 q 381 472 414 454 q 331 515 347 489 q 324 591 314 553 q 362 662 335 629 q 427 715 389 694 q 506 739 465 736 q 597 727 550 742 q 676 682 643 713 q 719 575 724 636 q 698 488 717 526 q 649 417 679 450 q 578 355 618 385 q 496 294 539 325 q 420 240 458 268 q 347 180 382 213 q 279 109 311 147 q 222 24 247 71 q 262 10 242 18 q 306 -7 282 3 q 376 -31 339 -19 q 454 -36 414 -43 q 538 6 501 -28 q 572 88 571 40 q 568 122 574 106 q 553 150 563 138 q 542 160 546 158 q 535 164 539 163 q 524 167 531 165 q 506 175 518 168 z "},"3":{"ha":772,"x_min":107,"x_max":679,"o":"m 192 189 q 210 185 197 189 q 235 176 224 182 q 251 167 246 171 q 250 161 257 163 q 219 151 233 160 q 195 128 206 142 q 179 99 185 115 q 175 67 174 83 q 201 -6 178 18 q 256 -37 224 -31 q 328 -36 289 -43 q 400 -17 367 -29 q 478 32 443 0 q 532 103 513 64 q 552 188 551 143 q 526 276 553 233 q 461 344 506 313 q 408 338 435 333 q 388 344 399 339 q 367 354 376 349 q 350 365 357 360 q 343 374 343 369 q 353 388 342 385 q 378 390 364 392 q 407 386 393 389 q 426 382 421 383 q 464 405 444 392 q 503 434 483 418 q 539 467 522 450 q 568 499 556 483 q 601 558 589 525 q 611 625 614 590 q 589 686 608 661 q 532 708 569 711 q 435 674 474 706 q 381 604 397 643 q 369 560 372 585 q 376 517 367 536 q 398 503 383 504 q 428 493 413 501 q 444 483 440 488 q 442 479 449 479 q 313 538 344 486 q 304 583 301 558 q 317 628 307 607 q 373 700 333 668 q 474 736 413 732 q 560 724 517 739 q 636 682 604 710 q 670 634 661 661 q 676 578 679 607 q 662 523 674 550 q 632 474 650 496 q 602 440 619 457 q 565 406 585 422 q 523 376 544 390 q 483 353 501 363 q 543 311 514 335 q 590 256 572 288 q 617 166 617 211 q 597 80 617 121 q 542 7 578 39 q 463 -43 507 -25 q 358 -62 418 -60 q 244 -49 299 -65 q 151 1 190 -33 q 110 90 113 35 q 131 156 107 126 q 192 189 156 186 z "},"4":{"ha":749,"x_min":107,"x_max":675,"o":"m 633 418 q 569 314 597 369 q 521 201 542 258 q 550 193 533 199 q 580 178 567 188 q 599 157 593 169 q 599 126 606 144 q 586 126 597 124 q 563 133 575 128 q 542 143 551 138 q 533 151 532 149 q 538 179 544 175 q 513 179 531 183 q 473 56 489 117 q 444 -64 457 -6 q 434 -65 444 -67 q 411 -58 424 -62 q 389 -49 399 -54 q 379 -40 379 -43 q 404 65 390 10 q 438 174 418 119 q 381 164 411 169 q 319 153 350 158 q 258 144 288 147 q 203 142 228 142 q 176 144 194 142 q 142 153 158 147 q 116 169 125 160 q 117 193 107 179 q 190 292 151 242 q 267 392 228 343 q 344 486 307 440 q 415 572 382 532 q 369 584 396 575 q 329 611 343 593 q 319 649 317 628 q 336 685 321 669 q 375 706 353 703 q 421 706 397 710 q 458 697 440 703 q 493 683 476 690 l 506 678 q 509 682 508 681 q 513 685 510 683 q 531 700 524 699 q 554 699 539 701 q 570 694 560 697 q 590 685 581 690 q 602 672 599 679 q 597 656 606 664 q 564 644 583 642 l 547 625 q 471 535 515 588 q 377 424 426 483 q 278 299 328 364 q 185 172 228 235 q 316 190 251 178 q 449 206 381 203 q 476 272 457 228 q 519 360 496 315 q 565 438 542 404 q 604 474 589 471 q 621 472 610 474 q 643 465 632 469 q 663 456 654 461 q 672 444 671 450 q 660 424 675 432 q 633 418 644 415 m 419 576 l 496 667 q 447 681 471 678 q 400 660 422 683 q 384 626 388 646 q 393 592 381 607 q 406 585 396 589 q 419 576 415 581 z "},"5":{"ha":839,"x_min":101,"x_max":733,"o":"m 185 171 q 203 167 190 171 q 228 158 217 163 q 245 148 239 153 q 244 143 251 143 q 202 125 219 140 q 176 89 185 110 q 169 44 168 68 q 179 -1 169 19 q 207 -33 189 -24 q 247 -41 225 -42 q 294 -32 269 -40 q 344 -12 319 -24 q 426 45 389 8 q 486 127 464 82 q 510 223 508 172 q 486 321 513 274 q 418 375 460 367 q 328 368 376 383 q 306 328 314 338 q 285 324 299 321 q 229 351 240 338 q 236 378 221 367 q 264 393 251 389 q 313 519 293 456 q 358 646 333 583 q 386 674 367 665 q 431 683 406 682 q 488 681 457 685 q 547 672 518 676 q 607 663 579 667 q 650 667 635 660 q 657 722 676 678 q 665 725 656 726 q 686 719 674 724 q 709 710 699 715 q 722 700 719 704 q 730 661 733 675 q 713 640 726 647 q 662 636 694 633 q 592 646 629 639 q 539 653 565 650 q 489 656 513 657 q 448 647 465 654 q 424 621 431 639 q 384 513 401 568 q 344 404 367 457 q 401 396 371 403 q 460 376 432 389 q 513 344 489 363 q 550 300 536 325 q 575 201 576 251 q 551 103 574 150 q 491 19 529 57 q 407 -39 453 -18 q 317 -64 364 -60 q 238 -59 279 -68 q 163 -28 196 -50 q 116 26 131 -6 q 105 90 101 58 q 128 144 108 121 q 185 171 149 167 z "},"6":{"ha":751,"x_min":78,"x_max":657,"o":"m 613 560 q 594 563 606 560 q 571 572 582 567 q 553 583 560 578 q 554 588 547 588 q 576 598 568 589 q 585 619 583 607 q 585 643 588 631 q 576 665 582 656 q 490 642 525 657 q 415 597 454 628 q 308 488 361 554 q 214 343 254 421 q 319 388 271 382 q 425 369 368 394 q 472 342 453 358 q 503 306 490 325 q 520 267 514 288 q 529 222 526 246 q 517 117 535 171 q 467 22 500 64 q 385 -46 433 -21 q 282 -64 338 -71 q 181 -31 228 -57 q 110 44 135 -6 q 90 188 78 107 q 142 353 103 269 q 238 506 182 435 q 350 622 293 578 q 475 686 408 668 q 611 667 542 704 q 644 637 632 656 q 650 593 657 618 q 637 572 646 581 q 613 560 628 563 m 203 319 q 155 163 167 240 q 174 24 143 85 q 185 6 178 15 q 199 -14 192 -4 q 216 -30 207 -24 q 233 -37 225 -36 q 313 -24 275 -42 q 381 24 350 -7 q 432 93 411 54 q 460 168 453 132 q 464 217 464 189 q 458 274 464 246 q 440 326 451 303 q 408 361 428 350 q 353 356 393 365 q 258 303 313 346 q 248 303 256 301 q 231 308 240 304 q 215 314 222 311 q 203 319 207 317 z "},"7":{"ha":690,"x_min":83,"x_max":596,"o":"m 232 583 q 236 572 254 569 q 205 579 222 574 q 173 593 188 585 q 149 615 158 601 q 140 644 140 628 q 156 685 140 668 q 196 707 172 703 q 244 704 211 710 q 318 692 276 699 q 413 676 364 683 q 493 671 461 668 q 504 685 496 676 q 525 701 515 699 q 589 678 557 699 q 593 671 593 675 q 581 651 596 656 q 556 644 565 646 q 420 483 486 561 q 296 313 354 404 q 312 309 300 313 q 335 301 324 306 q 352 292 346 296 q 354 286 358 288 q 316 279 336 279 q 276 282 296 279 q 191 111 226 199 q 149 -64 156 24 q 138 -65 149 -67 q 115 -58 128 -62 q 93 -49 103 -54 q 83 -40 83 -43 q 122 126 90 43 q 201 289 154 210 q 185 278 192 288 q 172 277 183 275 q 149 284 161 279 q 128 294 138 289 q 121 301 118 299 q 140 316 128 311 q 165 321 151 321 q 193 319 179 321 q 218 315 207 317 q 339 486 275 407 q 472 649 403 565 q 417 656 446 651 q 361 665 389 661 q 296 677 325 672 q 256 679 267 682 q 219 660 233 676 q 204 621 206 643 q 214 594 204 600 q 232 583 224 588 z "},"8":{"ha":725,"x_min":74,"x_max":639,"o":"m 458 331 q 517 280 489 306 q 560 224 544 254 q 577 155 576 193 q 553 67 578 117 q 466 -29 522 4 q 342 -65 410 -62 q 189 -29 268 -68 q 123 18 149 -10 q 86 89 97 46 q 83 187 74 136 q 115 283 92 238 q 148 336 129 310 q 190 385 167 363 q 241 424 214 407 q 297 449 268 440 q 269 547 267 496 q 296 640 271 599 q 366 708 321 682 q 468 731 411 733 q 575 697 536 725 q 628 626 614 668 q 636 561 639 594 q 619 497 633 528 q 563 426 600 456 q 468 399 525 397 q 448 402 461 399 q 424 413 435 406 q 410 422 413 418 q 414 425 407 425 q 501 453 465 425 q 554 522 536 482 q 571 585 568 551 q 564 650 574 618 q 546 687 557 672 q 521 703 535 701 q 428 681 471 706 q 358 614 385 657 q 332 528 332 568 q 349 453 332 488 q 395 388 365 418 q 458 331 425 357 m 328 411 q 242 347 281 388 q 181 260 204 306 q 148 164 157 214 q 151 67 139 114 q 176 10 158 36 q 222 -29 194 -15 q 285 -37 242 -40 q 406 -1 351 -35 q 488 92 460 32 q 512 177 511 140 q 497 243 513 214 q 456 297 482 272 q 400 346 429 322 q 362 377 381 361 q 328 411 343 393 z "},"9":{"ha":694,"x_min":74,"x_max":615,"o":"m 114 72 q 132 69 119 72 q 156 60 144 65 q 173 50 167 54 q 172 44 179 46 q 144 15 150 42 q 158 -39 138 -12 q 210 -28 183 -39 q 264 -2 238 -18 q 314 33 290 14 q 354 72 338 53 q 433 178 394 119 q 500 304 472 238 q 395 258 447 264 q 297 271 343 251 q 216 330 244 292 q 178 424 188 368 q 182 532 169 475 q 225 635 194 589 q 302 709 256 682 q 407 729 349 736 q 509 695 463 722 q 583 618 556 668 q 608 544 601 585 q 612 461 615 504 q 597 373 608 418 q 567 285 585 328 q 476 119 531 196 q 367 -1 422 43 q 310 -38 340 -22 q 249 -61 281 -54 q 185 -63 218 -68 q 121 -39 153 -58 q 82 0 92 -24 q 81 45 74 21 q 114 72 88 69 m 508 325 q 535 409 524 364 q 548 500 546 454 q 540 589 550 546 q 500 668 529 632 q 454 701 472 699 q 358 680 401 708 q 288 605 315 651 q 247 503 260 558 q 243 401 235 449 q 251 370 244 389 q 265 334 257 351 q 285 302 274 317 q 308 282 296 288 q 363 287 325 276 q 451 342 401 297 q 462 343 454 344 q 479 338 469 342 q 497 331 489 335 q 508 325 506 326 z "},"\u0000":{"ha":0,"x_min":0,"x_max":0,"o":""},"\r":{"ha":389,"x_min":0,"x_max":0,"o":""}," ":{"ha":208,"x_min":0,"x_max":0,"o":""},"g":{"ha":356,"x_min":-37,"x_max":418,"o":"m 365 324 q 354 323 364 321 q 333 329 344 325 q 313 339 322 333 q 306 347 304 344 q 311 421 322 397 q 239 390 274 414 q 175 332 204 365 q 124 260 146 299 q 89 189 101 222 q 76 149 83 172 q 65 99 69 125 q 60 49 61 74 q 68 8 60 25 q 129 56 99 22 q 187 128 160 89 q 238 209 214 168 q 276 279 261 250 q 288 279 278 282 q 310 272 299 276 q 330 263 321 268 q 338 256 339 258 q 281 119 310 186 q 221 -15 251 53 q 297 31 265 -3 q 356 100 328 64 q 367 100 357 103 q 389 93 378 97 q 409 84 400 89 q 417 76 418 79 q 369 17 389 39 q 326 -19 349 -6 q 274 -40 303 -32 q 201 -57 246 -47 q 173 -117 190 -81 q 135 -192 156 -154 q 95 -263 115 -229 q 57 -314 75 -297 q 37 -323 50 -322 q 10 -319 24 -324 q -15 -308 -4 -315 q -31 -294 -26 -301 q -37 -260 -37 -282 q -35 -215 -37 -239 q -26 -170 -32 -192 q -14 -137 -21 -149 q 56 -62 15 -83 q 142 -32 97 -42 q 145 -24 143 -29 q 150 -12 147 -18 q 157 1 153 -7 q 85 -20 121 -26 q 14 19 50 -14 q -1 60 1 35 q 1 114 -3 86 q 13 168 6 142 q 28 211 21 194 q 65 287 40 244 q 124 365 90 329 q 198 426 158 401 q 279 447 238 450 q 330 435 307 444 q 367 410 353 425 q 365 324 388 383 m 115 -87 q 78 -116 96 -99 q 46 -160 61 -133 q 30 -208 33 -185 q 25 -254 26 -232 q 74 -172 51 -215 q 115 -87 96 -129 z "},"a":{"ha":410,"x_min":-3,"x_max":471,"o":"m 365 324 q 354 323 364 321 q 333 329 344 325 q 312 339 321 333 q 304 347 303 344 q 311 421 322 396 q 282 413 296 418 q 190 348 238 393 q 107 235 142 303 q 85 182 96 211 q 69 123 75 153 q 61 64 63 93 q 68 10 60 35 q 129 56 99 22 q 187 128 160 89 q 237 208 214 168 q 275 278 260 249 q 287 278 276 281 q 308 271 297 275 q 328 262 319 267 q 336 254 338 257 q 311 199 326 236 q 284 122 296 163 q 269 44 272 81 q 283 -11 267 7 q 355 33 324 0 q 410 100 386 67 q 422 100 411 103 q 443 93 432 97 q 463 84 454 89 q 469 76 471 79 q 420 16 450 49 q 358 -31 390 -17 q 293 -34 331 -43 q 231 -1 256 -25 q 215 24 219 10 q 208 54 210 38 q 168 11 193 35 q 117 -19 143 -12 q 69 -15 100 -24 q 13 19 39 -7 q -1 60 0 35 q 1 114 -3 86 q 13 168 6 142 q 26 211 21 194 q 64 286 39 244 q 123 364 89 328 q 197 424 157 400 q 278 447 238 449 q 367 410 333 443 q 365 324 388 383 z "},"o":{"ha":415,"x_min":0,"x_max":476,"o":"m 157 406 q 161 407 157 407 q 176 421 168 414 q 193 432 185 428 q 237 438 211 440 q 297 419 263 436 q 354 350 342 397 q 353 249 365 307 q 347 226 350 238 q 339 203 343 214 q 415 281 374 226 q 427 280 417 282 q 449 274 438 278 q 468 265 460 269 q 475 257 476 260 q 394 174 435 200 q 315 144 353 149 q 255 53 292 99 q 169 -11 218 8 q 111 -22 139 -25 q 32 10 63 -17 q 11 39 17 22 q 2 83 4 58 q 3 136 0 108 q 53 286 13 215 q 157 406 93 357 m 122 278 l 113 263 q 88 206 100 240 q 67 134 75 171 q 61 63 60 97 q 79 4 63 28 q 131 23 106 8 q 177 58 156 38 q 216 103 199 79 q 246 151 233 128 q 185 180 214 161 q 139 228 156 199 q 122 278 126 250 m 256 169 q 292 271 281 219 q 297 306 294 286 q 297 345 299 325 q 290 383 296 365 q 272 413 285 401 q 215 376 239 408 q 185 306 192 344 q 190 230 178 269 q 235 169 201 190 l 256 169 z "},"t":{"ha":215,"x_min":-11,"x_max":336,"o":"m 239 603 q 251 603 240 606 q 273 596 261 600 q 293 587 285 592 q 300 579 301 582 q 268 526 282 551 q 326 504 299 519 q 335 496 335 499 q 326 496 336 493 q 294 504 307 499 q 257 507 282 510 q 227 447 246 488 q 187 356 208 407 q 143 249 165 306 q 105 142 121 193 q 81 51 89 92 q 81 -10 74 10 q 156 36 119 4 q 215 100 192 68 q 227 100 217 103 q 249 93 238 97 q 268 84 260 89 q 275 76 276 79 q 213 8 247 38 q 146 -32 178 -21 q 93 -36 121 -40 q 21 8 36 -24 q 19 65 13 26 q 40 152 25 104 q 74 253 54 200 q 115 353 94 306 q 153 440 135 401 q 181 499 171 479 q 95 494 138 493 q 8 521 53 496 q 8 531 -11 533 q 24 526 15 529 q 40 521 32 524 q 59 519 44 518 q 90 521 74 519 q 122 524 107 522 q 140 525 136 525 q 168 529 154 528 q 197 532 182 531 q 217 568 207 550 q 239 603 228 586 z "},"b":{"ha":442,"x_min":-3,"x_max":504,"o":"m 138 343 q 113 273 129 318 q 83 179 97 228 q 63 85 69 131 q 65 14 57 39 l 68 6 q 123 34 96 13 q 174 83 150 56 q 218 140 199 110 q 251 193 238 169 q 244 212 247 201 q 238 236 240 222 q 233 283 233 254 q 238 340 233 311 q 252 395 242 369 q 279 433 263 421 q 301 438 288 439 q 330 430 315 436 q 356 413 344 424 q 371 392 368 403 q 372 338 376 368 q 359 278 368 308 q 338 219 350 247 q 313 171 325 192 q 331 176 315 168 q 349 186 346 183 q 401 231 376 204 q 442 281 426 257 q 454 280 443 282 q 476 274 465 278 q 496 265 488 269 q 503 257 504 260 q 462 207 488 233 q 408 161 436 181 q 357 142 382 144 q 300 150 324 139 q 265 98 286 126 q 219 43 244 69 q 166 -2 194 17 q 108 -22 138 -21 q 70 -18 90 -24 q 29 3 50 -12 q 6 30 13 14 q -1 65 0 46 q 3 118 -3 85 q 22 195 10 151 q 50 290 33 239 q 86 393 67 340 q 138 532 111 463 q 191 660 165 601 q 238 763 217 719 q 271 824 258 806 q 311 857 293 857 q 392 819 365 854 q 406 756 404 796 q 403 672 408 715 q 388 590 399 629 q 364 531 378 551 q 319 477 346 504 q 263 425 293 450 q 201 379 233 400 q 138 343 168 358 m 165 421 q 241 481 206 449 q 303 554 276 514 q 326 610 317 576 q 341 680 336 643 q 346 752 346 717 q 340 813 346 788 q 294 735 319 788 q 244 623 268 682 q 199 508 219 564 q 165 421 178 453 m 293 285 q 304 324 300 304 q 311 364 308 344 q 293 285 297 332 z "},"p":{"ha":426,"x_min":-133,"x_max":410,"o":"m 165 436 q 175 438 167 439 q 193 433 183 436 q 213 424 203 429 q 225 417 222 419 q 283 437 250 435 q 356 415 315 439 q 388 385 376 404 q 403 344 400 367 q 399 251 410 301 q 364 153 388 201 q 308 65 340 106 q 239 -1 275 24 q 210 -17 224 -12 q 183 -22 196 -21 q 144 -19 163 -24 q 111 -6 126 -14 q 96 -78 107 -26 q 71 -185 85 -129 q 40 -287 57 -242 q 7 -340 24 -332 q -17 -342 -3 -344 q -47 -334 -32 -340 q -76 -319 -62 -328 q -97 -303 -90 -310 q -129 -239 -125 -274 q -107 -114 -133 -186 q -40 33 -81 -42 q 44 177 0 108 q 118 294 89 246 q 140 367 129 331 q 165 436 151 403 m 178 271 q 144 140 158 206 q 114 13 129 75 q 132 4 128 7 q 172 18 151 6 q 212 49 193 31 q 246 86 231 67 q 271 121 261 106 q 306 184 288 146 q 335 263 325 222 q 346 344 346 304 q 325 411 346 383 q 283 392 306 408 q 241 353 261 375 q 204 308 221 331 q 178 271 188 286 m 65 90 q 15 -2 40 46 q -31 -97 -11 -50 q -60 -185 -50 -143 q -68 -260 -71 -228 q -46 -311 -64 -286 q -25 -274 -36 -303 q -3 -206 -14 -244 q 17 -128 7 -168 q 33 -56 26 -87 l 65 90 z "},"z":{"ha":340,"x_min":0,"x_max":408,"o":"m 175 326 q 178 321 182 322 q 163 322 174 319 q 135 333 151 325 q 107 351 119 340 q 89 376 94 363 q 93 404 83 390 q 137 430 106 419 q 204 444 168 440 q 296 440 249 447 q 376 413 343 432 q 393 367 408 392 q 351 317 379 343 q 292 266 324 292 q 227 215 260 240 q 171 168 194 189 q 251 109 229 150 q 269 22 272 68 q 305 55 288 36 q 340 100 322 74 q 352 100 342 103 q 374 93 363 97 q 394 84 386 89 q 401 76 403 79 q 329 -3 365 24 q 257 -43 293 -29 q 232 -103 250 -65 q 190 -176 214 -140 q 137 -239 165 -212 q 82 -264 108 -265 q 44 -253 63 -261 q 11 -233 25 -246 q 1 -212 3 -226 q 0 -183 0 -199 q 12 -111 1 -137 q 39 -70 22 -85 q 78 -49 56 -56 q 126 -37 100 -43 q 160 -29 143 -33 q 197 -18 178 -25 q 211 54 210 21 q 200 112 213 88 q 160 151 188 136 q 89 171 133 167 q 119 199 104 186 q 150 226 135 213 q 175 246 157 232 q 216 278 193 260 q 263 317 239 296 q 306 356 288 338 q 333 391 324 375 q 333 417 342 407 q 294 420 321 421 q 240 415 268 419 q 187 402 211 411 q 154 381 163 393 q 175 326 136 356 m 181 -62 q 112 -85 140 -71 q 69 -144 83 -99 q 63 -185 67 -158 q 63 -225 60 -211 q 98 -192 81 -211 q 131 -151 115 -172 q 159 -106 146 -129 q 181 -62 172 -83 z "},"m":{"ha":572,"x_min":-11,"x_max":633,"o":"m 133 436 q 144 437 135 439 q 166 431 154 435 q 187 422 178 426 q 194 414 196 417 q 163 347 183 394 q 118 240 142 299 q 150 292 131 261 q 193 354 169 324 q 242 408 217 385 q 290 438 267 432 q 317 435 301 439 q 349 424 333 432 q 376 406 364 417 q 390 381 388 394 q 392 365 392 376 q 435 413 414 393 q 482 438 456 433 q 510 435 494 439 q 542 423 526 432 q 568 401 557 414 q 579 374 579 389 q 572 340 579 360 q 551 295 564 319 q 524 244 539 271 q 493 190 508 218 q 466 134 478 163 q 446 78 454 106 q 435 28 438 51 q 436 -8 432 6 q 513 35 476 4 q 572 100 549 67 q 584 100 574 103 q 606 93 594 97 q 625 84 617 89 q 632 76 633 79 q 567 8 607 40 q 488 -35 526 -24 q 461 -36 476 -37 q 431 -29 446 -35 q 402 -16 415 -24 q 382 0 389 -8 q 372 33 372 11 q 380 83 372 56 q 400 142 388 111 q 428 206 413 174 q 461 265 443 236 q 493 321 479 294 q 515 369 507 347 q 517 406 522 390 q 481 376 504 399 q 431 315 458 353 q 363 210 396 267 q 306 108 331 154 q 285 68 294 89 q 270 29 276 47 q 260 -1 264 11 q 256 -18 257 -14 q 247 -22 256 -22 q 225 -17 238 -21 q 201 -7 213 -14 q 185 10 189 0 q 187 69 176 29 q 215 150 197 108 q 253 228 233 192 q 279 276 272 264 q 296 305 286 289 q 314 338 306 321 q 327 372 322 354 q 329 406 332 389 q 276 358 307 397 q 213 270 244 318 q 156 176 182 222 q 118 108 131 131 q 96 64 106 86 q 79 22 86 42 q 65 -21 71 0 q 55 -22 64 -24 q 33 -15 46 -21 q 3 4 13 -8 q -9 32 -7 17 q -8 65 -11 47 q 1 100 -4 82 q 24 176 10 135 q 56 257 39 217 q 101 368 79 318 q 133 436 122 418 z "},"y":{"ha":376,"x_min":0,"x_max":439,"o":"m 358 438 q 369 438 360 440 q 391 431 379 435 q 412 422 403 426 q 419 414 421 417 q 335 202 375 308 q 250 -11 294 96 q 313 28 282 3 q 376 100 344 54 q 388 100 378 103 q 410 93 399 97 q 431 84 422 89 q 438 76 439 79 q 393 22 415 44 q 346 -16 371 0 q 292 -43 321 -32 q 226 -64 263 -54 q 180 -167 203 -118 q 137 -253 157 -217 q 100 -312 117 -290 q 71 -332 83 -333 q 36 -322 51 -328 q 10 -308 21 -317 q 3 -294 6 -304 q 1 -273 1 -285 q 0 -251 0 -261 q 0 -233 0 -240 q 4 -187 1 -211 q 22 -137 7 -162 q 53 -96 36 -112 q 88 -69 69 -79 q 127 -51 107 -58 q 168 -39 147 -44 q 188 8 178 -15 q 207 54 197 31 q 135 -10 169 14 q 56 -14 100 -33 q 16 13 24 1 q 6 42 8 25 q 19 128 3 74 q 60 242 36 183 q 109 355 83 301 q 150 438 135 408 q 162 438 151 440 q 183 431 172 435 q 203 422 194 426 q 211 414 213 417 q 186 365 201 396 q 153 295 171 333 q 119 215 136 257 q 89 135 101 174 q 70 64 76 96 q 68 13 64 32 q 93 28 79 17 q 119 50 107 39 q 140 70 131 61 q 149 79 149 79 q 194 134 171 104 q 239 194 218 164 q 277 251 260 224 q 306 303 294 279 q 331 370 319 336 q 358 438 343 404 m 61 -260 q 99 -190 79 -232 q 143 -96 119 -147 q 111 -122 126 -107 q 83 -161 96 -137 q 65 -208 68 -185 q 61 -260 63 -232 z "},"x":{"ha":382,"x_min":-22,"x_max":443,"o":"m 357 439 q 373 437 361 440 q 396 428 385 433 q 413 419 407 424 q 415 414 419 415 q 285 348 343 389 q 174 251 226 307 q 185 191 178 229 q 203 113 193 153 q 227 38 214 72 q 254 -10 240 3 q 288 4 269 -8 q 324 33 306 17 q 357 69 342 50 q 382 100 372 88 q 394 100 383 103 q 415 93 404 97 q 435 84 426 89 q 442 76 443 79 q 393 18 422 49 q 333 -28 364 -12 q 211 -10 279 -54 q 181 28 194 3 q 156 84 167 54 q 138 144 146 114 q 126 197 131 175 q 67 94 88 147 q 39 -21 47 42 q 28 -22 39 -24 q 7 -17 18 -21 q -13 -7 -4 -12 q -22 1 -22 -1 q 20 149 -12 86 q 111 274 53 211 q 98 367 103 324 q 92 436 93 410 q 101 437 92 439 q 122 431 111 435 q 143 422 133 426 q 153 414 153 417 q 156 374 154 399 q 163 322 158 350 q 254 391 207 363 q 357 439 301 419 z "},"q":{"ha":325,"x_min":-1,"x_max":389,"o":"m 367 324 q 356 323 365 321 q 334 329 346 325 q 313 339 322 333 q 306 347 304 344 q 313 421 324 396 q 240 390 275 414 q 175 332 204 365 q 124 260 146 299 q 89 189 101 222 q 76 149 83 172 q 65 99 69 125 q 61 49 61 74 q 69 8 61 25 q 131 54 100 21 q 189 128 161 88 q 240 210 217 169 q 279 281 263 251 q 291 281 281 283 q 313 274 301 278 q 333 265 324 269 q 340 257 342 260 q 285 124 313 190 q 231 -11 258 57 q 280 42 257 14 q 325 100 303 71 q 337 100 326 103 q 359 93 347 97 q 379 84 371 89 q 386 76 388 79 q 313 -11 347 28 q 226 -85 279 -50 q 258 -112 239 -97 q 295 -144 276 -128 q 328 -178 314 -161 q 350 -208 343 -194 q 351 -243 357 -225 q 323 -281 346 -261 q 256 -326 300 -301 q 144 -381 213 -350 q 106 -378 132 -387 q 64 -353 79 -369 q 64 -303 57 -339 q 86 -219 71 -268 q 123 -110 101 -169 q 169 11 144 -50 l 158 1 q 94 -22 131 -22 q 14 19 58 -21 q 0 60 1 35 q 3 114 -1 86 q 15 168 7 142 q 28 211 22 194 q 65 287 40 244 q 124 365 90 329 q 198 426 158 401 q 279 447 238 450 q 368 410 338 443 q 367 324 389 383 m 199 -96 q 149 -236 169 -171 q 122 -339 128 -301 q 214 -292 178 -312 q 269 -253 250 -271 q 292 -219 288 -235 q 289 -187 296 -203 q 272 -164 283 -176 q 248 -139 261 -151 q 222 -115 235 -126 q 199 -96 208 -104 z "},"l":{"ha":238,"x_min":-12,"x_max":407,"o":"m 122 271 q 89 167 107 222 q 60 65 71 113 q 57 22 56 44 q 71 -12 58 0 q 120 -1 96 -11 q 166 26 144 10 q 206 61 188 42 q 238 100 224 81 q 249 100 239 103 q 272 93 260 97 q 292 84 283 89 q 299 76 300 79 q 226 1 265 29 q 151 -35 188 -26 q 113 -37 135 -39 q 71 -30 92 -36 q 32 -12 50 -24 q 6 14 14 -1 q 1 100 -12 46 q 28 192 8 126 q 76 339 49 257 q 137 510 104 421 q 201 673 169 599 q 263 797 233 747 q 313 853 292 847 q 333 851 321 854 q 358 843 346 849 q 381 831 371 838 q 394 817 392 824 q 406 745 407 790 q 397 652 406 700 q 373 560 388 604 q 344 494 358 517 q 297 428 328 464 q 233 360 267 393 q 168 303 199 328 q 122 271 138 279 m 157 369 q 225 438 193 401 q 283 518 257 475 q 311 580 299 543 q 332 656 324 617 q 343 735 340 696 q 342 804 346 774 q 290 717 317 772 q 240 600 264 663 q 194 476 215 538 q 157 369 172 414 z "},"u":{"ha":394,"x_min":-4,"x_max":457,"o":"m 356 300 q 338 260 346 281 q 319 219 329 240 q 283 124 299 171 q 260 47 267 78 q 257 17 257 33 q 264 -12 257 0 q 301 4 282 -8 q 337 33 319 17 q 369 67 354 50 q 394 100 383 85 q 406 101 396 103 q 428 93 415 99 q 449 83 440 88 q 454 76 457 79 q 418 31 443 60 q 364 -18 393 1 q 318 -37 343 -32 q 263 -31 293 -42 q 217 -7 232 -19 q 199 21 203 6 q 197 57 194 36 q 167 22 182 39 q 135 -7 151 4 q 99 -22 118 -18 q 54 -14 79 -25 q 14 12 24 -1 q 1 43 4 25 q 10 132 -4 78 q 47 244 24 186 q 95 353 69 301 q 138 438 121 406 q 149 438 139 440 q 170 431 158 435 q 190 422 182 426 q 197 414 199 417 q 154 327 181 382 q 105 212 128 272 q 68 97 82 151 q 65 11 54 42 q 127 68 96 32 q 188 148 158 104 q 244 238 217 192 q 294 324 271 283 q 322 379 307 350 q 351 433 338 408 q 363 434 353 436 q 385 428 374 432 q 405 419 396 424 q 413 411 414 414 q 382 349 393 371 q 356 300 371 326 z "},"k":{"ha":368,"x_min":-17,"x_max":431,"o":"m 51 -21 q 42 -22 51 -24 q 22 -16 33 -19 q 1 -8 11 -12 q -10 1 -8 -3 q -3 80 -17 18 q 35 226 10 142 q 93 408 60 311 q 159 590 126 504 q 219 740 192 676 q 260 824 246 804 q 300 857 282 857 q 351 843 328 854 q 381 819 375 832 q 395 756 393 796 q 392 672 397 715 q 377 590 388 629 q 353 531 367 551 q 310 478 333 503 q 263 433 288 454 q 289 438 275 439 q 317 431 303 436 q 344 420 332 425 q 364 408 356 415 q 383 379 381 396 q 379 343 386 363 q 316 259 363 293 q 224 206 269 225 q 253 183 242 197 q 263 146 265 169 q 253 108 261 129 q 240 66 246 88 q 232 25 233 44 q 242 -10 231 6 q 277 7 258 -6 q 313 35 296 19 q 344 69 329 51 q 368 100 358 86 q 380 100 369 103 q 402 93 390 97 q 422 84 414 89 q 429 76 431 79 q 402 42 418 61 q 367 6 386 24 q 328 -24 349 -11 q 286 -37 307 -36 q 221 -23 254 -40 q 172 22 188 -6 q 172 56 168 38 q 181 94 175 75 q 194 133 188 114 q 201 168 200 151 q 194 194 204 188 q 160 210 185 200 q 97 99 126 156 q 51 -21 67 42 m 171 432 q 237 488 206 458 q 292 554 268 518 q 315 610 306 576 q 330 680 325 643 q 335 752 335 717 q 329 813 335 788 q 287 739 310 790 q 242 629 264 688 q 200 516 219 571 q 171 432 181 461 m 174 233 q 217 256 194 243 q 259 286 239 269 q 294 322 279 303 q 318 365 310 342 q 322 386 321 372 q 319 408 324 400 q 281 380 303 401 q 240 332 260 358 q 201 278 219 306 q 174 233 183 251 m 111 254 q 135 291 121 271 q 162 331 149 311 q 188 367 175 350 q 210 392 201 383 q 194 382 204 389 q 173 369 183 375 q 153 357 163 363 q 143 351 144 351 q 126 303 135 328 q 111 254 118 279 z "},"h":{"ha":364,"x_min":-18,"x_max":426,"o":"m 353 310 q 315 235 336 278 q 276 149 294 193 q 245 63 257 104 q 236 -10 233 21 q 274 6 256 -6 q 308 34 292 18 q 339 67 325 50 q 364 100 353 85 q 376 101 367 103 q 399 93 386 99 q 419 83 411 88 q 425 76 426 79 q 368 8 401 43 q 292 -35 335 -26 q 232 -30 260 -42 q 176 4 204 -18 q 183 78 172 35 q 213 167 194 121 q 254 256 232 213 q 293 332 276 300 q 309 367 301 349 q 311 404 317 385 q 255 353 286 390 q 194 269 224 315 q 140 179 165 224 q 100 108 114 135 q 78 65 88 88 q 63 24 69 43 q 53 -7 57 6 q 50 -21 50 -19 q 41 -22 50 -24 q 21 -16 32 -19 q 0 -8 10 -12 q -11 1 -10 -3 q -5 80 -18 18 q 33 226 8 142 q 92 408 58 311 q 158 590 125 504 q 217 740 190 676 q 258 824 244 804 q 299 857 281 857 q 319 854 307 857 q 344 847 332 851 q 365 835 356 842 q 379 819 375 828 q 394 756 392 796 q 391 672 396 715 q 376 590 386 629 q 351 531 365 551 q 310 478 333 504 q 263 433 288 453 q 292 438 274 440 q 334 425 314 433 q 365 401 354 417 q 372 354 381 379 q 353 310 364 329 m 169 432 q 236 488 206 458 q 290 554 267 518 q 314 610 304 576 q 328 680 324 643 q 333 752 333 717 q 328 813 333 788 q 285 739 308 790 q 240 629 263 688 q 199 516 218 571 q 169 432 179 461 m 142 353 l 110 256 q 160 331 132 290 q 210 394 189 371 q 174 372 192 383 q 142 353 157 360 z "},"f":{"ha":311,"x_min":-53,"x_max":394,"o":"m 132 286 q 167 231 156 267 q 183 163 179 194 q 244 202 211 174 q 311 281 276 231 q 323 281 313 283 q 345 274 333 278 q 365 265 357 269 q 372 257 374 260 q 273 156 321 183 q 185 129 225 128 q 177 27 186 89 q 152 -100 168 -35 q 113 -224 136 -165 q 61 -312 89 -282 q 41 -325 53 -324 q 17 -324 29 -326 q -8 -315 4 -321 q -29 -303 -21 -308 q -49 -251 -46 -289 q -48 -162 -53 -212 q -32 -53 -43 -111 q -9 56 -21 4 q 14 149 3 108 q 29 208 25 190 q 9 245 17 225 q 3 283 1 265 q 17 313 4 301 q 61 321 31 324 q 81 384 67 339 q 115 487 94 429 q 158 608 135 544 q 206 724 182 671 q 254 813 231 776 q 299 853 278 849 q 381 817 351 853 q 394 745 394 790 q 385 652 393 700 q 363 560 376 604 q 335 494 349 517 q 244 380 296 432 q 132 286 193 328 m 143 365 q 214 435 181 397 q 274 518 247 474 q 301 581 289 543 q 322 658 314 618 q 331 738 329 699 q 329 807 333 776 q 274 717 301 775 q 221 594 246 660 q 176 467 196 529 q 143 365 156 406 m 83 160 q 58 61 72 118 q 32 -56 43 4 q 15 -174 21 -117 q 13 -274 8 -232 q 58 -185 38 -239 q 94 -74 79 -132 q 116 42 108 -15 q 124 140 124 99 q 83 160 99 149 m 107 247 l 103 233 l 90 188 q 106 169 96 181 q 124 156 117 158 q 119 202 122 179 q 107 247 115 225 z "},"e":{"ha":317,"x_min":-1,"x_max":379,"o":"m 139 139 q 124 140 135 138 q 101 148 113 143 q 83 158 90 153 q 79 164 75 163 q 140 204 101 175 q 214 270 179 233 q 269 345 249 307 q 274 413 289 383 q 253 404 267 410 q 224 386 240 399 q 179 347 200 369 q 140 297 158 324 q 106 242 121 271 q 81 188 90 214 q 69 151 75 172 q 62 108 64 131 q 64 63 60 86 q 82 17 68 39 q 127 -19 103 -15 q 188 -7 151 -22 q 222 11 203 -1 q 258 39 240 24 q 291 70 275 54 q 317 100 307 86 q 328 100 318 103 q 351 93 339 97 q 371 84 363 89 q 378 76 379 79 q 351 47 367 63 q 318 15 336 31 q 281 -12 300 0 q 246 -32 263 -25 q 194 -43 222 -42 q 140 -38 167 -44 q 87 -19 113 -32 q 43 11 61 -6 q 12 54 22 31 q 0 104 1 78 q 4 157 -1 131 q 19 210 10 183 q 78 320 39 264 q 164 411 117 376 q 219 435 189 431 q 281 429 249 440 q 329 400 317 417 q 340 358 343 382 q 320 307 336 333 q 280 253 304 281 q 230 203 256 226 q 180 163 204 181 q 139 139 156 146 z "},"j":{"ha":276,"x_min":-106,"x_max":336,"o":"m 119 -39 q 168 -6 143 -24 q 231 49 193 11 q 256 76 246 64 q 274 100 267 89 q 285 100 275 103 q 307 93 296 97 q 327 84 318 89 q 335 76 336 79 q 310 46 324 63 q 279 13 296 29 q 197 -48 243 -24 q 104 -87 150 -72 q 94 -117 101 -94 q 77 -169 88 -139 q 54 -232 67 -199 q 28 -294 42 -265 q 1 -340 14 -322 q -22 -358 -11 -358 q -61 -353 -42 -358 q -87 -339 -81 -347 q -99 -308 -97 -328 q -103 -272 -101 -287 q -106 -228 -106 -251 q -94 -178 -106 -204 q -68 -135 -83 -153 q -35 -106 -53 -118 q 1 -86 -18 -94 q 42 -71 21 -78 l 101 129 q 81 100 93 114 q 61 76 68 86 q 49 76 58 74 q 27 83 39 79 q 7 92 15 88 q 0 100 -1 97 q 89 213 42 154 q 165 350 136 272 q 177 351 167 353 q 199 347 188 350 q 220 340 211 344 q 229 333 229 336 q 175 148 204 247 q 119 -39 146 49 m -40 -293 q -9 -219 -25 -262 q 24 -125 7 -176 q -31 -193 -11 -149 q -43 -242 -43 -218 q -40 -293 -43 -265 m 186 438 q 198 439 188 440 q 220 435 208 438 q 241 428 232 432 q 249 422 250 425 q 244 403 246 413 q 239 383 242 393 q 227 381 238 381 q 205 385 217 382 q 184 392 193 388 q 175 399 175 396 q 186 438 182 421 z "},"v":{"ha":438,"x_min":-7,"x_max":500,"o":"m 126 438 q 138 438 128 440 q 160 431 149 435 q 180 422 171 426 q 188 414 189 417 q 162 365 178 396 q 130 294 146 333 q 98 211 114 254 q 72 128 82 168 q 58 56 61 89 q 65 6 56 24 q 115 33 88 11 q 168 82 142 54 q 216 139 194 110 q 250 188 238 168 q 235 235 238 207 q 233 283 232 263 q 246 356 236 315 q 278 422 256 397 q 311 439 294 439 q 378 413 347 435 q 388 396 383 407 q 390 343 396 374 q 372 281 385 313 q 344 219 360 249 q 315 172 328 190 q 347 186 329 174 q 383 216 365 199 q 415 251 400 233 q 438 281 429 269 q 449 280 439 282 q 472 274 460 278 q 492 265 483 269 q 499 257 500 260 q 472 222 488 242 q 436 185 456 203 q 396 156 417 168 q 354 142 375 143 q 303 151 329 139 q 265 101 286 128 q 220 49 244 74 q 169 4 196 24 q 114 -22 142 -15 q 86 -22 103 -25 q 53 -12 69 -19 q 22 6 36 -6 q 4 29 8 17 q 4 118 -7 61 q 37 236 15 175 q 84 353 58 297 q 126 438 110 408 m 296 268 q 319 327 308 294 q 331 388 331 360 q 306 330 314 363 q 296 268 299 297 z "},"i":{"ha":203,"x_min":-6,"x_max":265,"o":"m 100 326 q 111 327 101 329 q 133 321 121 325 q 153 312 144 317 q 161 304 163 307 q 111 192 138 249 q 69 78 85 135 q 60 33 64 57 q 72 -11 57 8 q 109 5 90 -7 q 145 33 128 17 q 177 67 163 50 q 203 100 192 85 q 215 100 204 103 q 236 93 225 97 q 256 84 247 89 q 264 76 265 79 q 236 42 253 61 q 201 6 219 24 q 161 -24 182 -11 q 121 -39 140 -37 q 76 -34 99 -40 q 31 -10 54 -28 q 6 19 15 0 q 5 83 -6 39 q 34 174 15 126 q 72 265 53 222 q 100 326 92 308 m 150 436 q 161 437 151 439 q 183 431 171 435 q 203 422 194 426 q 210 414 211 417 l 193 376 q 181 376 192 374 q 159 383 171 379 q 139 392 147 388 q 132 400 131 397 q 140 419 136 410 q 150 436 144 428 z "},"H":{"ha":1204,"x_min":-3,"x_max":1506,"o":"m 490 307 q 493 301 497 301 q 478 303 489 300 q 414 341 438 313 q 397 414 390 369 q 425 474 403 449 q 479 511 447 499 q 528 524 501 521 q 592 524 556 526 q 683 735 636 635 q 778 906 729 836 q 724 910 753 908 q 664 917 696 913 q 595 922 629 922 q 526 911 561 922 q 458 873 492 900 q 393 797 425 846 q 381 797 392 794 q 358 803 369 799 q 336 813 346 808 q 329 821 326 818 q 395 899 361 872 q 465 938 429 926 q 540 949 501 950 q 615 944 578 949 q 719 933 675 936 q 796 931 764 931 q 833 969 813 950 q 878 997 854 988 q 910 1003 890 1003 q 947 1000 929 1004 q 977 985 965 996 q 986 956 989 974 q 979 939 985 947 q 960 923 974 931 q 923 910 947 915 q 860 904 899 906 q 759 736 807 839 q 664 517 711 633 q 767 499 715 510 q 869 479 818 488 q 971 469 919 471 q 1074 479 1022 468 q 1104 546 1083 500 q 1153 647 1125 592 q 1214 763 1182 703 q 1278 873 1246 822 q 1339 958 1310 924 q 1390 996 1368 992 q 1417 995 1401 997 q 1447 988 1432 993 q 1474 976 1461 983 q 1493 958 1486 968 q 1503 931 1500 946 q 1506 896 1506 915 q 1472 751 1503 822 q 1390 619 1440 679 q 1274 515 1339 558 q 1138 454 1208 471 q 1086 335 1110 393 q 1044 222 1063 276 q 1009 76 1017 139 q 1028 -25 1001 13 q 1042 -22 1033 -25 q 1062 -14 1051 -18 q 1081 -6 1072 -10 q 1094 1 1090 -1 q 1110 0 1099 3 q 1134 -8 1122 -3 q 1154 -18 1146 -12 q 1158 -25 1163 -24 q 1075 -53 1114 -53 q 1010 -40 1039 -51 q 961 0 981 -28 q 945 97 938 32 q 981 247 953 163 q 1015 342 996 293 q 1057 443 1033 392 q 964 446 1011 440 q 869 460 917 451 q 773 479 821 469 q 679 494 725 489 q 667 495 672 494 q 656 496 661 496 l 635 444 q 578 306 607 374 q 522 180 550 239 q 466 73 494 121 q 408 -4 438 25 q 328 -51 371 -43 q 236 -39 286 -58 q 164 15 186 -19 q 147 72 149 42 q 153 132 146 103 q 0 257 50 163 q 6 260 -3 261 q 28 255 15 258 q 51 246 40 251 q 65 236 63 240 q 81 209 71 224 q 102 181 90 194 q 127 158 114 168 q 156 146 140 147 q 180 204 164 172 q 219 263 196 236 q 270 306 242 289 q 329 317 299 322 q 403 282 381 308 q 410 243 417 265 q 388 200 404 221 q 349 163 371 179 q 314 139 328 146 q 219 118 272 115 q 213 83 215 103 q 212 44 210 64 q 222 5 214 24 q 246 -26 229 -14 q 307 -8 281 -25 q 344 22 333 10 q 401 99 374 51 q 458 205 429 146 q 514 331 486 264 q 569 469 542 399 l 581 494 q 521 474 549 490 q 478 431 493 458 q 465 399 469 415 q 460 365 460 382 q 468 334 461 349 q 490 307 475 319 m 1164 511 q 1266 582 1217 538 q 1353 681 1315 626 q 1415 798 1392 736 q 1440 919 1439 860 q 1439 953 1442 946 q 1435 960 1436 961 q 1394 923 1418 953 q 1343 851 1369 893 q 1289 758 1317 808 q 1237 659 1261 707 q 1193 572 1213 611 q 1164 511 1174 532 m 233 156 q 269 176 250 163 q 306 206 289 189 q 335 242 324 222 q 346 279 346 261 l 346 288 q 279 232 310 272 q 233 156 249 192 z "},"B":{"ha":1071,"x_min":-3,"x_max":1119,"o":"m 460 589 q 474 579 471 583 q 471 575 478 575 q 437 581 456 576 q 399 594 418 585 q 330 663 346 618 q 338 760 314 707 q 406 847 361 811 q 507 906 451 883 q 622 936 563 928 q 735 940 682 944 q 825 928 782 936 q 847 949 836 939 q 868 965 857 958 q 942 998 900 989 q 1046 1004 985 1007 q 1065 1000 1051 1004 q 1089 990 1078 996 q 1105 981 1100 985 q 1100 978 1110 978 q 1003 971 1043 981 q 932 940 964 961 q 913 926 922 933 q 896 908 904 918 q 955 885 924 899 q 1015 852 986 871 q 1067 810 1043 833 q 1103 758 1090 786 q 1117 690 1119 724 q 1101 625 1115 656 q 1063 567 1086 594 q 1014 517 1039 539 q 951 468 982 489 q 890 432 919 447 q 987 329 958 388 q 1010 210 1015 271 q 969 92 1004 150 q 872 -10 933 33 q 799 -47 840 -33 q 715 -60 757 -60 q 633 -47 672 -60 q 565 -1 594 -33 q 540 56 542 25 q 551 117 539 86 q 585 174 564 147 q 626 221 606 201 q 640 221 629 224 q 663 213 651 218 q 684 203 675 208 q 690 194 693 197 q 622 106 642 147 q 606 31 603 64 q 633 -27 610 -14 q 688 -36 657 -40 q 753 -16 719 -32 q 808 17 786 0 q 895 104 860 54 q 942 210 931 154 q 936 320 953 265 q 867 421 919 375 q 752 390 810 397 q 633 397 694 382 q 603 328 621 369 q 562 240 585 288 q 513 145 539 193 q 457 56 486 97 q 396 -13 428 15 q 332 -50 364 -42 q 288 -53 313 -56 q 239 -41 263 -50 q 195 -17 215 -32 q 164 15 175 -3 q 147 73 149 42 q 153 135 146 104 q 0 263 50 168 q 6 265 -3 267 q 28 260 15 264 q 51 250 40 256 q 65 240 63 244 q 81 213 71 228 q 102 185 90 199 q 128 160 114 171 q 156 149 142 150 q 180 207 164 175 q 219 267 196 239 q 269 311 242 294 q 328 322 297 328 q 355 316 340 319 q 382 305 369 313 q 403 287 394 297 q 411 261 411 276 q 401 226 411 244 q 376 192 392 208 q 344 161 361 175 q 313 140 326 147 q 219 121 269 118 q 210 44 208 81 q 228 -12 213 8 q 274 -27 244 -32 q 344 22 303 -22 q 402 96 374 53 q 459 191 431 139 q 515 301 488 243 q 569 421 542 360 q 542 441 557 428 q 525 469 526 454 q 534 490 525 482 q 557 501 543 497 q 585 506 571 504 q 607 507 599 507 q 651 608 628 554 q 699 716 674 663 q 751 819 724 769 q 811 911 779 869 q 800 912 806 911 q 788 913 794 913 q 678 908 736 917 q 567 878 621 900 q 469 822 514 857 q 403 736 425 786 q 389 678 390 708 q 404 621 388 649 q 417 606 411 610 q 428 601 422 603 q 441 597 433 599 q 460 589 449 594 m 885 896 q 824 810 853 860 q 770 708 796 761 q 722 601 744 654 q 681 506 700 549 q 836 463 769 494 q 950 542 889 490 q 998 591 975 564 q 1035 648 1021 618 q 1053 711 1050 678 q 1039 779 1056 744 q 974 853 1017 825 q 885 896 932 882 m 817 454 q 752 474 789 467 q 671 481 715 482 l 642 415 q 731 424 686 413 q 817 454 776 435 m 233 158 q 271 180 250 165 q 309 213 292 194 q 338 252 326 232 q 346 292 349 272 q 310 269 328 285 q 278 235 293 254 q 252 197 264 217 q 233 158 240 176 z "},"G":{"ha":1101,"x_min":-3,"x_max":1224,"o":"m 300 754 q 288 754 299 751 q 264 762 276 757 q 242 772 251 767 q 235 779 233 776 q 325 867 269 843 q 444 890 381 890 q 574 876 508 890 q 696 847 640 861 q 794 917 738 882 q 914 977 851 953 q 1040 1010 976 1001 q 1160 997 1104 1018 q 1209 959 1194 985 q 1219 906 1224 933 q 1194 852 1215 878 q 1138 813 1174 826 q 1046 790 1094 796 q 947 787 997 785 q 848 797 897 789 q 754 817 799 806 q 605 662 674 749 q 499 476 536 575 q 474 397 485 439 q 460 313 464 356 q 463 229 457 271 q 488 151 468 188 q 548 81 511 104 q 627 54 585 58 q 715 63 669 50 q 800 99 760 75 q 822 151 808 117 q 851 228 835 186 q 887 313 868 269 q 924 392 906 356 q 962 451 943 428 q 996 474 981 474 q 1055 458 1032 471 q 1085 429 1078 446 q 1088 392 1090 414 q 1079 347 1086 369 q 1063 302 1072 324 q 1044 265 1053 281 q 970 161 1015 213 q 865 75 925 110 q 807 -43 839 15 q 737 -152 775 -101 q 653 -242 699 -203 q 553 -301 607 -281 q 410 -324 479 -329 q 282 -290 342 -318 q 179 -203 211 -256 q 149 -124 156 -167 q 150 -39 142 -82 q 0 88 50 -6 q 6 90 -3 92 q 28 85 15 89 q 51 76 40 82 q 65 67 63 71 q 81 40 71 56 q 102 11 90 25 q 127 -13 114 -3 q 154 -25 140 -24 q 176 32 160 0 q 217 92 193 64 q 269 136 240 119 q 328 149 297 153 q 403 114 383 138 q 411 88 411 103 q 387 29 407 56 q 338 -16 367 3 q 278 -45 310 -35 q 218 -53 246 -56 q 213 -141 207 -97 q 243 -224 219 -185 q 274 -262 257 -246 q 313 -289 292 -279 q 384 -301 340 -303 q 490 -275 428 -299 q 578 -225 538 -257 q 652 -152 618 -193 q 716 -63 686 -111 q 771 36 746 -15 q 674 29 726 25 q 574 51 622 33 q 485 99 525 68 q 422 172 444 129 q 397 252 403 210 q 395 337 392 294 q 409 422 399 379 q 435 501 419 464 q 537 683 471 597 q 681 835 603 768 q 569 858 625 849 q 464 862 514 867 q 372 833 414 857 q 300 754 329 808 m 769 829 q 844 817 804 822 q 923 813 883 813 q 1001 819 963 814 q 1075 839 1040 825 q 1103 851 1088 843 q 1130 871 1118 860 q 1149 896 1142 882 q 1154 926 1156 910 q 1122 975 1149 964 q 1058 979 1096 986 q 976 952 1021 972 q 890 908 932 932 q 816 863 849 885 q 769 829 783 840 m 229 -17 q 267 3 246 -11 q 308 37 289 18 q 338 77 326 56 q 346 118 349 99 q 310 95 328 111 q 276 60 292 79 q 249 21 261 42 q 229 -17 236 0 m 917 199 q 953 247 933 219 q 988 306 972 275 q 1015 369 1004 338 q 1024 429 1025 401 q 994 383 1008 413 q 965 321 979 354 q 939 255 951 288 q 917 199 926 222 z "},"K":{"ha":943,"x_min":-3,"x_max":1450,"o":"m 1443 957 q 1419 957 1450 947 q 1395 967 1407 961 q 1381 976 1383 972 q 1372 978 1379 978 q 1288 956 1325 978 q 1210 894 1243 932 q 1177 857 1192 876 q 1147 814 1163 838 q 1108 749 1126 782 q 1074 685 1090 717 q 1026 601 1050 643 q 974 519 1003 560 q 859 408 921 446 q 740 357 797 371 q 786 251 768 315 q 822 111 804 186 q 848 2 832 65 q 888 -123 864 -61 q 948 -237 913 -185 q 1035 -311 983 -289 q 1140 -307 1081 -329 q 1208 -258 1181 -292 q 1250 -185 1235 -225 q 1262 -184 1251 -182 q 1285 -191 1272 -186 q 1307 -201 1297 -196 q 1315 -208 1317 -206 q 1272 -283 1300 -250 q 1203 -333 1244 -317 q 1033 -325 1133 -361 q 914 -252 960 -301 q 838 -140 868 -203 q 790 -5 808 -76 q 757 133 772 67 q 727 253 742 197 q 693 350 713 310 l 682 350 q 622 354 651 349 q 594 284 610 324 q 559 201 579 244 q 515 116 539 158 q 464 39 492 74 q 405 -19 436 4 q 339 -49 374 -43 q 290 -48 317 -53 q 239 -32 264 -43 q 192 -4 214 -21 q 161 33 171 13 q 147 90 147 60 q 153 149 146 121 q 0 276 50 182 q 6 279 -3 281 q 28 274 15 278 q 51 265 40 271 q 65 256 63 260 q 81 228 71 243 q 102 199 90 213 q 128 176 114 186 q 156 164 142 165 q 178 221 163 189 q 217 280 194 253 q 268 324 240 307 q 328 336 296 342 q 403 301 383 325 q 410 263 417 285 q 386 219 403 240 q 349 180 369 197 q 314 156 328 163 q 219 136 271 135 q 214 108 217 121 q 211 81 211 94 q 225 13 211 40 q 256 -24 240 -17 q 325 -6 292 -26 q 388 49 358 14 q 443 128 417 83 q 490 217 469 172 q 528 304 511 263 q 556 374 544 346 q 538 384 549 378 q 517 399 526 390 q 503 418 507 408 q 506 439 499 428 q 520 447 510 444 q 542 450 531 450 q 565 448 554 450 q 583 444 576 446 q 631 555 606 497 q 683 669 656 613 q 742 781 711 726 q 806 881 772 835 q 721 918 761 899 q 640 953 681 938 q 554 975 599 968 q 458 974 510 982 q 365 934 408 965 q 299 860 322 903 q 275 769 275 818 q 308 678 275 721 q 324 660 318 665 q 334 652 329 654 q 346 648 339 650 q 365 642 353 646 q 392 627 381 635 q 389 622 404 619 q 285 660 328 628 q 223 737 242 692 q 214 834 204 782 q 267 932 224 886 q 399 1000 318 988 q 511 1001 458 1010 q 614 975 564 993 q 713 934 664 957 q 815 892 763 911 q 835 918 824 903 q 860 947 846 933 q 888 972 874 961 q 915 982 903 982 q 989 957 956 986 q 997 926 1003 944 q 979 896 990 907 q 931 865 958 875 q 874 860 903 856 q 810 761 840 814 q 754 653 781 708 q 703 542 728 599 q 654 435 678 486 l 650 424 q 681 410 665 418 q 708 392 696 403 q 810 444 758 408 q 908 544 863 481 q 962 626 939 585 q 1008 710 985 668 q 1044 774 1026 742 q 1083 839 1063 807 q 1113 883 1099 863 q 1144 921 1128 903 q 1224 982 1178 956 q 1268 999 1243 993 q 1318 1006 1293 1006 q 1387 993 1354 1004 q 1443 957 1419 982 m 233 174 q 271 194 250 181 q 309 227 292 208 q 338 266 326 246 q 346 306 349 286 q 310 284 328 299 q 278 251 293 269 q 253 212 264 232 q 233 174 242 192 m 631 376 q 652 379 642 378 q 674 383 663 381 q 644 411 661 400 l 631 376 m 568 406 l 576 426 q 567 419 569 428 q 568 406 564 411 z "},"L":{"ha":729,"x_min":-1,"x_max":1219,"o":"m 994 -197 q 1006 -197 996 -194 q 1028 -203 1017 -199 q 1050 -214 1040 -208 q 1058 -222 1060 -219 q 1015 -297 1043 -264 q 943 -346 988 -331 q 808 -352 875 -371 q 678 -292 740 -333 q 565 -195 617 -250 q 476 -93 514 -140 q 444 -53 460 -74 q 410 -11 428 -32 q 319 -46 368 -35 q 210 -51 269 -57 q 76 -22 124 -44 q 10 33 28 1 q 1 69 -1 51 q 13 103 3 88 q 38 131 22 119 q 71 150 54 143 q 197 160 122 172 q 358 81 272 149 q 378 65 369 74 q 397 49 388 57 q 468 124 436 82 q 526 213 500 165 q 572 308 551 260 q 611 404 593 357 q 643 488 625 440 q 684 588 661 535 q 733 698 707 642 q 788 808 758 754 q 697 828 746 815 q 598 853 649 842 q 497 869 547 864 q 402 868 447 875 q 319 837 357 861 q 256 764 282 813 q 243 763 254 761 q 220 770 232 765 q 199 781 208 775 q 190 789 189 786 q 257 863 217 839 q 344 895 297 888 q 444 897 392 903 q 550 880 497 892 q 653 855 603 868 q 747 833 704 842 q 772 829 760 831 q 796 826 785 828 q 893 983 843 914 q 996 1083 943 1051 q 1085 1106 1040 1111 q 1169 1075 1131 1101 q 1204 1038 1192 1061 q 1218 988 1217 1015 q 1210 933 1219 961 q 1176 879 1200 906 q 1062 810 1139 836 q 858 799 985 785 q 802 685 829 743 q 752 571 775 626 q 709 467 729 515 q 675 381 689 418 q 633 278 656 331 q 583 175 611 225 q 519 81 554 125 q 439 7 483 38 q 491 -52 467 -22 q 539 -112 515 -82 q 605 -194 568 -150 q 684 -274 642 -239 q 776 -324 726 -308 q 881 -319 825 -339 q 951 -272 924 -304 q 994 -197 979 -239 m 1060 1058 q 964 965 1011 1029 q 872 821 917 901 q 1022 844 964 821 q 1113 904 1081 868 q 1138 944 1128 921 q 1152 990 1149 967 q 1150 1038 1156 1014 q 1126 1079 1144 1061 q 1106 1078 1124 1082 q 1060 1058 1088 1075 m 372 31 q 338 64 356 47 q 301 96 321 81 q 212 135 257 132 q 133 125 167 139 q 101 106 117 118 q 76 80 86 94 q 65 48 67 65 q 74 13 63 31 q 101 -12 81 -1 q 158 -25 122 -22 q 276 -15 224 -31 q 372 31 328 0 z "},"I":{"ha":667,"x_min":-3,"x_max":1003,"o":"m 363 640 q 379 633 371 638 q 392 626 388 629 q 397 622 397 624 q 389 621 397 619 q 306 645 344 625 q 244 696 268 665 q 211 800 210 742 q 228 874 213 839 q 268 934 243 908 q 326 977 293 960 q 399 1001 360 994 q 508 1002 454 1010 q 613 977 561 994 q 715 936 665 960 q 815 892 765 913 q 835 918 824 903 q 860 947 846 933 q 888 972 874 961 q 915 982 903 982 q 989 957 956 986 q 996 922 1003 940 q 969 888 989 903 q 924 864 950 872 q 874 860 897 856 q 797 731 826 794 q 739 592 768 667 q 682 450 713 526 q 616 298 651 374 q 540 152 581 222 q 453 28 499 82 q 345 -48 401 -31 q 215 -25 289 -65 q 184 -3 199 -15 q 161 29 169 10 q 147 88 147 57 q 153 146 146 118 q 0 274 50 179 q 6 276 -3 278 q 28 271 15 275 q 51 261 40 267 q 65 251 63 256 q 80 226 71 240 q 101 199 89 213 q 125 174 113 185 q 150 161 138 164 l 156 161 q 188 233 167 197 q 238 297 210 269 q 285 328 261 321 q 328 333 308 336 q 403 299 381 325 q 412 265 415 283 q 397 229 408 247 q 369 196 385 211 q 344 172 354 181 q 219 132 292 129 q 211 69 211 103 q 225 8 211 36 q 238 -14 232 -7 q 251 -25 243 -21 q 338 3 293 -32 q 424 99 382 39 q 506 234 467 158 q 578 384 544 310 q 636 521 611 458 q 674 617 661 583 q 731 753 703 689 q 806 881 760 817 q 720 918 761 899 q 638 953 679 938 q 553 975 597 968 q 458 974 508 982 q 388 950 421 967 q 332 908 356 933 q 293 849 308 882 q 276 776 278 815 q 284 722 275 749 q 308 676 293 696 q 323 659 318 664 q 333 651 328 654 q 344 647 338 649 q 363 640 350 644 m 233 171 q 270 191 250 178 q 307 222 290 204 q 335 258 324 239 q 346 296 346 278 l 346 303 q 310 281 328 296 q 278 247 293 265 q 252 209 264 229 q 233 171 240 189 z "},"J":{"ha":857,"x_min":-3,"x_max":1183,"o":"m 542 640 q 558 633 550 638 q 572 626 567 629 q 578 620 578 622 q 569 619 578 618 q 488 644 525 624 q 426 696 450 664 q 398 753 406 722 q 394 817 390 785 q 411 878 397 849 q 447 932 425 908 q 567 998 499 986 q 706 999 635 1010 q 788 979 751 992 q 857 952 824 967 q 923 922 890 938 q 996 892 956 906 q 1016 918 1004 903 q 1042 947 1028 933 q 1070 972 1056 961 q 1097 982 1085 982 q 1169 957 1138 986 q 1177 926 1183 944 q 1160 896 1171 907 q 1112 865 1140 875 q 1056 860 1083 856 q 993 761 1021 813 q 942 656 965 710 q 899 547 919 601 q 857 438 878 492 q 814 324 840 394 q 753 173 788 254 q 680 8 719 92 q 596 -148 640 -76 q 503 -269 551 -219 q 407 -331 456 -318 q 294 -319 357 -343 q 244 -292 267 -308 q 210 -254 222 -275 q 188 -178 189 -219 q 196 -100 186 -137 q 0 63 63 -61 q 6 65 -3 67 q 28 60 15 64 q 51 50 40 56 q 65 40 63 44 q 89 1 75 21 q 120 -37 103 -19 q 158 -67 138 -54 q 200 -83 178 -79 q 240 11 214 -36 q 303 93 267 58 q 363 131 333 121 q 417 139 393 142 q 497 101 475 128 q 508 68 508 86 q 489 11 508 44 q 422 -61 469 -22 q 264 -112 354 -117 q 252 -195 253 -151 q 274 -275 251 -239 q 290 -297 282 -290 q 303 -308 297 -304 q 381 -290 342 -314 q 458 -223 419 -267 q 532 -119 496 -179 q 602 8 568 -58 q 665 143 636 75 q 719 273 694 211 q 763 384 744 335 q 793 463 782 433 q 877 677 835 569 q 988 881 919 785 q 928 907 957 893 q 869 933 899 921 q 810 956 840 946 q 749 972 781 967 q 621 970 683 983 q 513 907 558 957 q 477 854 492 883 q 458 794 463 825 q 461 732 454 763 q 489 675 468 701 q 503 658 499 664 q 513 650 508 653 q 523 646 517 647 q 542 640 529 644 m 275 -78 q 331 -53 297 -74 q 392 -6 364 -33 q 436 53 421 22 q 439 111 451 83 q 386 85 411 106 q 340 36 361 64 q 301 -22 318 8 q 275 -78 285 -53 z "},"D":{"ha":1186,"x_min":-3,"x_max":1176,"o":"m 460 589 q 474 579 471 583 q 471 575 478 575 q 437 581 456 576 q 399 594 418 585 q 343 636 364 610 q 324 703 322 663 q 344 775 324 742 q 394 835 364 808 q 459 883 424 863 q 528 914 494 903 q 670 942 593 938 q 828 931 747 947 q 847 950 838 942 q 868 965 857 958 q 942 998 900 989 q 1046 1004 985 1007 q 1065 1000 1051 1004 q 1089 990 1078 996 q 1105 981 1100 985 q 1100 978 1110 978 q 1003 971 1043 981 q 932 940 964 961 q 896 910 915 929 q 1046 813 985 875 q 1147 640 1117 738 q 1169 442 1176 543 q 1121 245 1163 340 q 1007 81 1079 150 q 836 -33 919 -3 q 690 -56 753 -64 q 644 -45 669 -53 q 597 -25 619 -37 q 559 5 575 -12 q 539 47 543 22 q 553 125 533 81 q 626 221 574 169 q 640 221 629 224 q 663 213 651 218 q 684 203 675 208 q 690 196 693 197 q 618 101 638 144 q 604 25 599 57 q 628 -19 610 -7 q 672 -31 647 -31 q 722 -24 696 -32 q 769 -8 749 -17 q 931 93 861 26 q 1044 244 1001 160 q 1099 426 1086 329 q 1092 618 1113 522 q 983 831 1064 743 q 886 899 935 881 q 825 810 854 861 q 769 704 796 760 q 719 594 742 649 q 676 496 696 540 q 642 414 663 464 q 594 306 621 364 q 538 190 568 249 q 473 80 507 131 q 403 -6 439 29 q 332 -50 368 -42 q 288 -53 313 -56 q 239 -41 263 -50 q 195 -17 215 -32 q 164 15 175 -3 q 147 73 149 42 q 153 135 146 104 q 0 263 50 168 q 6 265 -3 267 q 28 260 15 264 q 51 250 40 256 q 65 240 63 244 q 81 213 71 228 q 102 185 90 199 q 128 160 114 171 q 156 149 142 150 q 178 206 163 174 q 217 265 194 238 q 268 310 240 293 q 328 322 296 328 q 403 288 381 314 q 411 261 411 276 q 401 226 411 244 q 376 192 392 208 q 344 162 361 175 q 313 140 326 149 q 219 121 269 118 q 210 44 208 81 q 228 -12 213 8 q 274 -27 244 -32 q 344 22 303 -22 q 414 114 379 58 q 482 235 449 169 q 548 374 515 301 q 613 519 581 447 q 654 617 632 565 q 701 722 676 669 q 754 824 726 775 q 814 913 782 874 q 698 913 754 919 q 590 888 642 906 q 523 857 558 876 q 458 810 488 838 q 408 750 428 783 q 389 679 389 717 q 401 625 389 650 q 413 609 407 614 q 426 601 419 604 q 440 597 432 599 q 460 589 449 594 m 233 160 q 271 180 250 165 q 309 213 292 194 q 338 251 326 231 q 346 292 349 272 q 310 269 328 285 q 278 235 293 254 q 252 197 264 217 q 233 160 240 176 z "},"E":{"ha":864,"x_min":-1,"x_max":990,"o":"m 678 364 q 659 367 671 364 q 636 376 647 371 q 619 385 625 381 q 619 390 613 390 q 644 391 632 393 q 671 386 657 389 q 755 347 724 374 q 798 286 786 321 q 806 212 810 251 q 785 134 801 172 q 740 61 768 96 q 676 1 711 26 q 571 -44 629 -32 q 453 -51 513 -57 q 340 -19 394 -44 q 246 47 285 6 q 186 149 201 93 q 178 263 171 206 q 212 373 185 319 q 282 468 239 426 q 356 526 317 500 q 438 571 394 551 q 424 697 414 631 q 463 818 435 763 q 348 845 406 833 q 237 853 290 857 q 139 823 183 849 q 65 738 94 797 q 53 737 64 735 q 29 744 42 739 q 8 754 17 749 q 0 763 -1 760 q 91 856 35 831 q 213 881 147 882 q 345 864 278 881 q 471 832 413 847 q 557 934 506 893 q 678 993 608 975 q 751 1002 707 1001 q 838 995 794 1003 q 919 970 882 988 q 974 924 957 953 q 983 874 990 896 q 956 833 975 851 q 911 803 938 815 q 864 786 885 792 q 697 772 783 764 q 531 800 611 781 q 493 698 506 753 q 490 590 481 643 q 540 606 515 600 q 588 614 564 611 q 696 610 647 621 q 775 567 744 599 q 793 516 801 539 q 758 477 785 493 q 697 453 732 461 q 636 446 661 444 q 541 467 588 449 q 463 525 494 486 q 401 488 431 508 q 347 443 372 467 q 278 350 306 403 q 244 241 251 297 q 251 129 236 185 q 308 29 265 74 q 378 -15 339 -3 q 458 -26 417 -28 q 539 -11 499 -25 q 613 26 579 3 q 675 87 644 49 q 724 169 706 125 q 742 260 742 214 q 714 343 742 306 q 678 364 703 364 m 539 814 q 671 797 601 800 q 803 813 740 794 q 900 867 875 832 q 915 931 925 903 q 860 974 904 961 q 739 967 815 986 q 539 814 610 931 m 646 586 q 577 572 614 583 q 503 546 540 561 q 575 472 529 485 q 678 490 621 460 q 717 522 703 503 q 729 556 731 540 q 708 582 728 572 q 646 586 689 592 z "},"X":{"ha":1371,"x_min":0,"x_max":1525,"o":"m 1211 351 q 1210 357 1203 357 q 1228 354 1217 357 q 1252 347 1239 351 q 1269 338 1265 342 q 1307 288 1294 318 q 1321 223 1319 257 q 1315 156 1322 189 q 1294 96 1308 122 q 1251 35 1276 63 q 1194 -12 1225 7 q 1126 -42 1163 -32 q 1053 -51 1090 -53 q 975 -38 1013 -50 q 906 -6 938 -26 q 849 45 874 15 q 810 113 824 75 q 782 258 786 175 q 781 431 778 340 q 643 246 711 336 q 510 85 575 156 q 388 -31 446 14 q 279 -81 329 -76 q 261 -82 269 -82 q 244 -82 253 -82 q 60 -11 133 -81 q 1 119 10 39 q 0 137 0 128 q 0 154 0 146 q 10 156 0 158 q 33 150 21 154 q 55 140 44 146 q 65 131 65 135 q 65 113 65 121 q 67 96 65 104 q 121 -28 74 18 q 167 -52 142 -47 q 219 -54 192 -57 q 310 -14 260 -50 q 414 76 360 22 q 522 198 468 131 q 626 331 576 265 q 716 453 675 396 q 783 547 757 511 q 784 648 785 590 q 773 762 783 706 q 738 865 763 818 q 663 933 713 911 q 604 945 638 946 q 537 935 571 944 q 472 910 503 926 q 419 875 440 894 q 465 806 447 844 q 481 725 483 767 q 472 683 478 706 q 456 643 467 661 q 429 615 446 625 q 388 607 413 604 q 304 642 336 614 q 276 685 286 657 q 274 749 267 713 q 301 830 279 790 q 353 897 322 869 q 269 947 314 935 q 172 954 225 960 q 153 958 165 954 q 131 967 142 961 q 113 976 119 972 q 114 982 107 981 q 249 971 181 989 q 372 914 318 953 q 526 969 440 967 q 689 938 613 972 q 769 883 739 914 q 817 813 800 851 q 841 728 835 774 q 849 635 847 683 q 958 774 904 708 q 1061 889 1011 839 q 1158 969 1111 939 q 1244 1004 1204 1000 q 1361 992 1303 1010 q 1463 933 1419 974 q 1511 858 1497 901 q 1522 768 1525 814 q 1512 767 1522 765 q 1490 774 1501 769 q 1468 783 1478 778 q 1458 792 1458 788 q 1451 865 1458 829 q 1424 926 1443 900 q 1376 966 1406 951 q 1303 976 1346 981 q 1206 933 1258 972 q 1094 832 1153 894 q 974 690 1036 769 q 849 524 913 610 q 847 494 847 508 q 847 464 847 479 q 845 361 846 413 q 847 261 844 310 q 855 169 849 213 q 875 90 861 125 q 912 24 890 50 q 958 -17 933 -3 q 999 -24 972 -24 q 1069 -14 1035 -25 q 1133 17 1103 -3 q 1188 63 1164 36 q 1229 121 1213 89 q 1249 176 1242 144 q 1256 241 1257 208 q 1245 303 1256 274 q 1211 351 1235 333 m 392 846 q 363 799 376 826 q 341 743 349 772 q 336 685 333 714 q 356 635 339 657 q 396 670 382 644 q 413 727 410 696 q 410 791 417 758 q 392 846 404 824 z "},"Y":{"ha":996,"x_min":-3,"x_max":1232,"o":"m 178 619 q 95 644 133 624 q 33 694 57 664 q 5 753 13 721 q 1 817 -3 785 q 19 878 6 849 q 56 932 33 908 q 114 976 81 958 q 186 1000 147 993 q 301 1001 249 1010 q 404 975 354 993 q 503 933 454 957 q 604 892 551 910 q 623 917 613 903 q 646 945 633 932 q 672 968 658 958 q 700 982 686 978 q 719 981 706 983 q 748 974 733 979 q 774 959 763 968 q 786 940 786 950 q 783 918 788 931 q 768 894 779 906 q 719 865 747 875 q 663 860 692 854 q 574 723 622 803 q 486 554 526 643 q 430 418 454 486 q 396 290 406 350 q 393 185 386 232 q 432 113 400 139 q 533 120 479 99 q 640 185 586 142 q 744 284 693 228 q 838 394 796 340 q 912 494 881 449 q 957 563 943 540 l 963 571 l 986 638 q 1039 785 1014 717 q 1088 902 1064 854 q 1136 974 1113 950 q 1185 989 1160 997 q 1224 931 1232 974 q 1199 863 1217 904 q 1156 768 1182 821 q 1098 662 1131 718 q 1028 546 1065 606 q 971 385 1003 476 q 897 198 939 294 q 805 7 856 101 q 694 -165 754 -87 q 561 -295 633 -243 q 406 -358 489 -347 q 239 -324 318 -368 q 181 -269 200 -303 q 168 -190 161 -235 q 19 -64 67 -157 q 26 -61 17 -60 q 47 -66 35 -62 q 71 -75 60 -69 q 85 -85 82 -81 q 99 -110 90 -96 q 120 -139 108 -125 q 145 -163 132 -153 q 171 -176 158 -174 q 199 -110 178 -144 q 256 -40 219 -76 q 327 -3 289 -8 q 422 -37 365 3 q 431 -72 435 -53 q 416 -108 428 -90 q 389 -141 404 -125 q 364 -165 374 -157 q 235 -204 306 -211 q 233 -239 232 -219 q 241 -276 235 -258 q 257 -308 247 -293 q 281 -328 267 -322 q 376 -326 328 -339 q 472 -285 425 -314 q 560 -217 518 -257 q 635 -135 601 -176 q 710 -24 675 -83 q 775 97 744 35 q 831 222 806 158 q 881 346 857 285 q 764 223 824 279 q 644 132 704 167 q 525 88 583 97 q 413 103 467 78 q 372 128 386 117 q 329 205 338 157 q 331 314 321 253 q 365 442 342 375 q 421 578 389 510 q 508 744 461 665 q 596 879 556 824 q 510 917 551 897 q 428 953 469 938 q 343 975 388 968 q 247 974 299 982 q 119 906 171 961 q 85 853 99 882 q 67 794 71 825 q 69 732 63 763 q 97 675 76 701 q 113 656 107 661 q 126 647 119 650 q 165 632 150 638 q 185 622 178 626 q 178 619 192 617 m 246 -169 q 286 -148 264 -162 q 327 -115 308 -133 q 357 -74 346 -96 q 365 -33 368 -53 q 330 -56 349 -40 q 295 -92 311 -72 q 266 -132 279 -111 q 246 -169 253 -153 z "},"W":{"ha":1192,"x_min":-3,"x_max":1906,"o":"m 1904 961 q 1897 958 1906 957 q 1876 964 1888 960 q 1852 974 1864 968 q 1839 983 1840 979 q 1810 1015 1826 1007 q 1775 1022 1794 1024 q 1735 1012 1756 1021 q 1693 993 1714 1003 q 1601 931 1646 968 q 1488 817 1544 881 q 1378 685 1432 754 q 1272 542 1324 615 q 1169 397 1219 468 q 1063 247 1114 318 q 964 118 1011 175 q 905 52 933 81 q 848 6 876 24 q 790 -15 819 -11 q 728 -6 760 -19 q 649 71 667 18 q 638 169 636 113 q 565 65 610 124 q 447 -43 519 6 q 409 -56 429 -54 q 369 -53 389 -58 q 331 -39 349 -49 q 303 -18 314 -29 q 265 60 271 10 q 272 178 260 111 q 313 320 286 244 q 375 475 339 396 q 431 592 401 535 q 489 703 460 650 q 545 801 518 756 q 596 879 572 846 q 510 917 551 897 q 428 953 469 938 q 343 975 388 968 q 247 974 299 982 q 119 907 171 961 q 85 854 99 883 q 67 794 71 825 q 69 733 63 764 q 97 676 76 703 q 115 656 108 663 q 128 647 121 650 q 165 632 150 638 q 184 622 178 626 q 178 619 190 618 q 95 644 133 625 q 33 696 57 664 q 5 753 13 722 q 1 817 -3 785 q 19 878 6 849 q 56 932 33 908 q 186 1001 108 989 q 302 1002 249 1011 q 405 975 356 993 q 503 933 454 957 q 604 892 551 910 q 624 918 613 903 q 649 947 635 933 q 676 972 663 961 q 704 982 690 982 q 778 957 744 986 q 785 926 792 944 q 768 896 779 907 q 719 865 747 875 q 664 860 692 856 q 613 781 640 826 q 556 682 585 735 q 496 570 526 629 q 439 451 465 511 q 377 296 404 372 q 338 153 350 219 q 329 45 326 92 q 356 -26 332 -1 q 434 15 393 -22 q 515 106 475 53 q 592 219 554 160 q 658 325 629 278 q 685 428 669 376 q 719 528 701 479 q 788 675 753 614 q 851 746 824 736 q 883 741 863 749 q 917 722 904 733 q 912 683 922 715 q 878 600 901 650 q 824 487 856 550 q 756 357 793 424 q 740 330 749 343 q 724 303 732 317 q 713 240 719 282 q 703 153 706 199 q 708 69 701 108 q 736 11 715 29 q 794 38 761 13 q 865 103 828 64 q 938 190 901 143 q 1008 283 975 238 q 1065 365 1040 328 q 1104 422 1090 403 q 1207 567 1154 493 q 1314 710 1260 640 q 1424 842 1368 779 q 1538 956 1481 906 q 1629 1019 1581 994 q 1685 1041 1657 1033 q 1739 1049 1713 1049 q 1820 1036 1783 1050 q 1885 990 1857 1022 q 1904 961 1897 975 z "},"U":{"ha":972,"x_min":-3,"x_max":1243,"o":"m 874 -1 q 890 -3 878 0 q 913 -10 901 -6 q 933 -19 925 -14 q 938 -26 942 -25 q 894 -48 915 -40 q 854 -56 874 -56 q 789 -40 818 -53 q 740 -1 760 -28 q 740 128 717 31 q 641 34 693 78 q 534 -33 589 -10 q 425 -54 479 -57 q 319 -8 371 -51 q 282 59 290 17 q 278 153 274 101 q 299 261 283 204 q 333 371 314 318 q 373 468 353 424 q 406 540 393 513 q 504 731 453 640 q 596 879 556 821 q 480 929 542 901 q 356 971 418 957 q 232 974 293 985 q 119 907 171 963 q 85 854 99 883 q 67 794 71 825 q 69 732 63 763 q 97 675 76 701 q 115 656 108 661 q 128 647 121 650 q 141 642 128 647 q 167 632 154 638 q 185 622 179 626 q 178 619 192 618 q 95 644 133 624 q 33 696 57 664 q 5 753 13 722 q 1 817 -3 785 q 19 878 6 849 q 56 932 33 908 q 182 1003 111 992 q 327 997 253 1014 q 474 949 401 981 q 604 892 546 917 q 624 918 613 903 q 649 947 635 933 q 676 971 663 961 q 704 982 690 981 q 778 957 744 986 q 785 926 792 944 q 768 896 779 907 q 719 865 747 875 q 664 860 692 856 q 619 792 643 831 q 570 708 596 753 q 519 615 544 664 q 469 515 493 567 q 440 447 457 488 q 404 360 422 407 q 372 263 386 314 q 349 165 357 213 q 341 76 340 118 q 357 4 342 35 q 381 -23 368 -17 q 411 -26 394 -29 q 516 14 461 -22 q 622 98 571 50 q 717 197 674 146 q 788 281 760 247 q 824 374 799 313 q 883 508 850 435 q 955 659 917 581 q 1031 806 993 738 q 1102 924 1068 874 q 1160 992 1136 975 q 1183 995 1168 997 q 1211 985 1197 993 q 1234 965 1225 978 q 1239 933 1243 951 q 1213 858 1232 906 q 1164 753 1193 811 q 1096 628 1133 694 q 1014 490 1058 561 q 938 377 978 433 q 857 268 899 321 q 847 243 851 256 q 839 218 843 231 q 797 65 808 131 q 807 -26 786 0 q 824 -25 814 -28 q 843 -18 833 -22 q 861 -9 853 -14 q 874 -1 869 -4 m 942 490 q 1053 688 999 585 q 1156 890 1108 790 q 1046 692 1101 796 q 942 490 990 588 z "},"M":{"ha":1308,"x_min":-1,"x_max":1503,"o":"m 0 263 q 8 265 -1 267 q 29 260 17 264 q 52 250 42 256 q 65 240 63 244 q 102 180 79 210 q 161 147 125 150 q 191 222 172 185 q 239 286 210 260 q 287 317 263 310 q 331 322 311 325 q 406 288 383 314 q 413 263 414 276 q 389 209 408 235 q 342 164 369 183 q 284 133 315 144 q 225 121 253 121 q 218 85 221 106 q 216 44 215 65 q 223 5 217 24 q 244 -26 229 -14 q 299 -12 271 -28 q 344 22 326 4 q 432 127 390 67 q 513 258 474 188 q 590 404 553 328 q 664 555 628 481 q 736 699 700 629 q 810 828 772 769 q 868 909 840 875 q 929 965 896 943 q 1017 1001 972 994 q 1099 1003 1063 1007 q 1155 990 1135 999 q 1168 978 1175 981 q 1072 895 1118 953 q 986 760 1026 838 q 913 592 946 682 q 855 413 879 501 q 816 243 831 324 q 799 104 801 163 l 799 56 l 806 69 q 854 176 825 111 q 921 319 883 242 q 1002 480 958 396 q 1092 644 1046 564 q 1185 795 1138 724 q 1279 919 1233 867 q 1368 998 1325 971 q 1447 1017 1411 1025 q 1458 1014 1449 1017 q 1478 1007 1468 1011 q 1496 999 1489 1003 q 1501 992 1503 994 q 1385 778 1440 904 q 1290 514 1329 653 q 1238 261 1254 386 q 1232 35 1221 136 q 1251 -51 1236 -4 q 1297 -124 1267 -97 q 1354 -108 1329 -122 q 1394 -82 1379 -93 q 1408 -82 1397 -79 q 1431 -90 1419 -85 q 1452 -100 1443 -94 q 1458 -107 1461 -106 q 1409 -137 1432 -128 q 1367 -150 1386 -147 q 1320 -147 1344 -153 q 1269 -128 1296 -140 q 1195 -49 1217 -101 q 1167 58 1174 3 q 1172 285 1156 160 q 1225 538 1189 410 q 1299 755 1257 653 q 1389 940 1340 857 q 1293 832 1343 900 q 1192 680 1243 764 q 1093 503 1142 596 q 1002 325 1044 411 q 925 165 960 239 q 869 44 890 92 q 848 -1 856 15 q 838 -18 840 -18 q 751 17 782 -26 q 736 60 740 32 q 733 128 732 88 q 749 260 736 185 q 784 415 763 335 q 835 578 806 496 q 898 735 864 661 q 970 869 932 808 q 1049 967 1008 929 q 993 940 1017 956 q 932 884 960 918 q 874 803 904 850 q 764 603 818 715 q 654 379 710 492 q 538 165 599 267 q 410 -3 478 64 q 325 -51 368 -42 q 226 -36 282 -60 q 158 31 169 -11 q 157 131 146 74 q 63 178 101 146 q 0 263 24 210 m 240 165 q 274 186 254 172 q 310 217 293 200 q 338 254 326 235 q 347 292 349 274 q 283 239 310 276 q 240 165 256 201 z "},"F":{"ha":790,"x_min":-3,"x_max":1161,"o":"m 858 417 q 848 416 858 414 q 825 422 838 418 q 803 432 813 426 q 793 440 793 438 q 789 483 796 461 q 769 524 782 506 q 736 555 756 543 q 696 568 717 567 l 678 524 q 644 440 664 492 q 597 326 624 388 q 540 203 571 265 q 476 87 510 140 q 405 -3 442 33 q 332 -50 368 -40 q 288 -53 313 -56 q 239 -41 263 -50 q 195 -17 215 -32 q 164 15 175 -3 q 147 73 149 42 q 153 135 146 104 q 0 263 50 168 q 6 265 -3 267 q 28 260 15 264 q 51 250 40 256 q 65 240 63 244 q 81 213 71 228 q 102 185 90 199 q 128 160 114 171 q 156 149 142 150 q 180 206 164 174 q 219 266 196 239 q 269 310 242 293 q 328 322 297 328 q 403 288 381 314 q 411 261 411 276 q 392 206 411 232 q 343 160 372 179 q 281 130 314 140 q 219 121 247 119 q 210 44 208 81 q 228 -12 213 8 q 274 -27 244 -32 q 344 22 303 -22 q 395 88 369 49 q 447 174 421 126 q 497 276 472 222 q 547 389 522 331 q 518 394 532 390 q 492 406 504 399 q 457 433 467 417 q 449 469 447 450 q 460 507 450 488 q 486 542 471 526 q 546 581 510 565 q 633 596 582 596 q 702 759 669 683 q 767 889 735 835 q 779 890 768 892 q 803 883 790 888 q 824 872 815 878 q 832 864 833 867 q 769 740 801 811 q 703 585 738 668 q 813 526 765 565 q 847 482 833 507 q 860 429 861 457 q 859 423 860 426 q 858 417 858 419 m 374 710 q 363 709 372 707 q 339 715 353 711 q 277 753 301 729 q 243 808 253 778 q 240 870 233 838 q 275 935 247 903 q 373 996 315 982 q 492 1003 431 1010 q 615 978 554 997 q 722 940 675 958 q 792 916 757 928 q 865 899 828 904 q 938 895 901 893 q 1010 911 974 897 q 1063 948 1042 924 q 1092 1000 1085 972 q 1095 1031 1096 1014 q 1089 1062 1094 1047 q 1072 1087 1083 1076 q 1040 1100 1060 1097 q 1025 1115 1014 1114 q 1088 1104 1056 1118 q 1139 1067 1119 1090 q 1159 1015 1157 1043 q 1151 962 1161 988 q 1119 915 1140 936 q 1072 885 1099 894 q 985 868 1031 869 q 892 875 939 867 q 801 898 846 883 q 717 928 757 913 q 623 959 674 944 q 521 976 572 974 q 422 965 469 979 q 340 910 375 951 q 316 872 325 893 q 305 827 307 850 q 309 782 303 804 q 331 742 315 760 q 342 732 335 738 q 356 722 349 726 q 369 715 364 718 q 374 710 374 711 m 617 557 q 579 540 596 550 q 550 517 563 529 q 512 459 519 486 q 512 423 504 432 q 539 428 519 414 q 582 492 558 442 l 588 507 q 596 507 589 508 l 617 557 m 233 160 q 271 181 250 167 q 310 214 292 196 q 338 252 328 232 q 346 292 349 272 q 310 269 328 285 q 278 235 293 254 q 252 197 264 217 q 233 160 240 176 z "},"A":{"ha":1047,"x_min":-3,"x_max":1110,"o":"m 972 1 q 987 0 975 3 q 1010 -8 999 -3 q 1031 -17 1022 -12 q 1036 -25 1039 -22 q 997 -45 1017 -37 q 958 -53 978 -53 q 893 -40 924 -51 q 839 0 863 -28 q 799 112 806 36 q 806 283 793 188 l 804 283 q 694 272 751 272 q 585 290 638 272 q 542 202 568 256 q 484 96 517 149 q 413 1 451 43 q 332 -50 374 -40 q 288 -53 313 -56 q 239 -41 263 -50 q 195 -17 215 -32 q 164 15 175 -3 q 147 73 149 42 q 153 135 146 104 q 0 263 50 168 q 6 265 -3 267 q 28 260 15 264 q 51 250 40 256 q 65 240 63 244 q 81 213 71 228 q 102 185 90 199 q 128 160 114 171 q 156 149 142 150 q 188 222 167 186 q 238 286 210 258 q 285 317 261 310 q 328 322 308 325 q 403 288 381 314 q 411 261 411 276 q 396 216 411 242 q 344 161 381 190 q 313 140 331 150 q 219 121 269 118 q 210 44 208 81 q 228 -12 213 8 q 274 -27 244 -32 q 344 22 303 -22 q 435 148 390 71 q 522 317 479 225 q 462 363 490 336 q 419 424 433 389 q 412 487 407 457 q 434 540 417 517 q 479 578 451 564 q 542 592 507 592 q 588 586 564 590 q 636 574 613 582 q 678 671 653 614 q 733 785 703 728 q 798 891 764 842 q 868 965 832 940 q 942 998 900 989 q 1046 1004 985 1007 q 1065 1000 1051 1004 q 1089 990 1078 996 q 1105 981 1100 985 q 1100 978 1110 978 l 1058 978 q 1001 810 1029 901 q 949 631 972 718 q 908 471 925 543 q 886 361 892 399 q 953 411 924 382 q 996 482 983 440 q 1001 510 1001 497 q 993 533 1000 524 q 999 537 990 538 q 1019 533 1007 536 q 1042 524 1031 529 q 1057 514 1054 518 q 1065 488 1065 503 q 1061 458 1065 474 q 1032 403 1051 426 q 988 360 1013 379 q 934 328 963 342 q 876 304 906 314 q 867 239 874 283 q 861 144 861 194 q 870 47 861 94 q 907 -25 879 0 q 938 -18 926 -22 q 972 1 950 -14 m 829 431 q 865 585 844 507 q 906 733 885 663 q 946 863 926 803 q 981 964 965 922 q 932 940 954 956 q 862 865 896 915 q 797 758 828 815 q 742 643 767 700 q 699 546 717 586 q 772 497 739 525 q 829 431 804 468 m 811 329 q 812 333 811 332 q 813 338 813 335 q 770 445 801 396 q 692 529 739 494 l 676 496 q 592 306 635 397 q 644 300 615 300 q 702 304 672 300 q 760 315 732 308 q 811 329 789 321 m 483 403 q 531 336 497 367 q 572 427 551 381 q 613 519 593 474 l 629 560 q 596 564 613 564 q 538 550 564 564 q 496 513 511 536 q 476 461 481 490 q 483 403 472 432 m 233 160 q 271 181 250 167 q 310 214 292 196 q 338 252 328 232 q 346 292 349 272 q 310 269 328 285 q 278 235 293 254 q 252 197 264 217 q 233 160 240 176 z "},"T":{"ha":650,"x_min":-3,"x_max":1200,"o":"m 767 888 q 779 888 768 890 q 803 881 790 885 q 824 871 815 876 q 832 863 833 865 q 757 712 796 800 q 678 524 718 624 q 613 367 646 446 q 545 217 579 288 q 477 90 511 147 q 408 -3 443 32 q 371 -33 390 -22 q 332 -50 351 -44 q 288 -53 313 -56 q 239 -41 263 -50 q 195 -17 215 -32 q 164 15 175 -3 q 147 73 149 42 q 153 135 146 104 q 0 263 50 168 q 6 265 -3 267 q 28 260 15 264 q 51 250 40 256 q 65 240 63 244 q 81 213 71 228 q 102 185 90 199 q 128 160 114 171 q 156 149 142 150 q 180 206 164 174 q 219 266 196 239 q 269 310 242 293 q 328 322 297 328 q 403 288 381 314 q 411 261 411 276 q 396 216 411 242 q 344 161 381 190 q 219 121 289 117 q 210 44 208 81 q 228 -12 213 8 q 274 -27 244 -32 q 344 22 303 -22 q 413 116 379 58 q 481 244 447 174 q 549 392 515 314 q 614 549 582 471 q 692 737 654 649 q 767 888 731 825 m 368 708 q 357 707 367 706 q 333 714 347 708 q 261 760 285 732 q 238 801 244 778 q 233 847 232 824 q 244 892 235 869 q 269 933 254 915 q 328 979 293 963 q 401 1000 364 996 q 494 1001 447 1006 q 588 985 542 996 q 677 961 633 975 q 761 933 721 947 q 902 897 831 910 q 1046 910 974 883 q 1092 939 1071 919 q 1124 982 1113 958 q 1134 1032 1135 1006 q 1117 1082 1133 1058 q 1104 1089 1115 1083 q 1081 1099 1093 1094 q 1063 1108 1069 1104 q 1064 1113 1057 1113 q 1126 1102 1094 1115 q 1178 1065 1158 1089 q 1199 1013 1197 1040 q 1189 960 1200 985 q 1156 914 1178 935 q 1108 883 1135 893 q 1023 867 1067 868 q 935 872 979 865 q 849 890 892 878 q 767 917 806 903 q 619 961 697 940 q 461 974 542 982 q 391 953 425 969 q 333 908 357 936 q 310 870 318 892 q 299 826 301 849 q 303 781 297 803 q 324 740 308 758 q 350 721 332 731 q 368 708 368 711 m 233 158 q 271 180 250 165 q 309 213 292 194 q 338 251 326 231 q 346 292 349 272 q 310 269 328 285 q 278 235 293 254 q 252 197 264 217 q 233 158 240 176 z "},"R":{"ha":1007,"x_min":-1,"x_max":1299,"o":"m 1046 1004 q 1065 1000 1051 1004 q 1089 990 1078 996 q 1105 981 1100 985 q 1100 978 1110 978 q 1003 971 1043 981 q 932 940 964 961 q 901 915 917 931 q 1028 858 968 896 q 1133 733 1111 806 q 1115 571 1154 660 q 1049 464 1092 513 q 954 383 1007 415 q 738 322 853 321 q 774 222 760 279 q 804 97 789 164 q 823 14 811 64 q 853 -90 835 -36 q 894 -196 871 -144 q 951 -283 918 -247 q 1026 -332 985 -318 q 1122 -325 1068 -346 q 1190 -275 1163 -308 q 1232 -201 1217 -242 q 1244 -201 1233 -199 q 1267 -207 1256 -203 q 1289 -217 1279 -211 q 1297 -225 1299 -222 q 1254 -301 1282 -267 q 1185 -351 1226 -335 q 1108 -363 1149 -365 q 1026 -347 1067 -361 q 951 -311 986 -333 q 890 -261 915 -289 q 835 -181 858 -226 q 795 -86 813 -136 q 765 17 778 -36 q 739 121 751 69 q 712 233 725 181 q 682 326 699 286 q 610 343 642 333 q 511 144 561 236 q 408 -3 461 51 q 332 -50 372 -39 q 288 -53 313 -56 q 239 -41 263 -50 q 195 -17 215 -32 q 164 15 175 -3 q 147 73 149 42 q 151 135 144 104 q 63 182 99 153 q 0 263 28 211 q 8 265 -1 267 q 28 260 17 264 q 50 251 39 256 q 64 242 61 246 l 64 240 q 81 213 71 228 q 102 185 90 199 q 127 162 114 172 q 156 149 140 151 q 180 207 164 175 q 217 266 196 239 q 267 310 239 293 q 328 322 294 326 q 401 288 379 314 q 409 249 413 268 q 394 213 406 231 q 367 180 383 194 q 336 156 350 165 q 281 128 308 136 q 219 121 253 119 q 211 65 211 92 q 222 0 211 22 q 251 -26 232 -22 q 294 -18 269 -31 q 344 22 318 -6 q 447 169 397 76 q 546 369 497 263 q 530 378 542 371 q 508 393 518 385 q 490 410 497 401 q 489 428 483 419 q 504 437 493 435 q 528 438 515 439 q 554 435 542 438 q 574 432 567 433 q 592 476 583 454 q 613 519 601 497 q 655 619 633 567 q 701 724 676 672 q 753 824 725 775 q 813 913 781 872 q 745 914 776 914 q 684 910 714 914 q 624 899 654 907 q 560 875 594 890 q 499 841 531 863 q 441 792 467 819 q 400 733 415 765 q 389 664 385 700 q 401 626 392 646 q 429 600 410 606 q 440 596 429 600 q 460 587 450 592 q 476 578 471 582 q 471 575 481 575 q 437 581 456 576 q 399 594 418 585 q 330 660 349 618 q 335 754 311 701 q 373 813 349 786 q 425 861 397 840 q 457 881 440 872 q 492 899 474 890 q 633 938 565 931 q 781 939 701 944 q 806 936 793 938 q 831 932 818 935 q 868 965 847 953 q 942 998 900 989 q 1046 1004 985 1007 m 890 903 q 830 817 860 869 q 772 708 800 765 q 719 595 744 651 q 676 496 694 539 l 639 410 q 686 385 667 397 q 719 350 703 374 q 908 421 824 360 q 1040 574 993 482 q 1072 735 1083 657 q 978 868 1061 814 q 935 889 958 881 q 890 903 913 897 m 346 290 q 304 265 324 283 q 269 225 285 246 q 244 185 254 204 q 233 160 235 165 q 269 179 250 165 q 306 210 289 193 q 335 249 324 228 q 346 290 346 269 m 633 396 q 624 376 629 385 q 615 357 619 367 q 671 350 646 350 q 633 396 654 379 m 554 390 l 564 410 q 553 401 554 407 q 554 390 550 396 z "},"V":{"ha":810,"x_min":-3,"x_max":1522,"o":"m 1521 969 q 1514 967 1522 965 q 1493 972 1506 968 q 1469 982 1481 976 q 1457 992 1458 988 q 1439 1017 1447 1008 q 1413 1031 1426 1031 q 1360 1022 1388 1031 q 1308 1001 1333 1014 q 1260 972 1283 988 q 1218 939 1236 956 q 1095 815 1157 885 q 974 665 1033 744 q 857 503 914 586 q 746 340 800 419 q 698 272 725 313 q 640 185 671 231 q 575 96 608 140 q 510 17 542 51 q 452 -38 479 -18 q 404 -56 425 -58 q 353 -43 382 -53 q 306 -18 324 -33 q 270 42 279 4 q 264 126 261 81 q 279 219 267 171 q 307 315 292 268 q 339 400 322 361 q 367 465 356 439 q 423 584 393 525 q 483 697 453 643 q 542 797 514 750 q 596 878 571 843 q 510 916 551 896 q 428 951 469 936 q 343 974 388 967 q 247 972 299 981 q 119 904 171 960 q 85 852 99 881 q 67 792 71 824 q 69 731 63 761 q 97 674 76 700 q 112 656 107 661 q 122 648 117 650 q 133 644 126 646 q 151 638 139 642 q 181 623 168 631 q 178 618 193 615 q 95 642 133 622 q 33 693 57 663 q 5 751 13 719 q 1 815 -3 783 q 19 876 6 846 q 56 929 33 906 q 186 999 108 986 q 299 1000 246 1008 q 403 973 353 992 q 502 931 453 954 q 604 889 551 908 q 624 915 613 900 q 649 944 635 931 q 676 969 663 958 q 704 981 690 979 q 778 954 744 982 q 785 923 792 942 q 768 893 779 904 q 719 863 747 874 q 664 857 692 853 q 610 776 639 822 q 550 675 581 729 q 489 561 519 621 q 431 440 458 501 q 389 340 414 404 q 346 205 364 275 q 327 71 328 135 q 358 -28 326 7 q 372 -22 360 -29 q 401 0 383 -15 q 442 38 419 15 q 486 90 464 61 q 549 173 517 129 q 608 256 581 217 q 656 326 636 296 q 682 365 675 356 q 793 528 736 444 q 910 690 850 611 q 1031 840 969 769 q 1154 964 1093 910 q 1249 1028 1194 999 q 1357 1057 1303 1057 q 1437 1044 1400 1058 q 1501 999 1474 1031 q 1521 969 1514 983 z "},"O":{"ha":1157,"x_min":-1,"x_max":1242,"o":"m 65 735 q 53 735 64 732 q 29 742 42 738 q 8 752 17 747 q 0 760 -1 757 q 78 847 31 821 q 181 878 125 874 q 300 870 238 882 q 425 842 363 858 q 522 915 468 879 q 634 974 575 950 q 755 1005 693 999 q 875 990 817 1011 q 939 958 906 979 q 982 904 972 938 q 1031 865 1013 888 q 1064 810 1049 842 q 1090 724 1082 771 q 1097 630 1097 678 q 1090 534 1097 582 q 1072 446 1082 486 q 1133 482 1106 458 q 1175 538 1161 506 q 1188 538 1176 540 q 1210 531 1199 536 q 1232 522 1222 526 q 1240 514 1242 517 q 1166 434 1217 461 q 1061 404 1115 407 q 989 237 1035 318 q 880 91 943 156 q 736 -15 817 26 q 558 -60 656 -56 q 453 -51 507 -62 q 351 -17 400 -40 q 261 41 301 6 q 196 124 221 76 q 157 294 160 194 q 200 522 154 393 q 287 689 232 611 q 411 829 342 767 q 310 849 360 842 q 214 848 260 856 q 130 814 168 840 q 65 735 92 788 m 482 811 q 353 668 411 747 q 264 499 296 589 q 222 272 219 369 q 261 103 225 174 q 358 -4 300 28 q 500 -33 417 -36 q 672 10 593 -29 q 813 112 750 50 q 919 252 875 174 q 992 413 964 331 q 838 492 903 432 q 742 636 774 551 q 724 701 731 668 q 719 769 717 735 q 600 783 656 772 q 482 811 544 794 m 788 771 q 786 691 781 732 q 806 614 792 650 q 834 554 815 586 q 877 494 853 522 q 932 449 901 467 q 997 431 963 431 q 1021 527 1011 475 q 1033 633 1031 579 q 1027 739 1035 688 q 999 832 1019 790 q 981 865 989 853 q 949 824 972 840 q 898 796 926 807 q 840 778 869 785 q 788 771 810 772 m 496 822 q 608 801 553 808 q 722 797 664 793 q 792 903 736 867 q 917 928 847 940 q 901 956 914 939 q 876 976 888 972 q 784 977 838 990 q 676 938 731 964 q 574 880 622 913 q 496 822 525 847 m 799 810 q 835 822 815 814 q 873 841 856 829 q 903 869 890 853 q 919 904 917 885 q 847 872 878 892 q 799 810 817 851 z "},"P":{"ha":1018,"x_min":-3,"x_max":1151,"o":"m 438 600 q 455 593 446 597 q 469 585 464 589 q 476 580 475 582 q 471 578 478 578 q 399 597 440 578 q 330 665 346 621 q 338 763 314 710 q 406 845 360 810 q 510 903 453 881 q 626 935 567 925 q 735 943 686 944 q 782 940 758 943 q 829 935 806 938 q 848 953 839 944 q 868 969 857 963 q 942 1001 900 992 q 1046 1008 985 1011 q 1067 1003 1054 1007 q 1092 993 1081 1000 q 1105 984 1103 988 q 1100 981 1107 981 q 1003 974 1043 983 q 932 943 964 965 q 901 918 917 933 q 1033 861 971 900 q 1132 737 1113 811 q 1118 579 1151 663 q 1064 483 1099 531 q 985 404 1029 436 q 887 360 940 372 q 778 371 833 349 q 719 406 746 385 q 688 464 693 426 q 690 512 683 488 q 710 558 697 536 q 738 599 722 579 q 771 635 754 619 q 784 635 774 638 q 808 626 794 632 q 829 617 821 621 q 835 610 838 613 q 803 575 819 594 q 774 533 786 556 q 755 488 761 511 q 751 440 749 464 q 765 407 754 426 q 789 382 775 388 q 872 401 831 381 q 949 455 914 422 q 1012 527 985 488 q 1054 603 1039 567 q 1069 752 1085 679 q 982 871 1054 825 q 940 890 963 882 q 889 906 917 899 q 827 817 857 869 q 770 709 797 765 q 719 597 743 653 q 676 497 696 542 q 613 351 644 424 q 547 211 581 278 q 478 89 513 144 q 408 -3 443 33 q 371 -33 390 -22 q 332 -50 351 -44 q 288 -53 313 -56 q 239 -41 263 -50 q 195 -17 215 -32 q 164 15 175 -3 q 147 74 149 42 q 153 135 146 106 q 0 263 50 168 q 6 265 -3 267 q 28 260 15 264 q 51 251 40 257 q 65 242 63 246 q 81 215 71 229 q 102 186 90 200 q 128 162 114 172 q 156 150 142 151 q 180 207 164 175 q 219 267 196 239 q 269 312 242 294 q 328 324 297 329 q 403 289 381 315 q 411 263 411 278 q 396 217 411 243 q 344 161 381 192 q 219 121 289 118 q 213 73 213 97 q 217 29 213 49 q 228 -5 221 10 q 246 -24 236 -19 q 286 -17 261 -24 q 344 22 311 -11 q 414 115 379 60 q 482 236 449 169 q 548 376 515 303 q 613 522 581 449 q 654 620 632 568 q 701 725 676 672 q 754 827 726 778 q 813 915 782 876 q 701 910 763 918 q 580 880 639 901 q 473 823 521 858 q 403 738 425 788 q 389 680 390 710 q 404 624 388 650 q 418 607 414 608 q 438 600 422 606 m 233 160 q 271 180 250 165 q 309 213 292 194 q 338 253 326 232 q 346 293 349 274 q 310 271 328 286 q 278 237 293 256 q 252 197 264 218 q 233 160 240 176 z "},"N":{"ha":1082,"x_min":-1,"x_max":1760,"o":"m 0 263 q 8 265 -1 267 q 29 260 17 264 q 52 250 42 256 q 65 240 63 244 q 81 209 72 225 q 102 180 90 193 q 128 158 114 167 q 161 147 143 149 q 191 222 172 185 q 239 286 210 260 q 287 317 263 310 q 331 322 311 325 q 406 288 383 314 q 413 263 414 276 q 394 217 411 243 q 339 161 378 190 q 225 121 288 121 q 219 90 222 108 q 217 49 217 71 q 223 8 217 28 q 244 -26 229 -12 q 289 -17 265 -26 q 335 14 313 -7 q 399 84 367 42 q 461 175 431 126 q 520 275 492 224 q 572 374 549 326 q 615 459 596 421 q 644 519 633 497 q 699 629 667 564 q 768 760 731 694 q 847 881 806 825 q 929 965 889 938 q 1017 1001 972 994 q 1099 1003 1063 1007 q 1155 990 1135 999 q 1168 978 1175 981 q 1089 912 1125 957 q 1023 806 1053 867 q 969 676 993 746 q 928 538 946 607 q 898 408 910 469 q 879 303 886 347 q 867 189 871 243 q 864 90 863 135 q 865 69 864 79 q 867 49 865 58 q 905 180 881 108 q 962 328 929 251 q 1034 483 994 404 q 1118 636 1074 561 q 1206 772 1160 707 q 1299 889 1251 836 q 1395 981 1347 942 q 1492 1042 1443 1021 q 1563 1063 1528 1057 q 1629 1063 1597 1069 q 1709 1033 1675 1054 q 1758 979 1743 1013 q 1751 976 1760 975 q 1730 981 1742 978 q 1707 990 1718 985 q 1694 1000 1696 996 q 1676 1028 1685 1019 q 1663 1039 1667 1038 q 1613 1037 1639 1043 q 1554 1017 1588 1031 q 1458 956 1507 996 q 1363 863 1410 917 q 1270 746 1315 810 q 1183 613 1225 682 q 1085 433 1131 525 q 1006 253 1040 340 q 948 87 971 165 q 917 -50 925 8 q 906 -52 917 -53 q 878 -47 894 -51 q 847 -35 863 -43 q 824 -14 832 -26 q 806 36 813 3 q 799 114 800 69 q 815 326 796 207 q 850 511 828 415 q 903 694 872 607 q 971 853 933 782 q 1051 967 1008 925 q 1022 956 1036 963 q 993 940 1007 949 q 911 856 953 913 q 832 734 869 800 q 763 603 794 668 q 710 496 732 539 q 636 349 674 422 q 561 210 599 276 q 485 89 524 144 q 410 -3 447 33 q 325 -51 368 -42 q 226 -36 282 -60 q 158 31 169 -11 q 157 131 146 74 q 63 178 101 146 q 0 263 24 210 m 240 165 q 274 186 254 172 q 310 217 293 200 q 338 254 326 235 q 347 292 349 274 q 283 239 310 276 q 240 165 256 201 z "},"Z":{"ha":822,"x_min":-18,"x_max":1038,"o":"m 326 613 q 244 636 282 617 q 182 685 207 656 q 149 761 153 719 q 165 843 146 803 q 253 933 192 900 q 386 983 314 967 q 533 1003 458 1000 q 661 1004 607 1007 q 737 997 694 1003 q 823 981 779 992 q 907 954 867 971 q 977 912 947 938 q 1022 851 1007 886 q 1031 769 1038 817 q 975 633 1021 704 q 866 498 929 563 q 733 381 803 433 q 604 300 663 329 q 663 259 640 283 q 690 199 686 235 q 675 95 697 149 q 616 -7 653 42 q 534 -97 579 -56 q 451 -167 489 -139 q 538 -243 501 -197 q 590 -356 575 -289 q 581 -358 590 -360 q 558 -351 571 -356 q 535 -342 546 -347 q 525 -333 525 -337 q 490 -243 514 -281 q 433 -179 465 -206 q 365 -222 403 -200 q 288 -258 328 -243 q 208 -282 249 -274 q 129 -286 167 -290 q 26 -250 69 -281 q 10 -175 -18 -219 q 56 -131 25 -147 q 124 -106 88 -114 q 199 -99 161 -99 q 264 -103 236 -99 q 393 -137 331 -111 q 474 -69 431 -110 q 553 20 517 -28 q 610 120 589 68 q 626 222 632 172 q 610 265 622 247 q 586 292 599 282 q 511 261 547 275 q 441 243 475 247 q 372 246 407 239 q 301 276 338 253 q 275 304 275 290 q 299 328 275 319 q 353 340 322 336 q 412 344 383 344 q 451 343 440 344 q 497 337 478 340 q 540 326 517 333 q 669 409 599 357 q 801 524 739 461 q 910 658 864 588 q 967 794 956 728 q 955 890 976 854 q 894 944 933 925 q 807 969 856 963 q 714 978 758 975 q 588 976 661 981 q 444 956 515 972 q 315 906 374 939 q 229 818 256 874 q 215 740 211 781 q 246 665 218 699 q 272 643 263 647 q 286 638 272 643 q 313 626 300 632 q 333 616 326 621 q 326 613 339 611 m 379 -147 q 311 -129 350 -133 q 250 -126 285 -125 q 181 -135 215 -128 q 117 -158 146 -142 q 74 -199 88 -174 q 65 -227 67 -210 q 81 -260 63 -244 q 156 -254 115 -264 q 237 -228 197 -244 q 313 -190 276 -211 q 379 -147 350 -168 m 517 314 q 478 316 507 315 q 418 313 449 317 q 364 302 388 310 q 340 281 340 294 q 370 270 344 268 q 426 281 396 272 q 484 301 457 290 q 517 314 511 311 z "},"Q":{"ha":1082,"x_min":0,"x_max":1388,"o":"m 982 897 l 990 893 q 1047 834 1025 869 q 1081 757 1069 799 q 1094 672 1092 715 q 1096 590 1097 628 q 1074 446 1092 519 q 1025 302 1056 372 q 951 169 994 232 q 856 60 908 107 q 824 33 840 46 q 790 10 808 21 l 788 8 q 831 -47 811 -19 q 872 -101 851 -74 q 936 -188 901 -142 q 1013 -271 971 -235 q 1103 -324 1054 -307 q 1210 -319 1153 -340 q 1281 -272 1254 -304 q 1324 -197 1308 -240 q 1336 -197 1326 -194 q 1358 -203 1346 -199 q 1378 -212 1369 -207 q 1388 -222 1388 -218 q 1317 -322 1364 -286 q 1200 -360 1271 -357 q 1083 -335 1139 -361 q 976 -267 1026 -308 q 884 -176 926 -226 q 808 -82 842 -126 q 783 -47 796 -64 q 756 -11 769 -29 q 545 -67 651 -65 q 335 -15 439 -68 q 216 87 257 26 q 163 218 175 147 q 162 365 150 289 q 200 515 174 442 q 286 683 232 606 q 411 824 340 760 q 310 843 360 836 q 214 842 260 850 q 130 808 168 835 q 65 729 92 782 q 51 728 63 726 q 29 735 40 731 q 9 744 18 739 q 0 753 0 749 q 78 841 31 814 q 181 872 125 868 q 300 864 238 876 q 425 835 363 851 q 531 915 476 881 q 639 969 586 949 q 720 992 676 983 q 808 997 764 1000 q 892 979 851 994 q 961 932 932 964 q 982 897 978 915 m 939 439 q 951 428 950 432 q 944 426 953 425 q 924 431 938 428 q 900 442 911 435 q 824 499 858 463 q 766 578 790 535 q 729 669 742 621 q 719 763 717 717 q 600 777 656 765 q 482 804 544 789 q 311 594 378 711 q 226 338 244 476 q 230 180 215 257 q 299 40 244 103 q 320 19 310 29 q 343 0 331 8 q 324 55 324 26 q 337 108 324 83 q 374 152 350 133 q 425 181 397 171 q 515 188 469 194 q 602 162 560 182 q 682 112 644 142 q 750 51 719 82 q 873 176 818 103 q 965 335 928 250 q 1019 510 1001 419 q 1032 685 1036 600 q 1022 756 1029 721 q 1000 822 1015 790 l 999 825 q 981 858 989 846 q 949 816 971 833 q 899 788 926 799 q 841 772 871 778 q 788 764 811 765 q 788 673 779 722 q 818 578 797 624 q 870 496 839 533 q 939 439 901 458 m 721 32 q 687 69 706 50 q 647 107 668 89 q 603 138 626 125 q 557 157 581 151 q 429 119 483 174 l 426 117 q 393 63 403 93 q 393 1 383 33 q 418 -33 400 -18 q 575 -28 496 -49 q 721 32 654 -8 m 722 790 q 756 865 732 835 q 822 913 779 896 q 917 921 872 929 q 880 967 906 956 q 822 976 854 978 q 756 963 789 974 q 701 943 724 953 q 496 817 596 903 q 608 794 553 801 q 722 790 663 786 m 799 803 q 837 816 817 808 q 874 835 857 824 q 903 861 890 846 q 919 897 915 876 q 847 865 878 885 q 799 803 817 846 z "},"S":{"ha":896,"x_min":-3,"x_max":1038,"o":"m 74 775 q 63 774 72 772 q 39 782 53 776 q 16 792 25 788 q 10 800 7 797 q 92 881 42 857 q 203 906 143 904 q 328 895 263 908 q 458 867 394 882 q 514 853 486 860 q 565 843 542 847 q 608 838 588 840 q 647 832 628 835 q 676 898 657 867 q 721 953 694 929 q 780 991 747 976 q 850 1008 813 1006 q 924 1001 888 1011 q 992 967 960 990 q 1018 938 1011 953 q 1035 894 1032 917 q 1014 842 1038 865 q 935 806 988 817 q 841 796 896 797 q 711 803 786 794 q 703 724 700 761 q 718 650 707 686 q 745 579 729 614 q 776 508 761 544 q 828 338 811 428 q 829 168 844 249 q 761 26 814 88 q 606 -60 708 -36 q 469 -63 539 -75 q 342 -16 399 -51 q 248 77 285 19 q 213 211 211 135 q 216 244 214 226 q 222 278 218 261 q 0 453 72 318 q 6 456 -3 457 q 28 451 15 454 q 51 442 40 447 q 65 432 63 436 q 131 343 90 385 q 226 294 171 301 q 261 374 238 329 q 318 458 285 419 q 392 519 351 496 q 475 535 432 543 q 557 494 533 524 q 569 458 569 482 q 546 397 568 432 q 471 321 524 361 q 385 276 432 290 q 290 265 339 263 q 278 188 281 226 q 296 77 276 125 q 351 1 315 29 q 435 -37 386 -28 q 544 -32 485 -46 q 656 16 611 -17 q 728 94 701 49 q 764 193 754 139 q 769 305 774 247 q 750 420 765 363 q 713 531 735 478 q 682 599 697 565 q 655 666 667 632 q 639 736 643 700 q 643 813 635 772 q 625 815 633 814 q 608 818 617 815 q 551 829 581 822 q 490 843 521 836 q 372 869 432 857 q 255 878 311 881 q 151 853 199 876 q 74 775 104 831 m 717 825 q 806 824 767 822 q 874 832 844 825 q 919 847 901 839 q 950 867 938 856 q 969 918 972 889 q 954 958 967 940 q 936 979 944 972 q 908 981 932 983 q 845 966 875 979 q 790 932 815 953 q 747 883 765 911 q 717 825 728 856 m 301 297 q 366 322 331 303 q 431 366 401 340 q 482 422 461 392 q 504 482 503 451 q 497 510 504 499 q 435 483 465 506 q 378 428 404 460 q 333 360 353 396 q 301 297 313 325 z "},"?":{"ha":803,"x_min":142,"x_max":725,"o":"m 417 461 q 428 461 418 464 q 451 454 439 458 q 474 444 464 450 q 482 436 483 439 q 444 370 468 400 q 388 322 421 340 q 310 306 351 303 q 233 328 269 310 q 176 371 196 346 q 150 425 156 396 q 165 525 142 475 q 225 610 189 575 q 342 683 271 657 q 503 699 413 710 q 606 673 563 692 q 678 626 650 654 q 722 528 725 581 q 685 426 718 475 q 605 335 653 376 q 515 274 557 294 q 474 254 500 265 q 419 229 447 243 q 362 198 390 215 q 313 160 333 181 q 285 117 293 140 q 288 67 276 93 q 280 64 289 63 q 259 69 271 65 q 236 79 247 74 q 224 89 225 85 q 231 163 207 131 q 297 222 256 196 q 383 267 338 249 q 451 299 428 286 q 538 360 490 319 q 619 449 586 400 q 657 549 651 497 q 617 644 663 600 q 550 672 593 667 q 401 656 468 683 q 289 585 333 629 q 231 501 254 550 q 215 403 207 453 q 231 360 219 379 q 258 332 243 342 q 306 339 281 326 q 353 372 331 351 q 392 417 375 393 q 417 461 410 442 m 283 -47 q 273 -48 283 -50 q 250 -42 263 -46 q 228 -32 238 -37 q 218 -24 218 -26 l 222 8 q 233 9 222 11 q 256 3 243 7 q 278 -7 268 -1 q 288 -15 288 -12 l 283 -47 z "},"$":{"ha":742,"x_min":96,"x_max":701,"o":"m 628 906 q 640 906 629 908 q 662 900 650 904 q 683 890 674 896 q 692 882 693 885 q 667 805 683 850 q 631 703 651 760 q 679 652 660 683 q 701 576 699 621 q 691 574 701 572 q 669 581 681 576 q 647 590 657 585 q 636 600 636 596 q 633 644 635 624 q 619 675 631 665 q 563 528 592 600 q 503 382 533 456 q 516 359 510 371 q 531 336 522 347 q 585 192 579 263 q 560 67 590 122 q 469 -20 531 13 q 322 -50 408 -53 l 233 -256 q 221 -256 232 -258 q 198 -249 210 -254 q 176 -240 186 -244 q 168 -232 167 -235 q 206 -147 185 -196 q 251 -40 226 -99 q 154 15 197 -25 q 100 113 111 56 q 97 159 96 135 q 107 204 99 183 q 131 241 115 225 q 172 263 147 257 q 190 260 178 264 q 214 251 203 256 q 232 241 225 246 q 233 235 239 236 q 208 226 218 232 q 181 201 192 217 q 166 166 171 185 q 161 127 161 147 q 165 90 161 107 q 197 22 172 50 q 261 -17 221 -7 q 347 188 301 79 q 438 404 393 296 q 390 547 393 485 q 408 651 388 610 q 473 718 432 699 q 565 726 514 738 q 602 828 586 783 q 628 906 618 874 m 482 332 l 336 -17 q 444 32 400 -3 q 507 114 488 67 q 521 218 526 161 q 482 332 515 275 m 553 694 q 499 668 519 690 q 467 614 478 646 q 456 544 457 582 q 465 472 456 507 q 510 583 488 528 q 553 694 532 638 z "},"&":{"ha":868,"x_min":71,"x_max":863,"o":"m 513 351 l 514 351 q 592 375 556 375 q 663 361 628 375 q 703 340 685 354 q 738 303 722 326 q 758 191 765 249 q 719 83 750 133 q 653 1 692 36 q 672 -25 660 -10 q 698 -56 685 -40 q 726 -83 711 -71 q 751 -100 740 -96 q 796 -93 768 -107 q 812 -94 800 -92 q 835 -102 824 -97 q 855 -112 847 -107 q 858 -119 863 -118 q 751 -115 815 -139 q 622 -22 678 -89 q 524 -72 575 -57 q 414 -86 474 -86 q 304 -72 360 -86 q 197 -29 249 -58 q 129 28 157 -6 q 90 106 101 61 q 100 246 71 189 q 184 343 129 303 q 308 409 239 383 q 438 456 378 435 q 439 535 435 497 q 454 603 443 572 q 523 715 482 679 q 604 758 564 751 q 668 755 635 764 q 733 726 701 746 q 783 663 775 703 q 778 601 790 635 q 726 533 765 568 q 628 476 688 500 q 503 431 569 453 q 507 391 504 411 q 513 351 510 371 m 449 114 q 467 104 461 108 q 465 99 472 100 q 447 102 460 99 q 422 111 435 106 q 374 159 382 131 q 381 219 365 188 q 415 272 393 247 q 460 317 436 297 q 450 363 454 340 q 443 410 446 386 q 328 364 386 390 q 225 299 269 338 q 159 208 181 261 q 156 83 138 156 q 229 -27 175 4 q 358 -58 283 -58 q 481 -39 425 -58 q 586 25 538 -19 q 526 133 551 76 q 481 247 500 189 q 444 194 457 221 q 431 144 432 167 q 449 114 431 122 m 503 478 q 592 515 550 496 q 661 560 633 535 q 713 626 700 593 q 719 686 726 658 q 689 733 711 719 q 681 733 688 733 q 664 731 675 733 q 586 689 625 724 q 519 579 547 654 q 503 478 503 535 m 526 292 q 565 172 542 231 q 618 57 588 113 q 664 122 646 89 q 689 196 682 156 q 689 280 696 238 q 650 346 682 322 q 620 345 638 350 q 585 331 603 340 q 552 311 568 322 q 526 292 536 300 z "},"%":{"ha":694,"x_min":75,"x_max":701,"o":"m 260 778 l 258 779 l 264 779 q 319 778 286 779 q 390 775 353 776 q 465 775 426 774 q 537 781 503 776 q 597 797 571 786 q 636 826 624 808 l 701 803 q 664 729 689 769 q 609 647 639 689 q 549 566 579 606 q 497 496 519 526 q 387 347 443 424 q 281 194 331 269 q 194 49 232 119 q 140 -82 157 -22 q 130 -83 140 -85 q 107 -76 119 -81 q 85 -65 94 -71 q 76 -57 75 -60 q 131 74 93 3 q 217 219 168 144 q 322 372 265 294 q 432 521 378 449 q 526 648 482 589 q 599 754 569 707 q 463 747 531 743 q 326 751 394 751 q 331 689 332 733 q 321 595 329 644 q 299 504 313 546 q 269 450 286 463 q 250 444 263 444 q 215 448 233 443 q 178 463 196 453 q 147 489 160 474 q 128 524 133 504 q 118 606 118 557 q 133 697 118 654 q 178 765 147 739 q 260 778 210 790 m 350 -54 q 336 -53 346 -56 q 316 -47 326 -51 q 297 -39 306 -43 q 286 -31 288 -35 q 285 -3 282 -25 q 292 44 288 19 q 302 92 297 69 q 310 121 307 114 q 342 215 324 171 q 383 272 361 258 q 436 274 401 282 q 494 244 471 267 q 520 181 519 221 q 515 108 521 140 q 499 44 511 79 q 466 -19 486 8 q 417 -58 446 -46 q 350 -54 389 -71 m 264 753 q 231 735 246 751 q 206 691 217 718 q 188 632 194 664 q 182 569 182 600 q 188 514 182 539 q 207 476 194 489 q 235 524 224 488 q 253 605 246 561 q 263 690 261 649 q 264 753 265 732 m 350 -35 q 403 7 379 -28 q 440 86 426 42 q 457 175 454 131 q 446 246 460 219 q 410 198 428 235 q 380 117 393 161 q 358 30 367 72 q 350 -35 350 -12 z "},"@":{"ha":800,"x_min":89,"x_max":710,"o":"m 551 461 q 528 460 557 453 q 503 469 511 465 q 491 477 494 474 q 486 483 488 481 q 481 488 485 485 q 469 486 475 488 q 457 482 464 485 q 408 451 429 471 q 343 371 372 419 q 304 276 314 322 q 297 230 297 249 q 301 197 297 211 q 325 210 314 201 q 399 281 364 232 q 443 389 435 329 l 507 365 q 503 219 496 276 q 529 135 510 163 l 529 132 q 535 135 529 132 q 570 168 553 144 q 599 231 588 192 q 636 480 644 378 q 583 639 628 582 q 539 679 556 675 q 443 669 497 690 q 292 551 365 642 q 176 304 219 461 q 161 227 167 269 q 157 142 156 185 q 170 58 158 99 q 208 -11 182 18 q 236 -36 226 -32 q 344 -28 275 -46 q 362 -30 350 -26 q 385 -38 374 -33 q 404 -48 397 -43 q 406 -54 411 -53 q 261 -57 328 -76 q 146 8 185 -36 q 106 79 118 39 q 91 163 93 119 q 95 249 89 206 q 111 328 101 292 q 163 469 132 407 q 228 576 193 531 q 303 652 264 622 q 381 696 342 682 q 511 701 443 719 q 647 619 601 678 q 701 458 692 561 q 664 206 710 354 q 634 142 651 167 q 597 108 617 118 q 535 108 574 96 q 465 156 485 122 q 440 226 449 181 q 389 183 414 199 q 340 167 364 169 q 247 203 282 163 q 239 300 222 228 q 278 396 250 347 q 344 476 307 444 q 394 508 371 499 q 457 511 422 519 q 551 461 518 499 m 526 128 q 524 126 518 128 q 526 128 524 125 z "},"+":{"ha":671,"x_min":89,"x_max":539,"o":"m 503 235 q 515 230 508 235 q 528 218 522 225 q 537 205 535 211 q 535 197 539 199 q 439 187 483 186 q 339 189 394 188 q 308 80 324 136 q 289 -28 292 24 q 280 -28 289 -31 q 260 -23 271 -26 q 242 -15 250 -19 q 233 -7 233 -10 q 251 91 236 40 q 278 189 265 142 q 183 190 224 189 q 113 194 142 192 q 101 201 107 194 q 92 214 96 207 q 90 226 89 221 q 100 232 92 232 q 179 228 138 229 q 289 225 221 226 q 326 342 308 294 q 356 428 344 390 q 366 428 357 431 q 385 422 375 426 q 404 414 396 418 q 411 407 413 410 q 385 331 400 372 q 351 225 369 289 q 428 226 393 225 q 503 235 463 226 z "},"^":{"ha":561,"x_min":28,"x_max":522,"o":"m 92 471 q 81 470 92 468 q 59 476 71 472 q 38 486 47 481 q 28 494 28 492 q 49 535 28 510 q 101 588 69 560 q 172 646 133 617 q 248 701 211 675 q 315 748 285 728 q 360 776 346 768 q 373 776 363 778 q 395 769 383 774 q 415 760 407 765 q 424 751 424 754 q 441 681 424 721 q 478 599 458 642 q 510 515 497 557 q 513 436 522 472 q 501 435 511 433 q 478 442 490 438 q 457 451 467 446 q 447 460 447 457 q 447 519 454 486 q 427 588 440 553 q 398 658 414 624 q 372 718 382 692 q 334 692 360 710 q 277 651 308 674 q 213 603 246 628 q 154 553 181 578 q 110 506 128 528 q 92 471 92 485 z "},"{":{"ha":344,"x_min":71,"x_max":565,"o":"m 518 954 q 537 946 525 951 q 557 935 549 940 q 564 928 565 931 q 544 931 563 926 q 435 947 479 947 q 360 931 390 946 q 313 888 331 915 q 286 826 296 861 q 274 724 275 783 q 268 606 272 665 q 251 496 264 546 q 201 421 238 446 q 221 350 219 389 q 213 269 222 311 q 190 184 204 228 q 162 98 175 140 q 141 16 149 56 q 138 -57 133 -24 q 147 -87 140 -74 q 169 -108 153 -100 q 215 -117 186 -117 q 293 -108 244 -118 q 311 -110 299 -107 q 335 -119 324 -114 q 352 -129 346 -125 q 353 -135 358 -133 q 178 -131 239 -147 q 90 -75 117 -114 q 72 -13 72 -49 q 80 63 71 22 q 104 147 89 103 q 133 233 119 190 q 153 319 146 276 q 153 399 160 361 q 131 401 146 399 q 103 409 117 403 q 81 425 89 415 q 79 447 72 435 q 111 468 89 468 q 153 457 133 468 q 191 526 181 478 q 204 633 201 575 q 208 751 207 692 q 221 850 210 810 q 250 915 231 886 q 303 958 269 943 q 390 974 338 974 q 518 954 443 974 z "},"#":{"ha":707,"x_min":75,"x_max":638,"o":"m 438 503 q 448 503 438 506 q 470 497 458 501 q 492 488 482 493 q 503 479 503 483 q 497 416 503 457 q 479 326 490 375 q 532 330 508 328 q 571 336 556 332 q 588 334 576 338 q 612 325 600 331 q 631 315 624 319 q 632 308 638 310 q 567 301 608 303 q 472 299 525 299 q 459 243 465 271 q 446 188 453 215 q 502 191 478 189 q 542 197 526 193 q 560 195 547 199 q 583 186 572 192 q 601 176 594 181 q 603 169 608 171 q 535 162 579 164 q 439 158 492 160 l 396 0 q 384 -1 394 -3 q 361 6 374 1 q 339 15 349 10 q 331 24 329 21 q 347 83 338 47 q 368 160 357 118 l 296 160 l 253 0 q 241 -1 251 -3 q 218 6 231 1 q 196 15 206 10 q 188 24 186 21 q 204 83 194 47 q 225 163 214 119 l 138 167 q 119 172 132 167 q 96 181 107 176 q 80 190 85 186 q 85 194 75 194 q 149 190 111 192 q 232 188 188 189 q 246 244 239 215 q 260 301 253 274 l 167 306 q 147 310 160 306 q 124 320 135 315 q 109 329 114 325 q 114 333 104 333 q 180 330 140 331 q 265 326 219 329 q 285 414 274 364 q 296 503 296 464 q 306 503 296 506 q 328 497 315 501 q 350 488 340 493 q 360 479 360 483 q 353 415 360 456 q 336 325 347 375 l 408 325 q 427 414 417 364 q 438 503 438 464 m 375 186 l 401 299 q 365 299 383 299 q 329 300 347 299 q 316 243 322 272 q 303 186 310 214 l 375 186 z "},"\"":{"ha":340,"x_min":24,"x_max":296,"o":"m 79 521 q 67 539 65 531 q 78 556 69 549 q 94 565 85 563 q 125 557 104 567 q 142 540 136 551 q 138 508 147 528 q 116 483 131 490 q 82 471 101 475 q 66 472 76 469 q 45 478 56 474 q 29 486 35 482 q 29 492 24 490 q 58 501 44 496 q 79 521 71 506 m 228 521 q 215 539 214 531 q 226 556 218 549 q 243 565 233 563 q 274 557 253 567 q 290 540 285 551 q 286 508 296 528 q 265 483 279 490 q 231 471 250 475 q 215 472 225 469 q 194 478 204 474 q 178 486 183 482 q 178 492 172 490 q 206 501 193 496 q 228 521 219 506 z "},"*":{"ha":425,"x_min":54,"x_max":376,"o":"m 121 607 q 106 608 117 604 q 83 616 94 611 q 63 626 71 621 q 57 632 54 631 l 179 703 l 96 761 q 92 768 86 768 q 108 765 97 768 q 133 758 119 763 q 150 749 146 753 l 185 724 l 213 825 q 224 826 214 828 q 247 819 235 824 q 269 810 260 815 q 278 801 279 804 l 264 751 l 308 776 q 324 775 313 778 q 348 768 336 772 q 368 758 360 764 q 372 751 376 753 l 249 679 l 344 613 q 349 606 354 606 q 331 608 343 606 q 307 616 319 611 q 289 625 294 621 l 239 660 l 211 556 q 199 555 210 553 q 177 562 189 557 q 156 572 165 567 q 146 581 146 578 l 160 629 l 121 607 z "},"~":{"ha":833,"x_min":69,"x_max":749,"o":"m 135 194 q 123 194 133 192 q 100 202 113 197 q 78 212 88 207 q 71 219 69 217 q 146 319 107 292 q 225 347 185 347 q 306 326 265 347 q 389 278 347 304 q 470 230 431 253 q 547 202 510 207 q 619 219 585 197 q 682 303 653 240 q 694 303 683 306 q 718 297 706 301 q 740 286 731 292 q 747 278 749 281 q 674 174 713 204 q 595 142 636 144 q 512 158 554 140 q 427 201 469 176 q 344 248 385 225 q 267 278 304 271 q 196 267 229 285 q 135 194 163 250 z "},"!":{"ha":393,"x_min":53,"x_max":344,"o":"m 281 654 q 291 655 281 657 q 313 649 301 653 q 335 639 325 644 q 344 631 344 633 q 329 542 343 599 q 294 418 315 486 q 262 313 279 367 q 228 208 244 258 q 196 115 211 157 q 171 43 181 72 q 159 42 169 40 q 136 49 149 44 q 115 58 124 53 q 107 67 106 64 q 132 138 117 96 q 164 231 147 181 q 198 336 181 282 q 231 443 215 390 q 264 566 250 510 q 281 654 278 622 m 64 -10 q 76 -9 65 -7 q 99 -15 86 -11 q 121 -25 111 -19 q 129 -33 131 -31 q 119 -53 126 -43 q 107 -53 118 -56 q 84 -47 96 -51 q 63 -36 72 -42 q 56 -28 53 -31 q 64 -10 61 -18 z "},"<":{"ha":703,"x_min":43,"x_max":635,"o":"m 585 21 q 600 16 590 19 q 618 8 610 13 q 631 -1 626 3 q 629 -6 635 -4 q 551 -4 599 -11 q 447 19 503 3 q 330 56 390 35 q 215 101 269 78 q 115 144 160 124 q 43 181 69 165 q 172 231 97 199 q 323 296 246 264 q 469 354 400 328 q 583 388 539 381 q 599 381 589 389 q 615 364 608 374 q 625 345 622 354 q 621 335 628 336 q 499 297 561 321 q 375 247 436 274 q 256 196 314 221 q 149 154 199 171 q 238 121 185 140 q 351 82 292 101 q 472 46 411 63 q 585 21 533 29 z "},"_":{"ha":800,"x_min":76,"x_max":735,"o":"m 711 -100 q 722 -105 717 -99 q 731 -119 728 -111 q 735 -133 735 -126 q 729 -142 735 -140 q 638 -149 697 -147 q 506 -153 579 -151 q 393 -152 451 -153 q 281 -150 335 -151 q 179 -147 226 -149 q 101 -144 132 -146 q 88 -138 94 -144 q 79 -124 82 -132 q 78 -110 76 -117 q 89 -104 79 -104 q 165 -107 119 -106 q 265 -109 211 -108 q 378 -110 319 -110 q 492 -111 436 -111 q 622 -109 564 -111 q 711 -100 681 -107 z "},",":{"ha":201,"x_min":26,"x_max":150,"o":"m 82 -28 q 69 -10 68 -18 q 81 7 72 0 q 97 16 88 14 q 128 8 107 18 q 144 -9 139 3 q 140 -40 150 -21 q 119 -66 133 -58 q 85 -78 104 -74 q 69 -77 79 -79 q 48 -71 58 -75 q 32 -62 38 -67 q 32 -57 26 -58 q 60 -48 47 -53 q 82 -28 74 -43 z "},"(":{"ha":225,"x_min":49,"x_max":507,"o":"m 436 1154 q 451 1159 439 1158 q 476 1159 463 1160 q 498 1156 489 1158 q 504 1150 507 1153 q 327 885 397 1028 q 213 594 257 743 q 162 378 181 485 q 133 173 143 271 q 121 -9 124 75 q 121 -156 118 -93 q 110 -160 121 -158 q 87 -160 100 -161 q 63 -158 74 -160 q 51 -151 51 -156 q 51 -5 49 -89 q 64 177 54 79 q 93 382 74 275 q 144 597 113 489 q 258 890 188 747 q 436 1154 329 1032 z "},"|":{"ha":338,"x_min":125,"x_max":201,"o":"m 192 -253 q 181 -253 192 -256 q 158 -247 171 -251 q 136 -237 146 -243 q 126 -229 126 -232 q 134 -56 132 -168 q 136 192 136 56 q 135 403 136 294 q 132 613 133 513 q 128 799 131 714 q 125 943 126 885 q 135 944 125 946 q 157 938 144 942 q 179 928 169 933 q 189 919 189 924 q 192 776 190 861 q 197 590 194 690 q 199 381 199 489 q 200 168 200 272 q 199 -79 201 33 q 192 -253 197 -192 z "},"/":{"ha":564,"x_min":-86,"x_max":890,"o":"m -19 -253 q -32 -253 -21 -256 q -55 -246 -43 -250 q -76 -236 -67 -242 q -83 -228 -86 -231 q -31 -153 -62 -197 q 42 -55 1 -110 q 131 63 83 0 q 232 193 179 125 q 398 405 313 296 q 563 614 483 514 q 710 800 642 714 q 824 943 778 886 q 837 944 825 946 q 860 937 849 942 q 881 926 872 932 q 889 918 890 921 q 774 775 843 861 q 626 589 706 689 q 462 380 547 489 q 297 168 376 271 q 197 37 244 100 q 108 -81 149 -26 q 34 -179 67 -135 q -19 -253 1 -224 z "},"":{"ha":522,"x_min":-39,"x_max":938,"o":"m 28 -197 q 15 -197 26 -200 q -8 -190 4 -194 q -29 -181 -19 -186 q -36 -172 -39 -175 q 17 -98 -15 -142 q 90 1 49 -54 q 178 118 131 56 q 279 249 226 181 q 445 460 360 351 q 610 669 531 569 q 757 856 689 769 q 871 999 825 942 q 884 999 872 1001 q 908 992 896 997 q 928 982 919 988 q 936 974 938 976 q 822 831 890 917 q 674 644 753 744 q 509 435 594 544 q 344 224 424 326 q 244 92 292 156 q 155 -25 196 29 q 81 -124 114 -79 q 28 -197 49 -168 z "},"\\":{"ha":382,"x_min":-3,"x_max":329,"o":"m 265 -183 q 233 -10 257 -122 q 179 238 210 101 q 130 449 156 340 q 80 659 104 558 q 34 845 56 760 q -1 989 13 931 q 7 997 -3 992 q 29 1007 17 1003 q 52 1013 42 1011 q 64 1013 63 1015 q 99 869 78 954 q 145 683 121 783 q 195 474 169 582 q 244 261 221 365 q 299 14 275 126 q 329 -160 322 -99 q 319 -168 329 -162 q 298 -178 310 -174 q 276 -184 286 -182 q 265 -183 265 -186 z "},"-":{"ha":461,"x_min":46,"x_max":411,"o":"m 392 232 q 402 226 397 233 q 409 208 407 218 q 410 190 411 199 q 403 181 408 182 q 364 177 392 178 q 300 176 336 176 q 225 175 264 175 q 153 176 186 175 q 95 177 119 176 q 67 178 71 178 q 55 186 60 178 q 48 203 50 194 q 49 220 46 213 q 61 228 51 228 q 85 228 63 228 q 142 228 108 228 q 217 228 176 228 q 293 228 257 228 q 356 229 329 228 q 392 232 383 231 z "},")":{"ha":590,"x_min":65,"x_max":522,"o":"m 136 -154 q 122 -159 133 -158 q 97 -159 110 -160 q 74 -156 83 -158 q 68 -150 65 -153 q 245 115 175 -28 q 360 406 315 257 q 410 622 392 515 q 439 827 429 729 q 451 1009 449 925 q 451 1156 453 1093 q 462 1160 451 1158 q 485 1160 472 1161 q 510 1158 499 1160 q 521 1151 521 1156 q 520 1005 522 1089 q 508 823 518 921 q 479 618 499 725 q 428 403 460 511 q 314 110 385 253 q 136 -154 243 -32 z "},">":{"ha":724,"x_min":51,"x_max":643,"o":"m 101 21 q 214 46 153 29 q 335 82 275 63 q 448 121 394 101 q 538 154 501 140 q 430 196 488 171 q 311 247 372 221 q 188 297 250 274 q 65 335 125 321 q 60 345 58 336 q 70 364 63 354 q 87 381 78 374 q 103 388 96 389 q 217 354 147 381 q 363 296 286 328 q 515 231 440 264 q 643 181 589 199 q 572 144 617 165 q 472 101 526 124 q 356 56 417 78 q 240 19 296 35 q 135 -4 183 3 q 57 -6 88 -11 q 56 -1 51 -4 q 68 8 60 3 q 86 16 76 13 q 101 21 96 19 z "},"=":{"ha":464,"x_min":60,"x_max":397,"o":"m 378 176 q 388 170 383 178 q 395 153 393 163 q 396 135 397 143 q 389 125 394 126 q 325 121 372 122 q 226 119 278 119 q 131 121 174 119 q 81 122 88 122 q 69 131 74 122 q 62 148 64 139 q 63 165 60 157 q 75 172 65 172 q 97 172 76 172 q 149 172 118 172 q 216 172 179 172 q 286 172 253 172 q 344 174 319 172 q 378 176 369 175 m 378 301 q 388 295 383 303 q 395 278 393 288 q 396 260 397 268 q 389 250 394 251 q 325 246 372 247 q 226 244 278 244 q 131 246 174 244 q 81 247 88 247 q 69 256 74 247 q 62 273 64 264 q 63 290 60 282 q 75 297 65 297 q 97 297 76 297 q 149 297 118 297 q 216 297 179 297 q 286 297 253 297 q 344 299 319 297 q 378 301 369 300 z "},";":{"ha":226,"x_min":10,"x_max":178,"o":"m 65 -28 q 53 -10 51 -18 q 64 7 56 0 q 81 16 71 14 q 111 8 90 18 q 128 -9 122 3 q 124 -40 133 -21 q 102 -66 117 -58 q 68 -78 88 -74 q 52 -77 63 -79 q 31 -71 42 -75 q 15 -62 21 -67 q 15 -57 10 -58 q 44 -48 31 -53 q 65 -28 57 -43 m 99 238 q 123 269 104 265 q 157 261 142 274 q 173 241 168 253 q 163 213 178 229 q 143 204 154 204 q 122 210 132 204 q 104 223 111 215 q 99 238 97 231 z "},":":{"ha":513,"x_min":60,"x_max":425,"o":"m 224 335 q 248 367 229 363 q 282 358 267 371 q 298 338 293 350 q 288 310 303 326 q 268 301 279 301 q 247 307 257 301 q 229 320 236 313 q 224 335 222 328 m 179 83 q 203 115 185 111 q 238 107 222 119 q 253 87 249 99 q 243 58 258 75 q 224 50 235 50 q 202 56 213 50 q 185 69 192 61 q 179 83 178 76 m 406 232 q 416 226 411 233 q 423 208 421 218 q 424 190 425 199 q 417 181 422 182 q 378 177 406 178 q 314 176 350 176 q 239 175 278 175 q 167 176 200 175 q 109 177 133 176 q 81 178 85 178 q 69 186 74 178 q 62 203 64 194 q 63 220 60 213 q 75 228 65 228 q 99 228 76 228 q 156 228 122 228 q 231 228 190 228 q 307 228 271 228 q 370 229 343 228 q 406 232 397 231 z "},".":{"ha":194,"x_min":53,"x_max":133,"o":"m 54 0 q 78 32 60 28 q 113 24 97 36 q 128 3 124 15 q 118 -25 133 -8 q 99 -33 110 -33 q 77 -28 88 -33 q 60 -15 67 -22 q 54 0 53 -7 z "},"'":{"ha":189,"x_min":28,"x_max":151,"o":"m 83 521 q 71 539 69 531 q 82 556 74 549 q 99 565 89 563 q 129 557 108 567 q 146 540 140 551 q 142 508 151 528 q 120 483 135 490 q 86 471 106 475 q 70 472 81 469 q 49 478 60 474 q 33 486 39 482 q 33 492 28 490 q 62 501 49 496 q 83 521 75 506 z "},"}":{"ha":453,"x_min":-39,"x_max":456,"o":"m 8 -99 q -10 -91 1 -97 q -31 -80 -22 -85 q -38 -73 -39 -75 q -18 -75 -37 -71 q 91 -91 46 -92 q 166 -75 136 -90 q 213 -33 196 -60 q 240 29 231 -6 q 253 131 251 72 q 258 250 254 190 q 276 360 263 310 q 325 435 289 410 q 306 506 307 467 q 313 586 304 544 q 337 672 322 628 q 365 758 351 715 q 385 840 378 800 q 389 913 393 879 q 380 942 386 929 q 357 964 374 956 q 311 973 340 972 q 233 964 282 974 q 215 966 228 963 q 192 975 203 969 q 174 985 181 981 q 174 990 167 989 q 349 986 288 1003 q 436 931 410 969 q 455 868 454 903 q 447 793 456 833 q 422 709 438 753 q 394 622 407 665 q 374 537 381 579 q 374 457 367 494 q 395 455 381 457 q 424 447 410 453 q 445 431 438 440 q 447 408 453 421 q 415 388 438 388 q 374 399 393 388 q 335 329 346 378 q 322 222 325 281 q 317 105 318 164 q 306 6 315 46 q 276 -59 296 -31 q 222 -103 257 -87 q 135 -118 188 -118 q 8 -99 83 -118 z "},"":{"ha":843,"x_min":113,"x_max":757,"o":"m 297 778 l 296 779 l 301 779 q 357 778 324 779 q 427 775 390 776 q 502 775 464 774 q 574 781 540 776 q 635 797 608 786 q 674 826 661 808 l 739 803 q 701 729 726 769 q 647 647 676 689 q 587 566 617 606 q 535 496 557 526 q 424 347 481 424 q 319 194 368 269 q 232 49 269 119 q 178 -82 194 -22 q 167 -83 178 -85 q 144 -76 157 -81 q 122 -65 132 -71 q 114 -57 113 -60 q 168 74 131 3 q 254 219 206 144 q 359 372 303 294 q 469 521 415 449 q 563 648 519 589 q 636 754 607 707 q 500 747 568 743 q 364 751 432 751 q 368 689 369 733 q 358 595 367 644 q 337 504 350 546 q 307 450 324 463 q 288 444 300 444 q 252 448 271 443 q 215 463 233 453 q 184 489 197 474 q 165 524 171 504 q 156 606 156 557 q 170 697 156 654 q 216 765 185 739 q 297 778 247 790 m 586 -54 q 572 -53 582 -56 q 552 -47 563 -51 q 533 -39 542 -43 q 522 -31 524 -35 q 519 -15 519 -26 q 522 11 519 -4 q 469 -51 503 -28 q 388 -54 436 -74 q 374 -53 383 -56 q 353 -47 364 -51 q 334 -39 343 -43 q 324 -31 325 -35 q 322 -3 319 -25 q 330 44 325 19 q 340 92 335 69 q 347 121 344 114 q 380 215 361 171 q 421 272 399 258 q 474 274 439 282 q 532 244 508 267 q 553 208 547 229 q 558 163 558 186 q 586 231 571 201 q 619 272 601 261 q 672 274 638 282 q 731 244 707 267 q 756 181 756 221 q 751 108 757 140 q 735 44 747 79 q 702 -19 722 8 q 653 -58 682 -46 q 586 -54 625 -71 m 301 753 q 269 735 283 751 q 243 691 254 718 q 226 632 232 664 q 219 569 219 600 q 226 514 219 539 q 244 476 232 489 q 272 524 261 488 q 291 605 283 561 q 301 690 299 649 q 301 753 303 732 m 586 -35 q 639 7 615 -28 q 676 86 663 42 q 693 175 690 131 q 682 246 696 219 q 647 198 664 235 q 616 117 629 161 q 594 30 603 72 q 586 -35 586 -12 m 388 -35 q 440 7 417 -28 q 478 86 464 42 q 494 175 492 131 q 483 246 497 219 q 448 198 465 235 q 417 117 431 161 q 396 30 404 72 q 388 -35 388 -12 z "},"[":{"ha":407,"x_min":101,"x_max":569,"o":"m 542 932 q 554 926 549 932 q 564 913 560 919 q 569 901 568 907 q 568 896 569 896 q 519 901 549 896 q 459 911 489 907 q 403 915 429 915 q 365 900 376 914 q 327 828 347 879 q 287 708 307 778 q 247 556 267 639 q 213 386 228 472 q 188 228 199 304 q 172 87 176 151 q 167 -26 167 22 q 178 -100 168 -75 q 203 -114 181 -108 q 255 -123 226 -119 q 309 -128 283 -126 q 343 -131 335 -131 q 349 -135 342 -131 q 365 -147 357 -140 q 376 -158 372 -153 q 374 -162 381 -162 q 306 -162 346 -162 q 229 -156 267 -161 q 160 -139 192 -151 q 118 -103 129 -126 q 103 -32 106 -82 q 106 88 101 18 q 122 242 111 158 q 149 411 133 325 q 183 581 164 497 q 222 733 201 664 q 262 853 242 803 q 301 925 282 904 q 353 949 321 944 q 422 949 386 953 q 490 940 457 946 q 542 932 522 933 z "},"]":{"ha":418,"x_min":-131,"x_max":339,"o":"m -101 -121 q -114 -115 -108 -121 q -124 -102 -119 -108 q -129 -90 -128 -96 q -128 -85 -131 -85 q -78 -90 -108 -85 q -19 -100 -49 -96 q 38 -103 11 -104 q 75 -89 64 -103 q 113 -17 93 -68 q 153 103 133 33 q 193 256 174 172 q 228 425 213 339 q 253 583 242 506 q 269 724 264 660 q 273 838 274 789 q 263 911 272 886 q 237 925 260 919 q 185 934 214 931 q 131 940 157 938 q 97 942 106 942 q 91 947 99 942 q 76 958 83 951 q 64 969 68 964 q 67 974 60 974 q 134 973 94 974 q 211 967 174 972 q 280 950 249 963 q 322 914 311 938 q 337 843 335 893 q 334 723 339 793 q 318 569 329 653 q 292 400 307 486 q 258 231 276 314 q 219 77 239 147 q 178 -43 199 7 q 139 -114 157 -93 q 87 -137 119 -133 q 19 -138 54 -142 q -50 -128 -17 -135 q -101 -121 -83 -122 z "},"`":{"ha":383,"x_min":196,"x_max":332,"o":"m 253 853 q 288 811 276 833 q 328 769 300 789 q 325 763 332 767 q 308 755 318 758 q 286 749 297 751 q 269 749 275 747 q 247 763 258 750 q 224 789 235 775 q 206 816 214 803 q 197 833 199 829 q 201 842 196 838 q 217 849 207 846 q 236 853 226 851 q 253 853 246 854 z "},"":{"ha":1047,"x_min":-3,"x_max":1110,"o":"m 972 1 q 987 0 975 3 q 1010 -8 999 -3 q 1031 -17 1022 -12 q 1036 -25 1039 -22 q 997 -45 1017 -37 q 958 -53 978 -53 q 893 -40 924 -51 q 839 0 863 -28 q 799 112 806 36 q 806 283 793 188 l 804 283 q 694 272 751 272 q 585 290 638 272 q 542 202 568 256 q 484 96 517 149 q 413 1 451 43 q 332 -50 374 -40 q 288 -53 313 -56 q 239 -41 263 -50 q 195 -17 215 -32 q 164 15 175 -3 q 147 73 149 42 q 153 135 146 104 q 0 263 50 168 q 6 265 -3 267 q 28 260 15 264 q 51 250 40 256 q 65 240 63 244 q 81 213 71 228 q 102 185 90 199 q 128 160 114 171 q 156 149 142 150 q 188 222 167 186 q 238 286 210 258 q 285 317 261 310 q 328 322 308 325 q 403 288 381 314 q 411 261 411 276 q 396 216 411 242 q 344 161 381 190 q 313 140 331 150 q 219 121 269 118 q 210 44 208 81 q 228 -12 213 8 q 274 -27 244 -32 q 344 22 303 -22 q 435 148 390 71 q 522 317 479 225 q 462 363 490 336 q 419 424 433 389 q 412 487 407 457 q 434 540 417 517 q 479 578 451 564 q 542 592 507 592 q 588 586 564 590 q 636 574 613 582 q 678 671 653 614 q 733 785 703 728 q 798 891 764 842 q 868 965 832 940 q 942 998 900 989 q 1046 1004 985 1007 q 1065 1000 1051 1004 q 1089 990 1078 996 q 1105 981 1100 985 q 1100 978 1110 978 l 1058 978 q 1001 810 1029 901 q 949 631 972 718 q 908 471 925 543 q 886 361 892 399 q 953 411 924 382 q 996 482 983 440 q 1001 510 1001 497 q 993 533 1000 524 q 999 537 990 538 q 1019 533 1007 536 q 1042 524 1031 529 q 1057 514 1054 518 q 1065 488 1065 503 q 1061 458 1065 474 q 1032 403 1051 426 q 988 360 1013 379 q 934 328 963 342 q 876 304 906 314 q 867 239 874 283 q 861 144 861 194 q 870 47 861 94 q 907 -25 879 0 q 938 -18 926 -22 q 972 1 950 -14 m 829 431 q 865 585 844 507 q 906 733 885 663 q 946 863 926 803 q 981 964 965 922 q 932 940 954 956 q 862 865 896 915 q 797 758 828 815 q 742 643 767 700 q 699 546 717 586 q 772 497 739 525 q 829 431 804 468 m 811 329 q 812 333 811 332 q 813 338 813 335 q 770 445 801 396 q 692 529 739 494 l 676 496 q 592 306 635 397 q 644 300 615 300 q 702 304 672 300 q 760 315 732 308 q 811 329 789 321 m 483 403 q 531 336 497 367 q 572 427 551 381 q 613 519 593 474 l 629 560 q 596 564 613 564 q 538 550 564 564 q 496 513 511 536 q 476 461 481 490 q 483 403 472 432 m 233 160 q 271 181 250 167 q 310 214 292 196 q 338 252 328 232 q 346 292 349 272 q 310 269 328 285 q 278 235 293 254 q 252 197 264 217 q 233 160 240 176 m 947 1131 q 983 1089 971 1111 q 1022 1047 994 1067 q 1019 1040 1026 1044 q 1002 1033 1013 1036 q 981 1027 992 1029 q 964 1026 969 1025 q 941 1040 953 1028 q 919 1067 929 1053 q 901 1094 908 1081 q 892 1111 893 1107 q 896 1119 890 1115 q 911 1126 901 1124 q 931 1131 921 1129 q 947 1131 940 1132 z "},"":{"ha":578,"x_min":200,"x_max":336,"o":"m 279 853 q 296 853 286 854 q 315 849 306 851 q 331 842 325 846 q 335 833 336 838 q 326 816 333 829 q 308 789 318 803 q 285 763 297 775 q 263 749 272 750 q 246 749 257 747 q 224 755 235 751 q 207 763 214 758 q 204 769 200 767 q 244 811 232 789 q 279 853 256 833 z "},"":{"ha":1047,"x_min":-3,"x_max":1110,"o":"m 972 1 q 987 0 975 3 q 1010 -8 999 -3 q 1031 -17 1022 -12 q 1036 -25 1039 -22 q 997 -45 1017 -37 q 958 -53 978 -53 q 893 -40 924 -51 q 839 0 863 -28 q 799 112 806 36 q 806 283 793 188 l 804 283 q 694 272 751 272 q 585 290 638 272 q 542 202 568 256 q 484 96 517 149 q 413 1 451 43 q 332 -50 374 -40 q 288 -53 313 -56 q 239 -41 263 -50 q 195 -17 215 -32 q 164 15 175 -3 q 147 73 149 42 q 153 135 146 104 q 0 263 50 168 q 6 265 -3 267 q 28 260 15 264 q 51 250 40 256 q 65 240 63 244 q 81 213 71 228 q 102 185 90 199 q 128 160 114 171 q 156 149 142 150 q 188 222 167 186 q 238 286 210 258 q 285 317 261 310 q 328 322 308 325 q 403 288 381 314 q 411 261 411 276 q 396 216 411 242 q 344 161 381 190 q 313 140 331 150 q 219 121 269 118 q 210 44 208 81 q 228 -12 213 8 q 274 -27 244 -32 q 344 22 303 -22 q 435 148 390 71 q 522 317 479 225 q 462 363 490 336 q 419 424 433 389 q 412 487 407 457 q 434 540 417 517 q 479 578 451 564 q 542 592 507 592 q 588 586 564 590 q 636 574 613 582 q 678 671 653 614 q 733 785 703 728 q 798 891 764 842 q 868 965 832 940 q 942 998 900 989 q 1046 1004 985 1007 q 1065 1000 1051 1004 q 1089 990 1078 996 q 1105 981 1100 985 q 1100 978 1110 978 l 1058 978 q 1001 810 1029 901 q 949 631 972 718 q 908 471 925 543 q 886 361 892 399 q 953 411 924 382 q 996 482 983 440 q 1001 510 1001 497 q 993 533 1000 524 q 999 537 990 538 q 1019 533 1007 536 q 1042 524 1031 529 q 1057 514 1054 518 q 1065 488 1065 503 q 1061 458 1065 474 q 1032 403 1051 426 q 988 360 1013 379 q 934 328 963 342 q 876 304 906 314 q 867 239 874 283 q 861 144 861 194 q 870 47 861 94 q 907 -25 879 0 q 938 -18 926 -22 q 972 1 950 -14 m 829 431 q 865 585 844 507 q 906 733 885 663 q 946 863 926 803 q 981 964 965 922 q 932 940 954 956 q 862 865 896 915 q 797 758 828 815 q 742 643 767 700 q 699 546 717 586 q 772 497 739 525 q 829 431 804 468 m 811 329 q 812 333 811 332 q 813 338 813 335 q 770 445 801 396 q 692 529 739 494 l 676 496 q 592 306 635 397 q 644 300 615 300 q 702 304 672 300 q 760 315 732 308 q 811 329 789 321 m 483 403 q 531 336 497 367 q 572 427 551 381 q 613 519 593 474 l 629 560 q 596 564 613 564 q 538 550 564 564 q 496 513 511 536 q 476 461 481 490 q 483 403 472 432 m 233 160 q 271 181 250 167 q 310 214 292 196 q 338 252 328 232 q 346 292 349 272 q 310 269 328 285 q 278 235 293 254 q 252 197 264 217 q 233 160 240 176 m 919 1131 q 936 1131 926 1132 q 956 1126 946 1129 q 971 1119 965 1124 q 975 1111 976 1115 q 966 1094 974 1107 q 948 1067 958 1081 q 925 1040 938 1053 q 903 1026 913 1028 q 886 1027 897 1025 q 865 1033 875 1029 q 847 1040 854 1036 q 844 1047 840 1044 q 884 1089 872 1067 q 919 1131 896 1111 z "},"":{"ha":508,"x_min":131,"x_max":360,"o":"m 210 853 q 245 851 225 850 q 281 853 265 851 q 316 811 304 833 q 356 769 328 789 q 353 763 360 767 q 335 755 346 758 q 314 749 325 751 q 297 749 303 747 q 270 766 285 751 q 244 797 256 781 q 219 766 233 781 q 193 749 204 751 q 176 749 188 747 q 155 755 165 751 q 138 763 144 758 q 135 769 131 767 q 174 811 163 789 q 210 853 186 833 z "},"":{"ha":1047,"x_min":-3,"x_max":1110,"o":"m 972 1 q 987 0 975 3 q 1010 -8 999 -3 q 1031 -17 1022 -12 q 1036 -25 1039 -22 q 997 -45 1017 -37 q 958 -53 978 -53 q 893 -40 924 -51 q 839 0 863 -28 q 799 112 806 36 q 806 283 793 188 l 804 283 q 694 272 751 272 q 585 290 638 272 q 542 202 568 256 q 484 96 517 149 q 413 1 451 43 q 332 -50 374 -40 q 288 -53 313 -56 q 239 -41 263 -50 q 195 -17 215 -32 q 164 15 175 -3 q 147 73 149 42 q 153 135 146 104 q 0 263 50 168 q 6 265 -3 267 q 28 260 15 264 q 51 250 40 256 q 65 240 63 244 q 81 213 71 228 q 102 185 90 199 q 128 160 114 171 q 156 149 142 150 q 188 222 167 186 q 238 286 210 258 q 285 317 261 310 q 328 322 308 325 q 403 288 381 314 q 411 261 411 276 q 396 216 411 242 q 344 161 381 190 q 313 140 331 150 q 219 121 269 118 q 210 44 208 81 q 228 -12 213 8 q 274 -27 244 -32 q 344 22 303 -22 q 435 148 390 71 q 522 317 479 225 q 462 363 490 336 q 419 424 433 389 q 412 487 407 457 q 434 540 417 517 q 479 578 451 564 q 542 592 507 592 q 588 586 564 590 q 636 574 613 582 q 678 671 653 614 q 733 785 703 728 q 798 891 764 842 q 868 965 832 940 q 942 998 900 989 q 1046 1004 985 1007 q 1065 1000 1051 1004 q 1089 990 1078 996 q 1105 981 1100 985 q 1100 978 1110 978 l 1058 978 q 1001 810 1029 901 q 949 631 972 718 q 908 471 925 543 q 886 361 892 399 q 953 411 924 382 q 996 482 983 440 q 1001 510 1001 497 q 993 533 1000 524 q 999 537 990 538 q 1019 533 1007 536 q 1042 524 1031 529 q 1057 514 1054 518 q 1065 488 1065 503 q 1061 458 1065 474 q 1032 403 1051 426 q 988 360 1013 379 q 934 328 963 342 q 876 304 906 314 q 867 239 874 283 q 861 144 861 194 q 870 47 861 94 q 907 -25 879 0 q 938 -18 926 -22 q 972 1 950 -14 m 829 431 q 865 585 844 507 q 906 733 885 663 q 946 863 926 803 q 981 964 965 922 q 932 940 954 956 q 862 865 896 915 q 797 758 828 815 q 742 643 767 700 q 699 546 717 586 q 772 497 739 525 q 829 431 804 468 m 811 329 q 812 333 811 332 q 813 338 813 335 q 770 445 801 396 q 692 529 739 494 l 676 496 q 592 306 635 397 q 644 300 615 300 q 702 304 672 300 q 760 315 732 308 q 811 329 789 321 m 483 403 q 531 336 497 367 q 572 427 551 381 q 613 519 593 474 l 629 560 q 596 564 613 564 q 538 550 564 564 q 496 513 511 536 q 476 461 481 490 q 483 403 472 432 m 233 160 q 271 181 250 167 q 310 214 292 196 q 338 252 328 232 q 346 292 349 272 q 310 269 328 285 q 278 235 293 254 q 252 197 264 217 q 233 160 240 176 m 890 1131 q 926 1128 906 1128 q 961 1131 946 1129 q 997 1089 985 1111 q 1036 1047 1008 1067 q 1033 1040 1040 1044 q 1016 1033 1026 1036 q 994 1027 1006 1029 q 978 1026 983 1025 q 951 1044 965 1029 q 925 1075 936 1058 q 899 1044 914 1058 q 874 1026 885 1029 q 857 1027 868 1025 q 835 1033 846 1029 q 818 1040 825 1036 q 815 1047 811 1044 q 855 1089 843 1067 q 890 1131 867 1111 z "},"":{"ha":529,"x_min":83,"x_max":418,"o":"m 150 738 q 138 738 149 735 q 115 745 126 740 q 93 755 103 750 q 86 763 83 760 q 149 818 119 807 q 203 823 178 829 q 249 801 228 817 q 289 778 271 786 q 322 776 307 769 q 351 819 338 782 q 364 820 353 822 q 388 813 375 818 q 409 803 400 808 q 417 794 418 797 q 356 725 382 740 q 310 715 331 710 q 271 738 289 721 q 235 767 253 756 q 197 776 217 779 q 150 738 176 772 z "},"":{"ha":1032,"x_min":83,"x_max":907,"o":"m 332 546 q 335 547 332 547 q 344 544 339 546 q 353 540 349 543 q 358 536 357 538 q 372 514 363 525 q 394 501 381 503 q 406 530 399 515 q 424 554 413 544 q 460 568 442 571 q 488 556 479 564 q 490 546 490 553 q 463 508 488 524 q 419 492 439 492 q 416 462 417 479 q 426 435 415 444 q 447 440 436 435 q 465 453 458 446 q 515 517 492 478 q 559 599 538 556 q 601 685 581 642 q 643 761 622 728 q 688 814 664 797 q 722 827 704 825 q 753 828 739 829 q 774 823 767 826 q 779 818 782 819 q 726 763 751 804 q 682 672 701 722 q 651 569 663 621 q 639 485 640 518 l 639 467 q 640 469 639 468 q 640 471 640 469 q 667 529 650 493 q 705 607 683 565 q 750 691 726 649 q 798 766 774 733 q 844 818 822 799 q 886 833 867 838 q 897 828 888 832 q 906 824 907 825 q 861 742 882 790 q 826 640 840 693 q 805 544 811 592 q 803 458 799 497 q 811 426 806 443 q 829 397 817 408 q 849 403 840 399 q 865 413 858 408 q 871 413 867 414 q 880 410 875 411 q 888 406 885 408 q 890 404 892 404 q 854 388 872 390 q 837 389 846 386 q 817 396 828 392 q 789 426 797 406 q 778 467 781 446 q 780 553 774 506 q 800 650 786 601 q 828 733 813 694 q 863 804 844 772 q 807 735 836 781 q 751 637 778 689 q 701 536 724 585 q 665 461 678 488 q 653 439 654 439 q 619 451 631 435 q 613 494 613 460 q 624 574 614 528 q 651 666 635 619 q 689 753 668 713 q 733 814 710 793 q 713 804 719 810 q 688 783 699 796 q 667 751 678 769 q 625 676 646 718 q 583 590 604 633 q 538 508 561 547 q 489 444 515 469 q 457 426 474 429 q 419 432 443 422 q 392 457 396 442 q 392 494 388 472 q 332 546 351 507 m 376 785 q 392 782 379 788 q 403 774 404 776 q 374 717 388 750 q 344 644 360 683 q 294 528 319 585 q 240 444 268 472 q 226 433 233 438 q 213 426 219 429 q 176 429 196 422 q 147 451 156 436 q 140 474 140 461 q 143 497 140 486 q 83 546 103 510 q 87 547 83 547 q 95 544 90 546 q 104 540 100 543 q 110 536 108 538 q 124 515 115 526 q 143 501 132 504 q 153 524 147 511 q 169 547 160 536 q 188 563 178 557 q 210 568 199 569 q 239 556 231 564 q 242 546 242 550 q 217 507 242 526 q 168 492 193 490 q 165 463 164 476 q 173 441 167 449 q 190 435 179 433 q 217 453 200 436 q 242 489 229 467 q 268 538 256 511 q 293 595 281 565 q 318 654 306 625 q 349 726 335 692 q 376 785 364 761 m 225 715 q 213 717 225 711 q 185 735 193 726 q 174 769 172 750 q 188 801 176 788 q 210 819 196 813 q 238 826 224 825 q 309 822 274 831 q 375 801 344 813 q 429 788 403 793 q 483 793 456 782 q 514 819 503 800 q 510 858 525 839 q 506 861 510 860 q 497 865 501 863 q 490 868 493 867 q 490 869 488 869 q 515 866 501 871 q 535 853 528 861 q 540 812 550 833 q 507 783 529 790 q 442 778 475 771 q 376 796 408 785 q 322 812 351 804 q 260 817 292 819 q 213 792 231 813 q 199 760 201 778 q 207 728 196 742 q 218 719 210 725 q 225 715 222 717 m 174 506 q 203 526 186 511 q 217 557 219 542 q 190 535 201 551 q 174 506 179 519 m 425 508 q 451 528 436 514 q 465 557 467 543 q 440 536 450 550 q 425 508 431 522 z "},"":{"ha":508,"x_min":124,"x_max":389,"o":"m 125 800 q 149 832 131 828 q 183 824 168 836 q 199 803 194 815 q 189 775 204 792 q 169 767 181 767 q 148 772 158 767 q 131 785 138 778 q 125 800 124 793 m 310 800 q 334 832 315 828 q 368 824 353 836 q 384 803 379 815 q 374 775 389 792 q 354 767 365 767 q 333 772 343 767 q 315 785 322 778 q 310 800 308 793 z "},"":{"ha":1047,"x_min":-3,"x_max":1110,"o":"m 838 1015 q 825 1015 836 1013 q 802 1023 814 1018 q 781 1033 790 1028 q 774 1040 771 1038 q 836 1096 807 1085 q 890 1101 865 1107 q 937 1079 915 1094 q 976 1056 958 1064 q 1010 1053 994 1047 q 1039 1097 1025 1060 q 1051 1098 1040 1100 q 1075 1091 1063 1096 q 1097 1081 1088 1086 q 1104 1072 1106 1075 q 1044 1004 1071 1021 l 1046 1004 q 1065 1000 1051 1004 q 1089 990 1078 996 q 1105 981 1100 985 q 1100 978 1110 978 l 1058 978 q 1001 810 1029 901 q 949 631 972 718 q 908 471 925 543 q 886 361 892 399 q 953 411 924 382 q 996 482 983 440 q 1001 510 1001 497 q 993 533 1000 524 q 999 537 990 538 q 1019 533 1007 536 q 1042 524 1031 529 q 1057 514 1054 518 q 1065 488 1065 503 q 1061 458 1065 474 q 1032 403 1051 426 q 988 360 1013 379 q 934 328 963 342 q 876 304 906 314 q 867 239 874 283 q 861 144 861 194 q 870 47 861 94 q 907 -25 879 0 q 938 -18 926 -22 q 972 1 950 -14 q 987 0 975 3 q 1010 -8 999 -3 q 1031 -17 1022 -12 q 1036 -25 1039 -22 q 997 -45 1017 -37 q 958 -53 978 -53 q 893 -40 924 -51 q 839 0 863 -28 q 799 112 806 36 q 806 283 793 188 l 804 283 q 694 272 751 272 q 585 290 638 272 q 542 202 568 256 q 484 96 517 149 q 413 1 451 43 q 332 -50 374 -40 q 288 -53 313 -56 q 239 -41 263 -50 q 195 -17 215 -32 q 164 15 175 -3 q 147 73 149 42 q 153 135 146 104 q 0 263 50 168 q 6 265 -3 267 q 28 260 15 264 q 51 250 40 256 q 65 240 63 244 q 81 213 71 228 q 102 185 90 199 q 128 160 114 171 q 156 149 142 150 q 188 222 167 186 q 238 286 210 258 q 285 317 261 310 q 328 322 308 325 q 403 288 381 314 q 411 261 411 276 q 396 216 411 242 q 344 161 381 190 q 313 140 331 150 q 219 121 269 118 q 210 44 208 81 q 228 -12 213 8 q 274 -27 244 -32 q 344 22 303 -22 q 435 148 390 71 q 522 317 479 225 q 462 363 490 336 q 419 424 433 389 q 412 487 407 457 q 434 540 417 517 q 479 578 451 564 q 542 592 507 592 q 588 586 564 590 q 636 574 613 582 q 678 671 653 614 q 733 785 703 728 q 798 891 764 842 q 868 965 832 940 q 916 990 890 981 q 975 1003 942 999 q 944 1028 958 1013 q 913 1050 929 1043 q 878 1051 897 1057 q 838 1015 860 1046 m 829 431 q 865 585 844 507 q 906 733 885 663 q 946 863 926 803 q 981 964 965 922 q 932 940 954 956 q 862 865 896 915 q 797 758 828 815 q 742 643 767 700 q 699 546 717 586 q 772 497 739 525 q 829 431 804 468 m 811 329 q 812 333 811 332 q 813 338 813 335 q 770 445 801 396 q 692 529 739 494 l 676 496 q 592 306 635 397 q 644 300 615 300 q 702 304 672 300 q 760 315 732 308 q 811 329 789 321 m 483 403 q 531 336 497 367 q 572 427 551 381 q 613 519 593 474 l 629 560 q 596 564 613 564 q 538 550 564 564 q 496 513 511 536 q 476 461 481 490 q 483 403 472 432 m 233 160 q 271 181 250 167 q 310 214 292 196 q 338 252 328 232 q 346 292 349 272 q 310 269 328 285 q 278 235 293 254 q 252 197 264 217 q 233 160 240 176 z "},"":{"ha":1047,"x_min":-3,"x_max":1110,"o":"m 972 1 q 987 0 975 3 q 1010 -8 999 -3 q 1031 -17 1022 -12 q 1036 -25 1039 -22 q 997 -45 1017 -37 q 958 -53 978 -53 q 893 -40 924 -51 q 839 0 863 -28 q 799 112 806 36 q 806 283 793 188 l 804 283 q 694 272 751 272 q 585 290 638 272 q 542 202 568 256 q 484 96 517 149 q 413 1 451 43 q 332 -50 374 -40 q 288 -53 313 -56 q 239 -41 263 -50 q 195 -17 215 -32 q 164 15 175 -3 q 147 73 149 42 q 153 135 146 104 q 0 263 50 168 q 6 265 -3 267 q 28 260 15 264 q 51 250 40 256 q 65 240 63 244 q 81 213 71 228 q 102 185 90 199 q 128 160 114 171 q 156 149 142 150 q 188 222 167 186 q 238 286 210 258 q 285 317 261 310 q 328 322 308 325 q 403 288 381 314 q 411 261 411 276 q 396 216 411 242 q 344 161 381 190 q 313 140 331 150 q 219 121 269 118 q 210 44 208 81 q 228 -12 213 8 q 274 -27 244 -32 q 344 22 303 -22 q 435 148 390 71 q 522 317 479 225 q 462 363 490 336 q 419 424 433 389 q 412 487 407 457 q 434 540 417 517 q 479 578 451 564 q 542 592 507 592 q 588 586 564 590 q 636 574 613 582 q 678 671 653 614 q 733 785 703 728 q 798 891 764 842 q 868 965 832 940 q 942 998 900 989 q 1046 1004 985 1007 q 1065 1000 1051 1004 q 1089 990 1078 996 q 1105 981 1100 985 q 1100 978 1110 978 l 1058 978 q 1001 810 1029 901 q 949 631 972 718 q 908 471 925 543 q 886 361 892 399 q 953 411 924 382 q 996 482 983 440 q 1001 510 1001 497 q 993 533 1000 524 q 999 537 990 538 q 1019 533 1007 536 q 1042 524 1031 529 q 1057 514 1054 518 q 1065 488 1065 503 q 1061 458 1065 474 q 1032 403 1051 426 q 988 360 1013 379 q 934 328 963 342 q 876 304 906 314 q 867 239 874 283 q 861 144 861 194 q 870 47 861 94 q 907 -25 879 0 q 938 -18 926 -22 q 972 1 950 -14 m 829 431 q 865 585 844 507 q 906 733 885 663 q 946 863 926 803 q 981 964 965 922 q 932 940 954 956 q 862 865 896 915 q 797 758 828 815 q 742 643 767 700 q 699 546 717 586 q 772 497 739 525 q 829 431 804 468 m 811 329 q 812 333 811 332 q 813 338 813 335 q 770 445 801 396 q 692 529 739 494 l 676 496 q 592 306 635 397 q 644 300 615 300 q 702 304 672 300 q 760 315 732 308 q 811 329 789 321 m 483 403 q 531 336 497 367 q 572 427 551 381 q 613 519 593 474 l 629 560 q 596 564 613 564 q 538 550 564 564 q 496 513 511 536 q 476 461 481 490 q 483 403 472 432 m 233 160 q 271 181 250 167 q 310 214 292 196 q 338 252 328 232 q 346 292 349 272 q 310 269 328 285 q 278 235 293 254 q 252 197 264 217 q 233 160 240 176 m 817 1078 q 841 1110 822 1106 q 875 1101 860 1114 q 891 1081 886 1093 q 881 1053 896 1069 q 861 1044 872 1044 q 840 1050 850 1044 q 822 1063 829 1056 q 817 1078 815 1071 m 1001 1078 q 1026 1110 1007 1106 q 1060 1101 1044 1114 q 1076 1081 1071 1093 q 1065 1053 1081 1069 q 1046 1044 1057 1044 q 1024 1050 1035 1044 q 1007 1063 1014 1056 q 1001 1078 1000 1071 z "},"":{"ha":338,"x_min":86,"x_max":239,"o":"m 125 800 q 131 785 124 793 q 148 772 138 778 q 169 767 158 767 q 189 775 181 767 q 199 803 204 792 q 183 824 194 815 q 149 832 168 836 q 125 800 131 828 m 90 804 q 109 844 96 831 q 138 863 122 858 q 172 863 154 868 q 204 847 189 858 q 233 807 226 832 q 211 750 239 782 q 174 734 196 735 q 132 742 151 733 q 99 768 113 751 q 90 804 86 785 z "},"":{"ha":1047,"x_min":-3,"x_max":1110,"o":"m 919 1078 q 925 1063 918 1071 q 942 1050 932 1056 q 964 1044 953 1044 q 983 1053 975 1044 q 994 1081 999 1069 q 978 1101 989 1093 q 944 1110 963 1114 q 919 1078 925 1106 m 885 1082 q 903 1122 890 1108 q 933 1141 917 1136 q 966 1141 949 1146 q 999 1125 983 1136 q 1027 1085 1021 1110 q 1006 1028 1033 1060 q 968 1012 990 1013 q 926 1020 946 1011 q 894 1046 907 1029 q 885 1082 881 1063 m 972 1 q 987 0 975 3 q 1010 -8 999 -3 q 1031 -17 1022 -12 q 1036 -25 1039 -22 q 997 -45 1017 -37 q 958 -53 978 -53 q 893 -40 924 -51 q 839 0 863 -28 q 799 112 806 36 q 806 283 793 188 l 804 283 q 694 272 751 272 q 585 290 638 272 q 542 202 568 256 q 484 96 517 149 q 413 1 451 43 q 332 -50 374 -40 q 288 -53 313 -56 q 239 -41 263 -50 q 195 -17 215 -32 q 164 15 175 -3 q 147 73 149 42 q 153 135 146 104 q 0 263 50 168 q 6 265 -3 267 q 28 260 15 264 q 51 250 40 256 q 65 240 63 244 q 81 213 71 228 q 102 185 90 199 q 128 160 114 171 q 156 149 142 150 q 188 222 167 186 q 238 286 210 258 q 285 317 261 310 q 328 322 308 325 q 403 288 381 314 q 411 261 411 276 q 396 216 411 242 q 344 161 381 190 q 313 140 331 150 q 219 121 269 118 q 210 44 208 81 q 228 -12 213 8 q 274 -27 244 -32 q 344 22 303 -22 q 435 148 390 71 q 522 317 479 225 q 462 363 490 336 q 419 424 433 389 q 412 487 407 457 q 434 540 417 517 q 479 578 451 564 q 542 592 507 592 q 588 586 564 590 q 636 574 613 582 q 678 671 653 614 q 733 785 703 728 q 798 891 764 842 q 868 965 832 940 q 942 998 900 989 q 1046 1004 985 1007 q 1065 1000 1051 1004 q 1089 990 1078 996 q 1105 981 1100 985 q 1100 978 1110 978 l 1058 978 q 1001 810 1029 901 q 949 631 972 718 q 908 471 925 543 q 886 361 892 399 q 953 411 924 382 q 996 482 983 440 q 1001 510 1001 497 q 993 533 1000 524 q 999 537 990 538 q 1019 533 1007 536 q 1042 524 1031 529 q 1057 514 1054 518 q 1065 488 1065 503 q 1061 458 1065 474 q 1032 403 1051 426 q 988 360 1013 379 q 934 328 963 342 q 876 304 906 314 q 867 239 874 283 q 861 144 861 194 q 870 47 861 94 q 907 -25 879 0 q 938 -18 926 -22 q 972 1 950 -14 m 829 431 q 865 585 844 507 q 906 733 885 663 q 946 863 926 803 q 981 964 965 922 q 932 940 954 956 q 862 865 896 915 q 797 758 828 815 q 742 643 767 700 q 699 546 717 586 q 772 497 739 525 q 829 431 804 468 m 811 329 q 812 333 811 332 q 813 338 813 335 q 770 445 801 396 q 692 529 739 494 l 676 496 q 592 306 635 397 q 644 300 615 300 q 702 304 672 300 q 760 315 732 308 q 811 329 789 321 m 483 403 q 531 336 497 367 q 572 427 551 381 q 613 519 593 474 l 629 560 q 596 564 613 564 q 538 550 564 564 q 496 513 511 536 q 476 461 481 490 q 483 403 472 432 m 233 160 q 271 181 250 167 q 310 214 292 196 q 338 252 328 232 q 346 292 349 272 q 310 269 328 285 q 278 235 293 254 q 252 197 264 217 q 233 160 240 176 z "},"":{"ha":1529,"x_min":-3,"x_max":1661,"o":"m 958 -53 q 893 -40 924 -51 q 839 0 863 -28 q 799 112 806 36 q 806 283 793 188 l 804 283 q 694 272 751 272 q 585 290 638 272 q 542 202 568 256 q 484 96 517 149 q 413 1 451 43 q 332 -50 374 -40 q 288 -53 313 -56 q 239 -41 263 -50 q 195 -17 215 -32 q 164 15 175 -3 q 147 73 149 42 q 153 135 146 104 q 0 263 50 168 q 6 265 -3 267 q 28 260 15 264 q 51 250 40 256 q 65 240 63 244 q 81 213 71 228 q 102 185 90 199 q 128 160 114 171 q 156 149 142 150 q 188 222 167 186 q 238 286 210 258 q 285 317 261 310 q 328 322 308 325 q 403 288 381 314 q 411 261 411 276 q 396 216 411 242 q 344 161 381 190 q 313 140 331 150 q 219 121 269 118 q 210 44 208 81 q 228 -12 213 8 q 274 -27 244 -32 q 344 22 303 -22 q 435 148 390 71 q 522 317 479 225 q 462 363 490 336 q 419 424 433 389 q 412 487 407 457 q 434 540 417 517 q 479 578 451 564 q 542 592 507 592 q 588 586 564 590 q 636 574 613 582 q 678 671 653 614 q 733 785 703 728 q 798 891 764 842 q 868 965 832 940 q 942 998 900 989 q 1046 1004 985 1007 q 1065 1000 1051 1004 q 1089 990 1078 996 q 1105 981 1100 985 q 1100 978 1110 978 l 1058 978 q 1038 922 1047 950 q 1018 864 1028 894 q 1081 848 1050 857 q 1142 832 1113 839 q 1228 934 1176 893 q 1349 993 1279 975 q 1422 1002 1378 1001 q 1509 995 1465 1003 q 1590 970 1553 988 q 1644 924 1628 953 q 1653 874 1661 896 q 1627 833 1646 851 q 1582 803 1608 815 q 1535 786 1556 792 q 1368 772 1454 764 q 1201 800 1282 781 q 1164 698 1176 753 q 1161 590 1151 643 q 1210 606 1186 600 q 1258 614 1235 611 q 1367 610 1318 621 q 1446 567 1415 599 q 1464 516 1472 539 q 1429 477 1456 493 q 1367 453 1403 461 q 1307 446 1332 444 q 1212 467 1258 449 q 1133 525 1165 486 q 1072 488 1101 508 q 1018 443 1043 467 q 949 350 976 403 q 915 241 922 297 q 922 129 907 185 q 979 29 936 74 q 1049 -15 1010 -3 q 1128 -26 1088 -28 q 1210 -11 1169 -25 q 1283 26 1250 3 q 1346 87 1315 49 q 1394 169 1376 125 q 1413 260 1413 214 q 1385 343 1413 306 q 1349 364 1374 364 q 1330 367 1342 364 q 1307 376 1318 371 q 1290 385 1296 381 q 1290 390 1283 390 q 1315 391 1303 393 q 1342 386 1328 389 q 1426 347 1394 374 q 1469 286 1457 321 q 1476 212 1481 251 q 1456 134 1472 172 q 1410 61 1439 96 q 1347 1 1382 26 q 1275 -35 1314 -22 q 1195 -52 1236 -49 q 1113 -49 1154 -56 q 1032 -28 1071 -43 q 996 -46 1014 -39 q 958 -53 978 -53 m 829 431 q 865 585 844 507 q 906 733 885 663 q 946 863 926 803 q 981 964 965 922 q 932 940 954 956 q 862 865 896 915 q 797 758 828 815 q 742 643 767 700 q 699 546 717 586 q 772 497 739 525 q 829 431 804 468 m 890 388 q 953 468 917 435 q 1026 526 988 500 q 1108 571 1065 551 q 1095 697 1085 631 q 1133 818 1106 763 q 1072 833 1103 825 q 1011 846 1042 840 q 972 716 990 782 q 937 589 953 650 q 909 475 921 528 q 890 388 897 422 m 1210 814 q 1342 797 1272 800 q 1474 813 1411 794 q 1571 867 1546 832 q 1586 931 1596 903 q 1531 974 1575 961 q 1410 967 1486 986 q 1210 814 1281 931 m 811 329 q 812 333 811 332 q 813 338 813 335 q 770 445 801 396 q 692 529 739 494 l 676 496 q 592 306 635 397 q 644 300 615 300 q 702 304 672 300 q 760 315 732 308 q 811 329 789 321 m 483 403 q 531 336 497 367 q 572 427 551 381 q 613 519 593 474 l 629 560 q 596 564 613 564 q 538 550 564 564 q 496 513 511 536 q 476 461 481 490 q 483 403 472 432 m 1317 586 q 1248 572 1285 583 q 1174 546 1211 561 q 1246 472 1200 485 q 1349 490 1292 460 q 1388 522 1374 503 q 1400 556 1401 540 q 1379 582 1399 572 q 1317 586 1360 592 m 907 -25 q 938 -18 926 -22 q 972 1 950 -14 l 972 3 q 917 47 942 22 q 861 135 881 86 q 872 43 863 86 q 907 -25 881 0 m 233 160 q 271 181 250 167 q 310 214 292 196 q 338 252 328 232 q 346 292 349 272 q 310 269 328 285 q 278 235 293 254 q 252 197 264 217 q 233 160 240 176 z "},"":{"ha":347,"x_min":74,"x_max":256,"o":"m 171 -124 q 167 -140 168 -135 q 167 -149 167 -146 q 167 -154 167 -151 q 165 -162 167 -157 q 213 -176 192 -165 q 245 -201 235 -186 q 253 -237 256 -217 q 232 -282 251 -258 q 199 -304 219 -297 q 155 -310 178 -311 q 110 -303 132 -310 q 75 -283 89 -296 q 78 -275 74 -282 q 90 -261 83 -268 q 102 -249 96 -254 q 110 -244 108 -244 q 126 -256 115 -251 q 148 -265 136 -261 q 170 -267 160 -268 q 186 -260 181 -267 q 192 -235 196 -246 q 177 -217 189 -224 q 149 -211 165 -211 q 121 -218 133 -211 q 116 -210 117 -221 q 116 -184 115 -200 q 118 -151 117 -168 q 119 -124 119 -135 l 171 -124 z "},"":{"ha":864,"x_min":-1,"x_max":990,"o":"m 678 364 q 659 367 671 364 q 636 376 647 371 q 619 385 625 381 q 619 390 613 390 q 644 391 632 393 q 671 386 657 389 q 755 347 724 374 q 798 286 786 321 q 806 212 810 251 q 785 134 801 172 q 740 61 768 96 q 676 1 711 26 q 571 -44 629 -32 q 453 -51 513 -57 q 340 -19 394 -44 q 246 47 285 6 q 186 149 201 93 q 178 263 171 206 q 212 373 185 319 q 282 468 239 426 q 356 526 317 500 q 438 571 394 551 q 424 697 414 631 q 463 818 435 763 q 348 845 406 833 q 237 853 290 857 q 139 823 183 849 q 65 738 94 797 q 53 737 64 735 q 29 744 42 739 q 8 754 17 749 q 0 763 -1 760 q 91 856 35 831 q 213 881 147 882 q 345 864 278 881 q 471 832 413 847 q 557 934 506 893 q 678 993 608 975 q 751 1002 707 1001 q 838 995 794 1003 q 919 970 882 988 q 974 924 957 953 q 983 874 990 896 q 956 833 975 851 q 911 803 938 815 q 864 786 885 792 q 697 772 783 764 q 531 800 611 781 q 493 698 506 753 q 490 590 481 643 q 540 606 515 600 q 588 614 564 611 q 696 610 647 621 q 775 567 744 599 q 793 516 801 539 q 758 477 785 493 q 697 453 732 461 q 636 446 661 444 q 541 467 588 449 q 463 525 494 486 q 401 488 431 508 q 347 443 372 467 q 278 350 306 403 q 244 241 251 297 q 251 129 236 185 q 308 29 265 74 q 378 -15 339 -3 q 458 -26 417 -28 q 539 -11 499 -25 q 613 26 579 3 q 675 87 644 49 q 724 169 706 125 q 742 260 742 214 q 714 343 742 306 q 678 364 703 364 m 539 814 q 671 797 601 800 q 803 813 740 794 q 900 867 875 832 q 915 931 925 903 q 860 974 904 961 q 739 967 815 986 q 539 814 610 931 m 646 586 q 577 572 614 583 q 503 546 540 561 q 575 472 529 485 q 678 490 621 460 q 717 522 703 503 q 729 556 731 540 q 708 582 728 572 q 646 586 689 592 m 676 1131 q 712 1089 700 1111 q 751 1047 724 1067 q 749 1040 756 1044 q 731 1033 742 1036 q 710 1027 721 1029 q 693 1026 699 1025 q 670 1040 682 1028 q 648 1067 658 1053 q 630 1094 638 1081 q 621 1111 622 1107 q 625 1119 619 1115 q 640 1126 631 1124 q 660 1131 650 1129 q 676 1131 669 1132 z "},"":{"ha":864,"x_min":-1,"x_max":990,"o":"m 678 364 q 659 367 671 364 q 636 376 647 371 q 619 385 625 381 q 619 390 613 390 q 644 391 632 393 q 671 386 657 389 q 755 347 724 374 q 798 286 786 321 q 806 212 810 251 q 785 134 801 172 q 740 61 768 96 q 676 1 711 26 q 571 -44 629 -32 q 453 -51 513 -57 q 340 -19 394 -44 q 246 47 285 6 q 186 149 201 93 q 178 263 171 206 q 212 373 185 319 q 282 468 239 426 q 356 526 317 500 q 438 571 394 551 q 424 697 414 631 q 463 818 435 763 q 348 845 406 833 q 237 853 290 857 q 139 823 183 849 q 65 738 94 797 q 53 737 64 735 q 29 744 42 739 q 8 754 17 749 q 0 763 -1 760 q 91 856 35 831 q 213 881 147 882 q 345 864 278 881 q 471 832 413 847 q 557 934 506 893 q 678 993 608 975 q 751 1002 707 1001 q 838 995 794 1003 q 919 970 882 988 q 974 924 957 953 q 983 874 990 896 q 956 833 975 851 q 911 803 938 815 q 864 786 885 792 q 697 772 783 764 q 531 800 611 781 q 493 698 506 753 q 490 590 481 643 q 540 606 515 600 q 588 614 564 611 q 696 610 647 621 q 775 567 744 599 q 793 516 801 539 q 758 477 785 493 q 697 453 732 461 q 636 446 661 444 q 541 467 588 449 q 463 525 494 486 q 401 488 431 508 q 347 443 372 467 q 278 350 306 403 q 244 241 251 297 q 251 129 236 185 q 308 29 265 74 q 378 -15 339 -3 q 458 -26 417 -28 q 539 -11 499 -25 q 613 26 579 3 q 675 87 644 49 q 724 169 706 125 q 742 260 742 214 q 714 343 742 306 q 678 364 703 364 m 539 814 q 671 797 601 800 q 803 813 740 794 q 900 867 875 832 q 915 931 925 903 q 860 974 904 961 q 739 967 815 986 q 539 814 610 931 m 646 586 q 577 572 614 583 q 503 546 540 561 q 575 472 529 485 q 678 490 621 460 q 717 522 703 503 q 729 556 731 540 q 708 582 728 572 q 646 586 689 592 m 771 1131 q 788 1131 778 1132 q 807 1126 797 1129 q 822 1119 817 1124 q 826 1111 828 1115 q 817 1094 825 1107 q 799 1067 810 1081 q 776 1040 789 1053 q 754 1026 764 1028 q 738 1027 749 1025 q 716 1033 726 1029 q 699 1040 706 1036 q 696 1047 692 1044 q 735 1089 724 1067 q 771 1131 747 1111 z "},"":{"ha":864,"x_min":-1,"x_max":990,"o":"m 678 364 q 659 367 671 364 q 636 376 647 371 q 619 385 625 381 q 619 390 613 390 q 644 391 632 393 q 671 386 657 389 q 755 347 724 374 q 798 286 786 321 q 806 212 810 251 q 785 134 801 172 q 740 61 768 96 q 676 1 711 26 q 571 -44 629 -32 q 453 -51 513 -57 q 340 -19 394 -44 q 246 47 285 6 q 186 149 201 93 q 178 263 171 206 q 212 373 185 319 q 282 468 239 426 q 356 526 317 500 q 438 571 394 551 q 424 697 414 631 q 463 818 435 763 q 348 845 406 833 q 237 853 290 857 q 139 823 183 849 q 65 738 94 797 q 53 737 64 735 q 29 744 42 739 q 8 754 17 749 q 0 763 -1 760 q 91 856 35 831 q 213 881 147 882 q 345 864 278 881 q 471 832 413 847 q 557 934 506 893 q 678 993 608 975 q 751 1002 707 1001 q 838 995 794 1003 q 919 970 882 988 q 974 924 957 953 q 983 874 990 896 q 956 833 975 851 q 911 803 938 815 q 864 786 885 792 q 697 772 783 764 q 531 800 611 781 q 493 698 506 753 q 490 590 481 643 q 540 606 515 600 q 588 614 564 611 q 696 610 647 621 q 775 567 744 599 q 793 516 801 539 q 758 477 785 493 q 697 453 732 461 q 636 446 661 444 q 541 467 588 449 q 463 525 494 486 q 401 488 431 508 q 347 443 372 467 q 278 350 306 403 q 244 241 251 297 q 251 129 236 185 q 308 29 265 74 q 378 -15 339 -3 q 458 -26 417 -28 q 539 -11 499 -25 q 613 26 579 3 q 675 87 644 49 q 724 169 706 125 q 742 260 742 214 q 714 343 742 306 q 678 364 703 364 m 539 814 q 671 797 601 800 q 803 813 740 794 q 900 867 875 832 q 915 931 925 903 q 860 974 904 961 q 739 967 815 986 q 539 814 610 931 m 646 586 q 577 572 614 583 q 503 546 540 561 q 575 472 529 485 q 678 490 621 460 q 717 522 703 503 q 729 556 731 540 q 708 582 728 572 q 646 586 689 592 m 736 1131 q 772 1128 751 1128 q 807 1131 792 1129 q 842 1089 831 1111 q 882 1047 854 1067 q 879 1040 886 1044 q 862 1033 872 1036 q 840 1027 851 1029 q 824 1026 829 1025 q 797 1044 811 1029 q 771 1075 782 1058 q 745 1044 760 1058 q 719 1026 731 1029 q 703 1027 714 1025 q 681 1033 692 1029 q 664 1040 671 1036 q 661 1047 657 1044 q 701 1089 689 1067 q 736 1131 713 1111 z "},"":{"ha":864,"x_min":-1,"x_max":990,"o":"m 678 364 q 659 367 671 364 q 636 376 647 371 q 619 385 625 381 q 619 390 613 390 q 644 391 632 393 q 671 386 657 389 q 755 347 724 374 q 798 286 786 321 q 806 212 810 251 q 785 134 801 172 q 740 61 768 96 q 676 1 711 26 q 571 -44 629 -32 q 453 -51 513 -57 q 340 -19 394 -44 q 246 47 285 6 q 186 149 201 93 q 178 263 171 206 q 212 373 185 319 q 282 468 239 426 q 356 526 317 500 q 438 571 394 551 q 424 697 414 631 q 463 818 435 763 q 348 845 406 833 q 237 853 290 857 q 139 823 183 849 q 65 738 94 797 q 53 737 64 735 q 29 744 42 739 q 8 754 17 749 q 0 763 -1 760 q 91 856 35 831 q 213 881 147 882 q 345 864 278 881 q 471 832 413 847 q 557 934 506 893 q 678 993 608 975 q 751 1002 707 1001 q 838 995 794 1003 q 919 970 882 988 q 974 924 957 953 q 983 874 990 896 q 956 833 975 851 q 911 803 938 815 q 864 786 885 792 q 697 772 783 764 q 531 800 611 781 q 493 698 506 753 q 490 590 481 643 q 540 606 515 600 q 588 614 564 611 q 696 610 647 621 q 775 567 744 599 q 793 516 801 539 q 758 477 785 493 q 697 453 732 461 q 636 446 661 444 q 541 467 588 449 q 463 525 494 486 q 401 488 431 508 q 347 443 372 467 q 278 350 306 403 q 244 241 251 297 q 251 129 236 185 q 308 29 265 74 q 378 -15 339 -3 q 458 -26 417 -28 q 539 -11 499 -25 q 613 26 579 3 q 675 87 644 49 q 724 169 706 125 q 742 260 742 214 q 714 343 742 306 q 678 364 703 364 m 539 814 q 671 797 601 800 q 803 813 740 794 q 900 867 875 832 q 915 931 925 903 q 860 974 904 961 q 739 967 815 986 q 539 814 610 931 m 646 586 q 577 572 614 583 q 503 546 540 561 q 575 472 529 485 q 678 490 621 460 q 717 522 703 503 q 729 556 731 540 q 708 582 728 572 q 646 586 689 592 m 618 1078 q 642 1110 624 1106 q 676 1101 661 1114 q 692 1081 688 1093 q 682 1053 697 1069 q 663 1044 674 1044 q 641 1050 651 1044 q 624 1063 631 1056 q 618 1078 617 1071 m 803 1078 q 827 1110 808 1106 q 861 1101 846 1114 q 877 1081 872 1093 q 867 1053 882 1069 q 847 1044 858 1044 q 826 1050 836 1044 q 808 1063 815 1056 q 803 1078 801 1071 z "},"":{"ha":667,"x_min":-3,"x_max":1003,"o":"m 363 640 q 379 633 371 638 q 392 626 388 629 q 397 622 397 624 q 389 621 397 619 q 306 645 344 625 q 244 696 268 665 q 211 800 210 742 q 228 874 213 839 q 268 934 243 908 q 326 977 293 960 q 399 1001 360 994 q 508 1002 454 1010 q 613 977 561 994 q 715 936 665 960 q 815 892 765 913 q 835 918 824 903 q 860 947 846 933 q 888 972 874 961 q 915 982 903 982 q 989 957 956 986 q 996 922 1003 940 q 969 888 989 903 q 924 864 950 872 q 874 860 897 856 q 797 731 826 794 q 739 592 768 667 q 682 450 713 526 q 616 298 651 374 q 540 152 581 222 q 453 28 499 82 q 345 -48 401 -31 q 215 -25 289 -65 q 184 -3 199 -15 q 161 29 169 10 q 147 88 147 57 q 153 146 146 118 q 0 274 50 179 q 6 276 -3 278 q 28 271 15 275 q 51 261 40 267 q 65 251 63 256 q 80 226 71 240 q 101 199 89 213 q 125 174 113 185 q 150 161 138 164 l 156 161 q 188 233 167 197 q 238 297 210 269 q 285 328 261 321 q 328 333 308 336 q 403 299 381 325 q 412 265 415 283 q 397 229 408 247 q 369 196 385 211 q 344 172 354 181 q 219 132 292 129 q 211 69 211 103 q 225 8 211 36 q 238 -14 232 -7 q 251 -25 243 -21 q 338 3 293 -32 q 424 99 382 39 q 506 234 467 158 q 578 384 544 310 q 636 521 611 458 q 674 617 661 583 q 731 753 703 689 q 806 881 760 817 q 720 918 761 899 q 638 953 679 938 q 553 975 597 968 q 458 974 508 982 q 388 950 421 967 q 332 908 356 933 q 293 849 308 882 q 276 776 278 815 q 284 722 275 749 q 308 676 293 696 q 323 659 318 664 q 333 651 328 654 q 344 647 338 649 q 363 640 350 644 m 233 171 q 270 191 250 178 q 307 222 290 204 q 335 258 324 239 q 346 296 346 278 l 346 303 q 310 281 328 296 q 278 247 293 265 q 252 209 264 229 q 233 171 240 189 m 756 1131 q 791 1089 779 1111 q 831 1047 803 1067 q 828 1040 835 1044 q 810 1033 821 1036 q 789 1027 800 1029 q 772 1026 778 1025 q 749 1040 761 1028 q 727 1067 738 1053 q 709 1094 717 1081 q 700 1111 701 1107 q 704 1119 699 1115 q 719 1126 710 1124 q 739 1131 729 1129 q 756 1131 749 1132 z "},"":{"ha":667,"x_min":-3,"x_max":1003,"o":"m 363 640 q 379 633 371 638 q 392 626 388 629 q 397 622 397 624 q 389 621 397 619 q 306 645 344 625 q 244 696 268 665 q 211 800 210 742 q 228 874 213 839 q 268 934 243 908 q 326 977 293 960 q 399 1001 360 994 q 508 1002 454 1010 q 613 977 561 994 q 715 936 665 960 q 815 892 765 913 q 835 918 824 903 q 860 947 846 933 q 888 972 874 961 q 915 982 903 982 q 989 957 956 986 q 996 922 1003 940 q 969 888 989 903 q 924 864 950 872 q 874 860 897 856 q 797 731 826 794 q 739 592 768 667 q 682 450 713 526 q 616 298 651 374 q 540 152 581 222 q 453 28 499 82 q 345 -48 401 -31 q 215 -25 289 -65 q 184 -3 199 -15 q 161 29 169 10 q 147 88 147 57 q 153 146 146 118 q 0 274 50 179 q 6 276 -3 278 q 28 271 15 275 q 51 261 40 267 q 65 251 63 256 q 80 226 71 240 q 101 199 89 213 q 125 174 113 185 q 150 161 138 164 l 156 161 q 188 233 167 197 q 238 297 210 269 q 285 328 261 321 q 328 333 308 336 q 403 299 381 325 q 412 265 415 283 q 397 229 408 247 q 369 196 385 211 q 344 172 354 181 q 219 132 292 129 q 211 69 211 103 q 225 8 211 36 q 238 -14 232 -7 q 251 -25 243 -21 q 338 3 293 -32 q 424 99 382 39 q 506 234 467 158 q 578 384 544 310 q 636 521 611 458 q 674 617 661 583 q 731 753 703 689 q 806 881 760 817 q 720 918 761 899 q 638 953 679 938 q 553 975 597 968 q 458 974 508 982 q 388 950 421 967 q 332 908 356 933 q 293 849 308 882 q 276 776 278 815 q 284 722 275 749 q 308 676 293 696 q 323 659 318 664 q 333 651 328 654 q 344 647 338 649 q 363 640 350 644 m 233 171 q 270 191 250 178 q 307 222 290 204 q 335 258 324 239 q 346 296 346 278 l 346 303 q 310 281 328 296 q 278 247 293 265 q 252 209 264 229 q 233 171 240 189 m 804 1131 q 821 1131 811 1132 q 840 1126 831 1129 q 856 1119 850 1124 q 860 1111 861 1115 q 851 1094 858 1107 q 833 1067 843 1081 q 810 1040 822 1053 q 788 1026 797 1028 q 771 1027 782 1025 q 749 1033 760 1029 q 732 1040 739 1036 q 729 1047 725 1044 q 769 1089 757 1067 q 804 1131 781 1111 z "},"":{"ha":667,"x_min":-3,"x_max":1003,"o":"m 363 640 q 379 633 371 638 q 392 626 388 629 q 397 622 397 624 q 389 621 397 619 q 306 645 344 625 q 244 696 268 665 q 211 800 210 742 q 228 874 213 839 q 268 934 243 908 q 326 977 293 960 q 399 1001 360 994 q 508 1002 454 1010 q 613 977 561 994 q 715 936 665 960 q 815 892 765 913 q 835 918 824 903 q 860 947 846 933 q 888 972 874 961 q 915 982 903 982 q 989 957 956 986 q 996 922 1003 940 q 969 888 989 903 q 924 864 950 872 q 874 860 897 856 q 797 731 826 794 q 739 592 768 667 q 682 450 713 526 q 616 298 651 374 q 540 152 581 222 q 453 28 499 82 q 345 -48 401 -31 q 215 -25 289 -65 q 184 -3 199 -15 q 161 29 169 10 q 147 88 147 57 q 153 146 146 118 q 0 274 50 179 q 6 276 -3 278 q 28 271 15 275 q 51 261 40 267 q 65 251 63 256 q 80 226 71 240 q 101 199 89 213 q 125 174 113 185 q 150 161 138 164 l 156 161 q 188 233 167 197 q 238 297 210 269 q 285 328 261 321 q 328 333 308 336 q 403 299 381 325 q 412 265 415 283 q 397 229 408 247 q 369 196 385 211 q 344 172 354 181 q 219 132 292 129 q 211 69 211 103 q 225 8 211 36 q 238 -14 232 -7 q 251 -25 243 -21 q 338 3 293 -32 q 424 99 382 39 q 506 234 467 158 q 578 384 544 310 q 636 521 611 458 q 674 617 661 583 q 731 753 703 689 q 806 881 760 817 q 720 918 761 899 q 638 953 679 938 q 553 975 597 968 q 458 974 508 982 q 388 950 421 967 q 332 908 356 933 q 293 849 308 882 q 276 776 278 815 q 284 722 275 749 q 308 676 293 696 q 323 659 318 664 q 333 651 328 654 q 344 647 338 649 q 363 640 350 644 m 233 171 q 270 191 250 178 q 307 222 290 204 q 335 258 324 239 q 346 296 346 278 l 346 303 q 310 281 328 296 q 278 247 293 265 q 252 209 264 229 q 233 171 240 189 m 739 1131 q 774 1128 754 1128 q 810 1131 794 1129 q 845 1089 833 1111 q 885 1047 857 1067 q 882 1040 889 1044 q 865 1033 875 1036 q 843 1027 854 1029 q 826 1026 832 1025 q 799 1044 814 1029 q 774 1075 785 1058 q 748 1044 763 1058 q 722 1026 733 1029 q 706 1027 717 1025 q 684 1033 694 1029 q 667 1040 674 1036 q 664 1047 660 1044 q 703 1089 692 1067 q 739 1131 715 1111 z "},"":{"ha":667,"x_min":-3,"x_max":1003,"o":"m 363 640 q 379 633 371 638 q 392 626 388 629 q 397 622 397 624 q 389 621 397 619 q 306 645 344 625 q 244 696 268 665 q 211 800 210 742 q 228 874 213 839 q 268 934 243 908 q 326 977 293 960 q 399 1001 360 994 q 508 1002 454 1010 q 613 977 561 994 q 715 936 665 960 q 815 892 765 913 q 835 918 824 903 q 860 947 846 933 q 888 972 874 961 q 915 982 903 982 q 989 957 956 986 q 996 922 1003 940 q 969 888 989 903 q 924 864 950 872 q 874 860 897 856 q 797 731 826 794 q 739 592 768 667 q 682 450 713 526 q 616 298 651 374 q 540 152 581 222 q 453 28 499 82 q 345 -48 401 -31 q 215 -25 289 -65 q 184 -3 199 -15 q 161 29 169 10 q 147 88 147 57 q 153 146 146 118 q 0 274 50 179 q 6 276 -3 278 q 28 271 15 275 q 51 261 40 267 q 65 251 63 256 q 80 226 71 240 q 101 199 89 213 q 125 174 113 185 q 150 161 138 164 l 156 161 q 188 233 167 197 q 238 297 210 269 q 285 328 261 321 q 328 333 308 336 q 403 299 381 325 q 412 265 415 283 q 397 229 408 247 q 369 196 385 211 q 344 172 354 181 q 219 132 292 129 q 211 69 211 103 q 225 8 211 36 q 238 -14 232 -7 q 251 -25 243 -21 q 338 3 293 -32 q 424 99 382 39 q 506 234 467 158 q 578 384 544 310 q 636 521 611 458 q 674 617 661 583 q 731 753 703 689 q 806 881 760 817 q 720 918 761 899 q 638 953 679 938 q 553 975 597 968 q 458 974 508 982 q 388 950 421 967 q 332 908 356 933 q 293 849 308 882 q 276 776 278 815 q 284 722 275 749 q 308 676 293 696 q 323 659 318 664 q 333 651 328 654 q 344 647 338 649 q 363 640 350 644 m 233 171 q 270 191 250 178 q 307 222 290 204 q 335 258 324 239 q 346 296 346 278 l 346 303 q 310 281 328 296 q 278 247 293 265 q 252 209 264 229 q 233 171 240 189 m 639 1078 q 663 1110 644 1106 q 697 1101 682 1114 q 713 1081 708 1093 q 703 1053 718 1069 q 683 1044 694 1044 q 662 1050 672 1044 q 644 1063 651 1056 q 639 1078 638 1071 m 824 1078 q 848 1110 829 1106 q 882 1101 867 1114 q 898 1081 893 1093 q 888 1053 903 1069 q 868 1044 879 1044 q 847 1050 857 1044 q 829 1063 836 1056 q 824 1078 822 1071 z "},"":{"ha":1186,"x_min":-3,"x_max":1176,"o":"m 753 456 q 763 449 758 457 q 770 432 768 442 q 771 414 772 422 q 764 404 769 406 q 715 401 750 401 q 635 399 679 400 q 574 264 608 338 q 501 124 540 190 q 418 10 461 58 q 332 -50 375 -39 q 288 -53 313 -56 q 239 -41 263 -50 q 195 -17 215 -32 q 164 15 175 -3 q 147 73 149 42 q 153 135 146 104 q 0 263 50 168 q 6 265 -3 267 q 28 260 15 264 q 51 250 40 256 q 65 240 63 244 q 81 213 71 228 q 102 185 90 199 q 128 160 114 171 q 156 149 142 150 q 178 206 163 174 q 217 265 194 238 q 268 310 240 293 q 328 322 296 328 q 403 288 381 314 q 411 261 411 276 q 401 226 411 244 q 376 192 392 208 q 344 162 361 175 q 313 140 326 149 q 219 121 269 118 q 210 44 208 81 q 228 -12 213 8 q 274 -27 244 -32 q 344 22 303 -22 q 453 182 400 81 q 560 399 507 283 q 473 400 511 400 q 428 401 435 400 q 416 410 421 401 q 409 427 411 418 q 410 444 407 436 q 422 451 413 451 q 436 451 422 451 q 473 451 450 451 q 524 450 496 450 q 582 450 553 450 l 613 519 q 654 617 632 565 q 701 722 676 669 q 754 824 726 775 q 814 913 782 874 q 698 913 754 919 q 590 888 642 906 q 523 857 558 876 q 458 810 488 838 q 408 750 428 783 q 389 679 389 717 q 401 625 389 650 q 413 609 407 614 q 426 601 419 604 q 440 597 432 599 q 460 589 449 594 q 474 579 471 583 q 471 575 478 575 q 437 581 456 576 q 399 594 418 585 q 343 636 364 610 q 324 703 322 663 q 344 775 324 742 q 394 835 364 808 q 459 883 424 863 q 528 914 494 903 q 670 942 593 938 q 828 931 747 947 q 847 950 838 942 q 868 965 857 958 q 942 998 900 989 q 1046 1004 985 1007 q 1065 1000 1051 1004 q 1089 990 1078 996 q 1105 981 1100 985 q 1100 978 1110 978 q 1003 971 1043 981 q 932 940 964 961 q 896 910 915 929 q 1046 813 985 875 q 1147 640 1117 738 q 1169 442 1176 543 q 1121 245 1163 340 q 1007 81 1079 150 q 836 -33 919 -3 q 690 -56 753 -64 q 644 -45 669 -53 q 597 -25 619 -37 q 559 5 575 -12 q 539 47 543 22 q 553 125 533 81 q 626 221 574 169 q 640 221 629 224 q 663 213 651 218 q 684 203 675 208 q 690 196 693 197 q 618 101 638 144 q 604 25 599 57 q 628 -19 610 -7 q 672 -31 647 -31 q 722 -24 696 -32 q 769 -8 749 -17 q 931 93 861 26 q 1044 244 1001 160 q 1099 426 1086 329 q 1092 618 1113 522 q 983 831 1064 743 q 886 899 935 881 q 825 810 854 861 q 769 704 796 760 q 719 594 742 649 q 676 496 696 540 l 657 451 q 719 452 693 451 q 753 456 746 453 m 233 160 q 271 180 250 165 q 309 213 292 194 q 338 251 326 231 q 346 292 349 272 q 310 269 328 285 q 278 235 293 254 q 252 197 264 217 q 233 160 240 176 z "},"":{"ha":1082,"x_min":-1,"x_max":1760,"o":"m 0 263 q 8 265 -1 267 q 29 260 17 264 q 52 250 42 256 q 65 240 63 244 q 81 209 72 225 q 102 180 90 193 q 128 158 114 167 q 161 147 143 149 q 191 222 172 185 q 239 286 210 260 q 287 317 263 310 q 331 322 311 325 q 406 288 383 314 q 413 263 414 276 q 394 217 411 243 q 339 161 378 190 q 225 121 288 121 q 219 90 222 108 q 217 49 217 71 q 223 8 217 28 q 244 -26 229 -12 q 289 -17 265 -26 q 335 14 313 -7 q 399 84 367 42 q 461 175 431 126 q 520 275 492 224 q 572 374 549 326 q 615 459 596 421 q 644 519 633 497 q 699 629 667 564 q 768 760 731 694 q 847 881 806 825 q 929 965 889 938 q 1017 1001 972 994 q 1099 1003 1063 1007 q 1155 990 1135 999 q 1168 978 1175 981 q 1089 912 1125 957 q 1023 806 1053 867 q 969 676 993 746 q 928 538 946 607 q 898 408 910 469 q 879 303 886 347 q 867 189 871 243 q 864 90 863 135 q 865 69 864 79 q 867 49 865 58 q 905 180 881 108 q 962 328 929 251 q 1034 483 994 404 q 1118 636 1074 561 q 1206 772 1160 707 q 1299 889 1251 836 q 1395 981 1347 942 q 1492 1042 1443 1021 q 1563 1063 1528 1057 q 1629 1063 1597 1069 q 1709 1033 1675 1054 q 1758 979 1743 1013 q 1751 976 1760 975 q 1730 981 1742 978 q 1707 990 1718 985 q 1694 1000 1696 996 q 1676 1028 1685 1019 q 1663 1039 1667 1038 q 1613 1037 1639 1043 q 1554 1017 1588 1031 q 1458 956 1507 996 q 1363 863 1410 917 q 1270 746 1315 810 q 1183 613 1225 682 q 1085 433 1131 525 q 1006 253 1040 340 q 948 87 971 165 q 917 -50 925 8 q 906 -52 917 -53 q 878 -47 894 -51 q 847 -35 863 -43 q 824 -14 832 -26 q 806 36 813 3 q 799 114 800 69 q 815 326 796 207 q 850 511 828 415 q 903 694 872 607 q 971 853 933 782 q 1051 967 1008 925 q 1022 956 1036 963 q 993 940 1007 949 q 911 856 953 913 q 832 734 869 800 q 763 603 794 668 q 710 496 732 539 q 636 349 674 422 q 561 210 599 276 q 485 89 524 144 q 410 -3 447 33 q 325 -51 368 -42 q 226 -36 282 -60 q 158 31 169 -11 q 157 131 146 74 q 63 178 101 146 q 0 263 24 210 m 240 165 q 274 186 254 172 q 310 217 293 200 q 338 254 326 235 q 347 292 349 274 q 283 239 310 276 q 240 165 256 201 m 1142 1015 q 1129 1015 1140 1013 q 1106 1023 1118 1018 q 1085 1033 1094 1028 q 1078 1040 1075 1038 q 1140 1096 1111 1085 q 1194 1101 1169 1107 q 1241 1079 1219 1094 q 1281 1056 1263 1064 q 1314 1053 1299 1047 q 1343 1097 1329 1060 q 1356 1098 1344 1100 q 1379 1091 1367 1096 q 1401 1081 1392 1086 q 1408 1072 1410 1075 q 1348 1003 1374 1018 q 1301 993 1322 988 q 1263 1016 1281 999 q 1226 1045 1244 1033 q 1188 1053 1208 1057 q 1142 1015 1168 1050 z "},"":{"ha":1157,"x_min":-1,"x_max":1242,"o":"m 65 735 q 53 735 64 732 q 29 742 42 738 q 8 752 17 747 q 0 760 -1 757 q 78 847 31 821 q 181 878 125 874 q 300 870 238 882 q 425 842 363 858 q 522 915 468 879 q 634 974 575 950 q 755 1005 693 999 q 875 990 817 1011 q 939 958 906 979 q 982 904 972 938 q 1031 865 1013 888 q 1064 810 1049 842 q 1090 724 1082 771 q 1097 630 1097 678 q 1090 534 1097 582 q 1072 446 1082 486 q 1133 482 1106 458 q 1175 538 1161 506 q 1188 538 1176 540 q 1210 531 1199 536 q 1232 522 1222 526 q 1240 514 1242 517 q 1166 434 1217 461 q 1061 404 1115 407 q 989 237 1035 318 q 880 91 943 156 q 736 -15 817 26 q 558 -60 656 -56 q 453 -51 507 -62 q 351 -17 400 -40 q 261 41 301 6 q 196 124 221 76 q 157 294 160 194 q 200 522 154 393 q 287 689 232 611 q 411 829 342 767 q 310 849 360 842 q 214 848 260 856 q 130 814 168 840 q 65 735 92 788 m 482 811 q 353 668 411 747 q 264 499 296 589 q 222 272 219 369 q 261 103 225 174 q 358 -4 300 28 q 500 -33 417 -36 q 672 10 593 -29 q 813 112 750 50 q 919 252 875 174 q 992 413 964 331 q 838 492 903 432 q 742 636 774 551 q 724 701 731 668 q 719 769 717 735 q 600 783 656 772 q 482 811 544 794 m 788 771 q 786 691 781 732 q 806 614 792 650 q 834 554 815 586 q 877 494 853 522 q 932 449 901 467 q 997 431 963 431 q 1021 527 1011 475 q 1033 633 1031 579 q 1027 739 1035 688 q 999 832 1019 790 q 981 865 989 853 q 949 824 972 840 q 898 796 926 807 q 840 778 869 785 q 788 771 810 772 m 496 822 q 608 801 553 808 q 722 797 664 793 q 792 903 736 867 q 917 928 847 940 q 901 956 914 939 q 876 976 888 972 q 784 977 838 990 q 676 938 731 964 q 574 880 622 913 q 496 822 525 847 m 799 810 q 835 822 815 814 q 873 841 856 829 q 903 869 890 853 q 919 904 917 885 q 847 872 878 892 q 799 810 817 851 m 739 1131 q 774 1089 763 1111 q 814 1047 786 1067 q 811 1040 818 1044 q 794 1033 804 1036 q 772 1027 783 1029 q 756 1026 761 1025 q 733 1040 744 1028 q 710 1067 721 1053 q 692 1094 700 1081 q 683 1111 685 1107 q 688 1119 682 1115 q 703 1126 693 1124 q 722 1131 713 1129 q 739 1131 732 1132 z "},"":{"ha":1157,"x_min":-1,"x_max":1242,"o":"m 65 735 q 53 735 64 732 q 29 742 42 738 q 8 752 17 747 q 0 760 -1 757 q 78 847 31 821 q 181 878 125 874 q 300 870 238 882 q 425 842 363 858 q 522 915 468 879 q 634 974 575 950 q 755 1005 693 999 q 875 990 817 1011 q 939 958 906 979 q 982 904 972 938 q 1031 865 1013 888 q 1064 810 1049 842 q 1090 724 1082 771 q 1097 630 1097 678 q 1090 534 1097 582 q 1072 446 1082 486 q 1133 482 1106 458 q 1175 538 1161 506 q 1188 538 1176 540 q 1210 531 1199 536 q 1232 522 1222 526 q 1240 514 1242 517 q 1166 434 1217 461 q 1061 404 1115 407 q 989 237 1035 318 q 880 91 943 156 q 736 -15 817 26 q 558 -60 656 -56 q 453 -51 507 -62 q 351 -17 400 -40 q 261 41 301 6 q 196 124 221 76 q 157 294 160 194 q 200 522 154 393 q 287 689 232 611 q 411 829 342 767 q 310 849 360 842 q 214 848 260 856 q 130 814 168 840 q 65 735 92 788 m 482 811 q 353 668 411 747 q 264 499 296 589 q 222 272 219 369 q 261 103 225 174 q 358 -4 300 28 q 500 -33 417 -36 q 672 10 593 -29 q 813 112 750 50 q 919 252 875 174 q 992 413 964 331 q 838 492 903 432 q 742 636 774 551 q 724 701 731 668 q 719 769 717 735 q 600 783 656 772 q 482 811 544 794 m 788 771 q 786 691 781 732 q 806 614 792 650 q 834 554 815 586 q 877 494 853 522 q 932 449 901 467 q 997 431 963 431 q 1021 527 1011 475 q 1033 633 1031 579 q 1027 739 1035 688 q 999 832 1019 790 q 981 865 989 853 q 949 824 972 840 q 898 796 926 807 q 840 778 869 785 q 788 771 810 772 m 496 822 q 608 801 553 808 q 722 797 664 793 q 792 903 736 867 q 917 928 847 940 q 901 956 914 939 q 876 976 888 972 q 784 977 838 990 q 676 938 731 964 q 574 880 622 913 q 496 822 525 847 m 799 810 q 835 822 815 814 q 873 841 856 829 q 903 869 890 853 q 919 904 917 885 q 847 872 878 892 q 799 810 817 851 m 801 1131 q 818 1131 808 1132 q 838 1126 828 1129 q 853 1119 847 1124 q 857 1111 858 1115 q 848 1094 856 1107 q 830 1067 840 1081 q 807 1040 819 1053 q 785 1026 794 1028 q 768 1027 779 1025 q 747 1033 757 1029 q 729 1040 736 1036 q 726 1047 722 1044 q 766 1089 754 1067 q 801 1131 778 1111 z "},"":{"ha":1157,"x_min":-1,"x_max":1242,"o":"m 65 735 q 53 735 64 732 q 29 742 42 738 q 8 752 17 747 q 0 760 -1 757 q 78 847 31 821 q 181 878 125 874 q 300 870 238 882 q 425 842 363 858 q 522 915 468 879 q 634 974 575 950 q 755 1005 693 999 q 875 990 817 1011 q 939 958 906 979 q 982 904 972 938 q 1031 865 1013 888 q 1064 810 1049 842 q 1090 724 1082 771 q 1097 630 1097 678 q 1090 534 1097 582 q 1072 446 1082 486 q 1133 482 1106 458 q 1175 538 1161 506 q 1188 538 1176 540 q 1210 531 1199 536 q 1232 522 1222 526 q 1240 514 1242 517 q 1166 434 1217 461 q 1061 404 1115 407 q 989 237 1035 318 q 880 91 943 156 q 736 -15 817 26 q 558 -60 656 -56 q 453 -51 507 -62 q 351 -17 400 -40 q 261 41 301 6 q 196 124 221 76 q 157 294 160 194 q 200 522 154 393 q 287 689 232 611 q 411 829 342 767 q 310 849 360 842 q 214 848 260 856 q 130 814 168 840 q 65 735 92 788 m 482 811 q 353 668 411 747 q 264 499 296 589 q 222 272 219 369 q 261 103 225 174 q 358 -4 300 28 q 500 -33 417 -36 q 672 10 593 -29 q 813 112 750 50 q 919 252 875 174 q 992 413 964 331 q 838 492 903 432 q 742 636 774 551 q 724 701 731 668 q 719 769 717 735 q 600 783 656 772 q 482 811 544 794 m 788 771 q 786 691 781 732 q 806 614 792 650 q 834 554 815 586 q 877 494 853 522 q 932 449 901 467 q 997 431 963 431 q 1021 527 1011 475 q 1033 633 1031 579 q 1027 739 1035 688 q 999 832 1019 790 q 981 865 989 853 q 949 824 972 840 q 898 796 926 807 q 840 778 869 785 q 788 771 810 772 m 496 822 q 608 801 553 808 q 722 797 664 793 q 792 903 736 867 q 917 928 847 940 q 901 956 914 939 q 876 976 888 972 q 784 977 838 990 q 676 938 731 964 q 574 880 622 913 q 496 822 525 847 m 799 810 q 835 822 815 814 q 873 841 856 829 q 903 869 890 853 q 919 904 917 885 q 847 872 878 892 q 799 810 817 851 m 740 1131 q 776 1128 756 1128 q 811 1131 796 1129 q 847 1089 835 1111 q 886 1047 858 1067 q 883 1040 890 1044 q 866 1033 876 1036 q 844 1027 856 1029 q 828 1026 833 1025 q 801 1044 815 1029 q 775 1075 786 1058 q 749 1044 764 1058 q 724 1026 735 1029 q 707 1027 718 1025 q 685 1033 696 1029 q 668 1040 675 1036 q 665 1047 661 1044 q 705 1089 693 1067 q 740 1131 717 1111 z "},"":{"ha":1157,"x_min":-1,"x_max":1242,"o":"m 683 1015 q 671 1015 682 1013 q 648 1023 660 1018 q 626 1033 636 1028 q 619 1040 617 1038 q 682 1096 653 1085 q 736 1101 711 1107 q 783 1079 761 1094 q 822 1056 804 1064 q 856 1053 840 1047 q 885 1097 871 1060 q 897 1098 886 1100 q 921 1091 908 1096 q 942 1081 933 1086 q 950 1072 951 1075 q 905 1015 925 1033 q 867 993 885 997 q 875 990 872 990 q 939 958 906 979 q 982 904 972 938 q 1031 865 1013 888 q 1064 810 1049 842 q 1090 724 1082 771 q 1097 630 1097 678 q 1090 534 1097 582 q 1072 446 1082 486 q 1133 482 1106 458 q 1175 538 1161 506 q 1188 538 1176 540 q 1210 531 1199 536 q 1232 522 1222 526 q 1240 514 1242 517 q 1166 434 1217 461 q 1061 404 1115 407 q 989 237 1035 318 q 880 91 943 156 q 736 -15 817 26 q 558 -60 656 -56 q 453 -51 507 -62 q 351 -17 400 -40 q 261 41 301 6 q 196 124 221 76 q 157 294 160 194 q 200 522 154 393 q 287 689 232 611 q 411 829 342 767 q 310 849 360 842 q 214 848 260 856 q 130 814 168 840 q 65 735 92 788 q 53 735 64 732 q 29 742 42 738 q 8 752 17 747 q 0 760 -1 757 q 78 847 31 821 q 181 878 125 874 q 300 870 238 882 q 425 842 363 858 q 509 907 463 875 q 607 963 556 939 q 713 998 658 986 q 821 1003 768 1010 q 789 1028 804 1014 q 758 1050 774 1043 q 724 1051 742 1057 q 683 1015 706 1046 m 482 811 q 353 668 411 747 q 264 499 296 589 q 222 272 219 369 q 261 103 225 174 q 358 -4 300 28 q 500 -33 417 -36 q 672 10 593 -29 q 813 112 750 50 q 919 252 875 174 q 992 413 964 331 q 838 492 903 432 q 742 636 774 551 q 724 701 731 668 q 719 769 717 735 q 600 783 656 772 q 482 811 544 794 m 788 771 q 786 691 781 732 q 806 614 792 650 q 834 554 815 586 q 877 494 853 522 q 932 449 901 467 q 997 431 963 431 q 1021 527 1011 475 q 1033 633 1031 579 q 1027 739 1035 688 q 999 832 1019 790 q 981 865 989 853 q 949 824 972 840 q 898 796 926 807 q 840 778 869 785 q 788 771 810 772 m 496 822 q 608 801 553 808 q 722 797 664 793 q 792 903 736 867 q 917 928 847 940 q 901 956 914 939 q 876 976 888 972 q 784 977 838 990 q 676 938 731 964 q 574 880 622 913 q 496 822 525 847 m 799 810 q 835 822 815 814 q 873 841 856 829 q 903 869 890 853 q 919 904 917 885 q 847 872 878 892 q 799 810 817 851 z "},"":{"ha":1157,"x_min":-1,"x_max":1242,"o":"m 65 735 q 53 735 64 732 q 29 742 42 738 q 8 752 17 747 q 0 760 -1 757 q 78 847 31 821 q 181 878 125 874 q 300 870 238 882 q 425 842 363 858 q 522 915 468 879 q 634 974 575 950 q 755 1005 693 999 q 875 990 817 1011 q 939 958 906 979 q 982 904 972 938 q 1031 865 1013 888 q 1064 810 1049 842 q 1090 724 1082 771 q 1097 630 1097 678 q 1090 534 1097 582 q 1072 446 1082 486 q 1133 482 1106 458 q 1175 538 1161 506 q 1188 538 1176 540 q 1210 531 1199 536 q 1232 522 1222 526 q 1240 514 1242 517 q 1166 434 1217 461 q 1061 404 1115 407 q 989 237 1035 318 q 880 91 943 156 q 736 -15 817 26 q 558 -60 656 -56 q 453 -51 507 -62 q 351 -17 400 -40 q 261 41 301 6 q 196 124 221 76 q 157 294 160 194 q 200 522 154 393 q 287 689 232 611 q 411 829 342 767 q 310 849 360 842 q 214 848 260 856 q 130 814 168 840 q 65 735 92 788 m 482 811 q 353 668 411 747 q 264 499 296 589 q 222 272 219 369 q 261 103 225 174 q 358 -4 300 28 q 500 -33 417 -36 q 672 10 593 -29 q 813 112 750 50 q 919 252 875 174 q 992 413 964 331 q 838 492 903 432 q 742 636 774 551 q 724 701 731 668 q 719 769 717 735 q 600 783 656 772 q 482 811 544 794 m 788 771 q 786 691 781 732 q 806 614 792 650 q 834 554 815 586 q 877 494 853 522 q 932 449 901 467 q 997 431 963 431 q 1021 527 1011 475 q 1033 633 1031 579 q 1027 739 1035 688 q 999 832 1019 790 q 981 865 989 853 q 949 824 972 840 q 898 796 926 807 q 840 778 869 785 q 788 771 810 772 m 496 822 q 608 801 553 808 q 722 797 664 793 q 792 903 736 867 q 917 928 847 940 q 901 956 914 939 q 876 976 888 972 q 784 977 838 990 q 676 938 731 964 q 574 880 622 913 q 496 822 525 847 m 799 810 q 835 822 815 814 q 873 841 856 829 q 903 869 890 853 q 919 904 917 885 q 847 872 878 892 q 799 810 817 851 m 647 1078 q 672 1110 653 1106 q 706 1101 690 1114 q 722 1081 717 1093 q 711 1053 726 1069 q 692 1044 703 1044 q 670 1050 681 1044 q 653 1063 660 1056 q 647 1078 646 1071 m 832 1078 q 856 1110 838 1106 q 890 1101 875 1114 q 906 1081 901 1093 q 896 1053 911 1069 q 876 1044 888 1044 q 855 1050 865 1044 q 838 1063 844 1056 q 832 1078 831 1071 z "},"":{"ha":1157,"x_min":-1,"x_max":1242,"o":"m 296 -244 q 283 -244 294 -247 q 260 -237 272 -242 q 239 -228 249 -233 q 232 -219 229 -222 q 290 -137 254 -186 q 372 -26 325 -87 q 269 34 315 -3 q 196 124 224 71 q 157 294 160 194 q 200 522 154 393 q 287 689 232 611 q 411 829 342 767 q 310 849 360 842 q 214 848 260 856 q 130 814 168 840 q 65 735 92 788 q 53 735 64 732 q 29 742 42 738 q 8 752 17 747 q 0 760 -1 757 q 78 847 31 821 q 181 878 125 874 q 300 870 238 882 q 425 842 363 858 q 522 915 468 879 q 634 974 575 950 q 755 1005 693 999 q 875 990 817 1011 q 939 958 906 979 q 982 904 972 938 q 1020 875 1004 892 q 1049 839 1036 858 q 1097 899 1074 871 q 1139 951 1119 928 q 1152 952 1140 954 q 1176 945 1164 950 q 1197 935 1188 940 q 1204 926 1206 929 l 1079 771 q 1094 691 1090 733 q 1097 606 1099 649 q 1088 522 1094 564 q 1072 446 1081 481 q 1133 482 1106 458 q 1175 538 1161 506 q 1188 538 1176 540 q 1210 531 1199 536 q 1232 522 1222 526 q 1240 514 1242 517 q 1166 434 1217 461 q 1061 404 1115 407 q 989 237 1035 318 q 880 91 943 156 q 736 -15 817 26 q 558 -60 656 -56 q 440 -47 499 -62 q 356 -160 392 -110 q 296 -244 319 -211 m 482 811 q 353 668 411 747 q 264 499 296 589 q 222 272 219 369 q 261 103 225 174 q 381 -14 307 15 l 547 201 q 674 364 610 281 q 803 528 739 447 q 742 636 763 578 q 724 701 731 668 q 719 769 717 735 q 600 783 656 772 q 482 811 544 794 m 500 -33 q 672 10 593 -29 q 813 112 750 50 q 919 252 875 174 q 992 413 964 331 q 850 481 913 429 q 731 328 790 406 q 613 176 671 251 l 453 -32 q 476 -33 464 -33 q 500 -33 488 -33 m 496 822 q 608 801 553 808 q 722 797 664 793 q 792 903 736 867 q 917 928 847 940 q 901 956 914 939 q 876 976 888 972 q 784 977 838 990 q 676 938 731 964 q 574 880 622 913 q 496 822 525 847 m 788 771 q 786 691 781 732 q 806 614 792 650 q 829 561 814 590 l 1014 794 q 1007 813 1011 804 q 999 832 1003 822 q 981 865 989 853 q 949 824 972 840 q 898 796 926 807 q 840 778 869 785 q 788 771 810 772 m 997 431 q 1026 565 1015 492 q 1031 710 1038 639 l 868 504 q 926 451 893 472 q 997 431 958 429 m 799 810 q 835 822 815 814 q 873 841 856 829 q 903 869 890 853 q 919 904 917 885 q 847 872 878 892 q 799 810 817 851 z "},"":{"ha":972,"x_min":-3,"x_max":1243,"o":"m 874 -1 q 890 -3 878 0 q 913 -10 901 -6 q 933 -19 925 -14 q 938 -26 942 -25 q 894 -48 915 -40 q 854 -56 874 -56 q 789 -40 818 -53 q 740 -1 760 -28 q 740 128 717 31 q 641 34 693 78 q 534 -33 589 -10 q 425 -54 479 -57 q 319 -8 371 -51 q 282 59 290 17 q 278 153 274 101 q 299 261 283 204 q 333 371 314 318 q 373 468 353 424 q 406 540 393 513 q 504 731 453 640 q 596 879 556 821 q 480 929 542 901 q 356 971 418 957 q 232 974 293 985 q 119 907 171 963 q 85 854 99 883 q 67 794 71 825 q 69 732 63 763 q 97 675 76 701 q 115 656 108 661 q 128 647 121 650 q 141 642 128 647 q 167 632 154 638 q 185 622 179 626 q 178 619 192 618 q 95 644 133 624 q 33 696 57 664 q 5 753 13 722 q 1 817 -3 785 q 19 878 6 849 q 56 932 33 908 q 182 1003 111 992 q 327 997 253 1014 q 474 949 401 981 q 604 892 546 917 q 624 918 613 903 q 649 947 635 933 q 676 971 663 961 q 704 982 690 981 q 778 957 744 986 q 785 926 792 944 q 768 896 779 907 q 719 865 747 875 q 664 860 692 856 q 619 792 643 831 q 570 708 596 753 q 519 615 544 664 q 469 515 493 567 q 440 447 457 488 q 404 360 422 407 q 372 263 386 314 q 349 165 357 213 q 341 76 340 118 q 357 4 342 35 q 381 -23 368 -17 q 411 -26 394 -29 q 516 14 461 -22 q 622 98 571 50 q 717 197 674 146 q 788 281 760 247 q 824 374 799 313 q 883 508 850 435 q 955 659 917 581 q 1031 806 993 738 q 1102 924 1068 874 q 1160 992 1136 975 q 1183 995 1168 997 q 1211 985 1197 993 q 1234 965 1225 978 q 1239 933 1243 951 q 1213 858 1232 906 q 1164 753 1193 811 q 1096 628 1133 694 q 1014 490 1058 561 q 938 377 978 433 q 857 268 899 321 q 847 243 851 256 q 839 218 843 231 q 797 65 808 131 q 807 -26 786 0 q 824 -25 814 -28 q 843 -18 833 -22 q 861 -9 853 -14 q 874 -1 869 -4 m 942 490 q 1053 688 999 585 q 1156 890 1108 790 q 1046 692 1101 796 q 942 490 990 588 m 940 1131 q 976 1089 964 1111 q 1015 1047 988 1067 q 1013 1040 1019 1044 q 995 1033 1006 1036 q 974 1027 985 1029 q 957 1026 963 1025 q 934 1040 946 1028 q 912 1067 922 1053 q 894 1094 901 1081 q 885 1111 886 1107 q 889 1119 883 1115 q 904 1126 894 1124 q 924 1131 914 1129 q 940 1131 933 1132 z "},"":{"ha":972,"x_min":-3,"x_max":1243,"o":"m 874 -1 q 890 -3 878 0 q 913 -10 901 -6 q 933 -19 925 -14 q 938 -26 942 -25 q 894 -48 915 -40 q 854 -56 874 -56 q 789 -40 818 -53 q 740 -1 760 -28 q 740 128 717 31 q 641 34 693 78 q 534 -33 589 -10 q 425 -54 479 -57 q 319 -8 371 -51 q 282 59 290 17 q 278 153 274 101 q 299 261 283 204 q 333 371 314 318 q 373 468 353 424 q 406 540 393 513 q 504 731 453 640 q 596 879 556 821 q 480 929 542 901 q 356 971 418 957 q 232 974 293 985 q 119 907 171 963 q 85 854 99 883 q 67 794 71 825 q 69 732 63 763 q 97 675 76 701 q 115 656 108 661 q 128 647 121 650 q 141 642 128 647 q 167 632 154 638 q 185 622 179 626 q 178 619 192 618 q 95 644 133 624 q 33 696 57 664 q 5 753 13 722 q 1 817 -3 785 q 19 878 6 849 q 56 932 33 908 q 182 1003 111 992 q 327 997 253 1014 q 474 949 401 981 q 604 892 546 917 q 624 918 613 903 q 649 947 635 933 q 676 971 663 961 q 704 982 690 981 q 778 957 744 986 q 785 926 792 944 q 768 896 779 907 q 719 865 747 875 q 664 860 692 856 q 619 792 643 831 q 570 708 596 753 q 519 615 544 664 q 469 515 493 567 q 440 447 457 488 q 404 360 422 407 q 372 263 386 314 q 349 165 357 213 q 341 76 340 118 q 357 4 342 35 q 381 -23 368 -17 q 411 -26 394 -29 q 516 14 461 -22 q 622 98 571 50 q 717 197 674 146 q 788 281 760 247 q 824 374 799 313 q 883 508 850 435 q 955 659 917 581 q 1031 806 993 738 q 1102 924 1068 874 q 1160 992 1136 975 q 1183 995 1168 997 q 1211 985 1197 993 q 1234 965 1225 978 q 1239 933 1243 951 q 1213 858 1232 906 q 1164 753 1193 811 q 1096 628 1133 694 q 1014 490 1058 561 q 938 377 978 433 q 857 268 899 321 q 847 243 851 256 q 839 218 843 231 q 797 65 808 131 q 807 -26 786 0 q 824 -25 814 -28 q 843 -18 833 -22 q 861 -9 853 -14 q 874 -1 869 -4 m 942 490 q 1053 688 999 585 q 1156 890 1108 790 q 1046 692 1101 796 q 942 490 990 588 m 971 1131 q 988 1131 978 1132 q 1007 1126 997 1129 q 1022 1119 1017 1124 q 1026 1111 1028 1115 q 1017 1094 1025 1107 q 999 1067 1010 1081 q 976 1040 989 1053 q 954 1026 964 1028 q 938 1027 949 1025 q 916 1033 926 1029 q 899 1040 906 1036 q 896 1047 892 1044 q 935 1089 924 1067 q 971 1131 947 1111 z "},"":{"ha":972,"x_min":-3,"x_max":1243,"o":"m 874 -1 q 890 -3 878 0 q 913 -10 901 -6 q 933 -19 925 -14 q 938 -26 942 -25 q 894 -48 915 -40 q 854 -56 874 -56 q 789 -40 818 -53 q 740 -1 760 -28 q 740 128 717 31 q 641 34 693 78 q 534 -33 589 -10 q 425 -54 479 -57 q 319 -8 371 -51 q 282 59 290 17 q 278 153 274 101 q 299 261 283 204 q 333 371 314 318 q 373 468 353 424 q 406 540 393 513 q 504 731 453 640 q 596 879 556 821 q 480 929 542 901 q 356 971 418 957 q 232 974 293 985 q 119 907 171 963 q 85 854 99 883 q 67 794 71 825 q 69 732 63 763 q 97 675 76 701 q 115 656 108 661 q 128 647 121 650 q 141 642 128 647 q 167 632 154 638 q 185 622 179 626 q 178 619 192 618 q 95 644 133 624 q 33 696 57 664 q 5 753 13 722 q 1 817 -3 785 q 19 878 6 849 q 56 932 33 908 q 182 1003 111 992 q 327 997 253 1014 q 474 949 401 981 q 604 892 546 917 q 624 918 613 903 q 649 947 635 933 q 676 971 663 961 q 704 982 690 981 q 778 957 744 986 q 785 926 792 944 q 768 896 779 907 q 719 865 747 875 q 664 860 692 856 q 619 792 643 831 q 570 708 596 753 q 519 615 544 664 q 469 515 493 567 q 440 447 457 488 q 404 360 422 407 q 372 263 386 314 q 349 165 357 213 q 341 76 340 118 q 357 4 342 35 q 381 -23 368 -17 q 411 -26 394 -29 q 516 14 461 -22 q 622 98 571 50 q 717 197 674 146 q 788 281 760 247 q 824 374 799 313 q 883 508 850 435 q 955 659 917 581 q 1031 806 993 738 q 1102 924 1068 874 q 1160 992 1136 975 q 1183 995 1168 997 q 1211 985 1197 993 q 1234 965 1225 978 q 1239 933 1243 951 q 1213 858 1232 906 q 1164 753 1193 811 q 1096 628 1133 694 q 1014 490 1058 561 q 938 377 978 433 q 857 268 899 321 q 847 243 851 256 q 839 218 843 231 q 797 65 808 131 q 807 -26 786 0 q 824 -25 814 -28 q 843 -18 833 -22 q 861 -9 853 -14 q 874 -1 869 -4 m 942 490 q 1053 688 999 585 q 1156 890 1108 790 q 1046 692 1101 796 q 942 490 990 588 m 914 1131 q 949 1128 929 1128 q 985 1131 969 1129 q 1020 1089 1008 1111 q 1060 1047 1032 1067 q 1057 1040 1064 1044 q 1040 1033 1050 1036 q 1018 1027 1029 1029 q 1001 1026 1007 1025 q 974 1044 989 1029 q 949 1075 960 1058 q 923 1044 938 1058 q 897 1026 908 1029 q 881 1027 892 1025 q 859 1033 869 1029 q 842 1040 849 1036 q 839 1047 835 1044 q 878 1089 867 1067 q 914 1131 890 1111 z "},"":{"ha":972,"x_min":-3,"x_max":1243,"o":"m 874 -1 q 890 -3 878 0 q 913 -10 901 -6 q 933 -19 925 -14 q 938 -26 942 -25 q 894 -48 915 -40 q 854 -56 874 -56 q 789 -40 818 -53 q 740 -1 760 -28 q 740 128 717 31 q 641 34 693 78 q 534 -33 589 -10 q 425 -54 479 -57 q 319 -8 371 -51 q 282 59 290 17 q 278 153 274 101 q 299 261 283 204 q 333 371 314 318 q 373 468 353 424 q 406 540 393 513 q 504 731 453 640 q 596 879 556 821 q 480 929 542 901 q 356 971 418 957 q 232 974 293 985 q 119 907 171 963 q 85 854 99 883 q 67 794 71 825 q 69 732 63 763 q 97 675 76 701 q 115 656 108 661 q 128 647 121 650 q 141 642 128 647 q 167 632 154 638 q 185 622 179 626 q 178 619 192 618 q 95 644 133 624 q 33 696 57 664 q 5 753 13 722 q 1 817 -3 785 q 19 878 6 849 q 56 932 33 908 q 182 1003 111 992 q 327 997 253 1014 q 474 949 401 981 q 604 892 546 917 q 624 918 613 903 q 649 947 635 933 q 676 971 663 961 q 704 982 690 981 q 778 957 744 986 q 785 926 792 944 q 768 896 779 907 q 719 865 747 875 q 664 860 692 856 q 619 792 643 831 q 570 708 596 753 q 519 615 544 664 q 469 515 493 567 q 440 447 457 488 q 404 360 422 407 q 372 263 386 314 q 349 165 357 213 q 341 76 340 118 q 357 4 342 35 q 381 -23 368 -17 q 411 -26 394 -29 q 516 14 461 -22 q 622 98 571 50 q 717 197 674 146 q 788 281 760 247 q 824 374 799 313 q 883 508 850 435 q 955 659 917 581 q 1031 806 993 738 q 1102 924 1068 874 q 1160 992 1136 975 q 1183 995 1168 997 q 1211 985 1197 993 q 1234 965 1225 978 q 1239 933 1243 951 q 1213 858 1232 906 q 1164 753 1193 811 q 1096 628 1133 694 q 1014 490 1058 561 q 938 377 978 433 q 857 268 899 321 q 847 243 851 256 q 839 218 843 231 q 797 65 808 131 q 807 -26 786 0 q 824 -25 814 -28 q 843 -18 833 -22 q 861 -9 853 -14 q 874 -1 869 -4 m 942 490 q 1053 688 999 585 q 1156 890 1108 790 q 1046 692 1101 796 q 942 490 990 588 m 840 1078 q 865 1110 846 1106 q 899 1101 883 1114 q 915 1081 910 1093 q 904 1053 919 1069 q 885 1044 896 1044 q 863 1050 874 1044 q 846 1063 853 1056 q 840 1078 839 1071 m 1025 1078 q 1049 1110 1031 1106 q 1083 1101 1068 1114 q 1099 1081 1094 1093 q 1089 1053 1104 1069 q 1069 1044 1081 1044 q 1048 1050 1058 1044 q 1031 1063 1038 1056 q 1025 1078 1024 1071 z "},"":{"ha":996,"x_min":-3,"x_max":1232,"o":"m 178 619 q 95 644 133 624 q 33 694 57 664 q 5 753 13 721 q 1 817 -3 785 q 19 878 6 849 q 56 932 33 908 q 114 976 81 958 q 186 1000 147 993 q 301 1001 249 1010 q 404 975 354 993 q 503 933 454 957 q 604 892 551 910 q 623 917 613 903 q 646 945 633 932 q 672 968 658 958 q 700 982 686 978 q 719 981 706 983 q 748 974 733 979 q 774 959 763 968 q 786 940 786 950 q 783 918 788 931 q 768 894 779 906 q 719 865 747 875 q 663 860 692 854 q 574 723 622 803 q 486 554 526 643 q 430 418 454 486 q 396 290 406 350 q 393 185 386 232 q 432 113 400 139 q 533 120 479 99 q 640 185 586 142 q 744 284 693 228 q 838 394 796 340 q 912 494 881 449 q 957 563 943 540 l 963 571 l 986 638 q 1039 785 1014 717 q 1088 902 1064 854 q 1136 974 1113 950 q 1185 989 1160 997 q 1224 931 1232 974 q 1199 863 1217 904 q 1156 768 1182 821 q 1098 662 1131 718 q 1028 546 1065 606 q 971 385 1003 476 q 897 198 939 294 q 805 7 856 101 q 694 -165 754 -87 q 561 -295 633 -243 q 406 -358 489 -347 q 239 -324 318 -368 q 181 -269 200 -303 q 168 -190 161 -235 q 19 -64 67 -157 q 26 -61 17 -60 q 47 -66 35 -62 q 71 -75 60 -69 q 85 -85 82 -81 q 99 -110 90 -96 q 120 -139 108 -125 q 145 -163 132 -153 q 171 -176 158 -174 q 199 -110 178 -144 q 256 -40 219 -76 q 327 -3 289 -8 q 422 -37 365 3 q 431 -72 435 -53 q 416 -108 428 -90 q 389 -141 404 -125 q 364 -165 374 -157 q 235 -204 306 -211 q 233 -239 232 -219 q 241 -276 235 -258 q 257 -308 247 -293 q 281 -328 267 -322 q 376 -326 328 -339 q 472 -285 425 -314 q 560 -217 518 -257 q 635 -135 601 -176 q 710 -24 675 -83 q 775 97 744 35 q 831 222 806 158 q 881 346 857 285 q 764 223 824 279 q 644 132 704 167 q 525 88 583 97 q 413 103 467 78 q 372 128 386 117 q 329 205 338 157 q 331 314 321 253 q 365 442 342 375 q 421 578 389 510 q 508 744 461 665 q 596 879 556 824 q 510 917 551 897 q 428 953 469 938 q 343 975 388 968 q 247 974 299 982 q 119 906 171 961 q 85 853 99 882 q 67 794 71 825 q 69 732 63 763 q 97 675 76 701 q 113 656 107 661 q 126 647 119 650 q 165 632 150 638 q 185 622 178 626 q 178 619 192 617 m 246 -169 q 286 -148 264 -162 q 327 -115 308 -133 q 357 -74 346 -96 q 365 -33 368 -53 q 330 -56 349 -40 q 295 -92 311 -72 q 266 -132 279 -111 q 246 -169 253 -153 m 989 1131 q 1006 1131 996 1132 q 1025 1126 1015 1129 q 1040 1119 1035 1124 q 1044 1111 1046 1115 q 1035 1094 1043 1107 q 1017 1067 1028 1081 q 994 1040 1007 1053 q 972 1026 982 1028 q 956 1027 967 1025 q 934 1033 944 1029 q 917 1040 924 1036 q 914 1047 910 1044 q 953 1089 942 1067 q 989 1131 965 1111 z "},"":{"ha":410,"x_min":-3,"x_max":471,"o":"m 269 618 q 305 576 293 599 q 344 535 317 554 q 342 528 349 532 q 324 520 335 524 q 303 515 314 517 q 286 514 292 513 q 263 528 275 515 q 241 554 251 540 q 223 581 231 568 q 214 599 215 594 q 218 607 213 603 q 233 614 224 611 q 253 618 243 617 q 269 618 263 619 m 365 324 q 354 323 364 321 q 333 329 344 325 q 312 339 321 333 q 304 347 303 344 q 311 421 322 396 q 282 413 296 418 q 190 348 238 393 q 107 235 142 303 q 85 182 96 211 q 69 123 75 153 q 61 64 63 93 q 68 10 60 35 q 129 56 99 22 q 187 128 160 89 q 237 208 214 168 q 275 278 260 249 q 287 278 276 281 q 308 271 297 275 q 328 262 319 267 q 336 254 338 257 q 311 199 326 236 q 284 122 296 163 q 269 44 272 81 q 283 -11 267 7 q 355 33 324 0 q 410 100 386 67 q 422 100 411 103 q 443 93 432 97 q 463 84 454 89 q 469 76 471 79 q 420 16 450 49 q 358 -31 390 -17 q 293 -34 331 -43 q 231 -1 256 -25 q 215 24 219 10 q 208 54 210 38 q 168 11 193 35 q 117 -19 143 -12 q 69 -15 100 -24 q 13 19 39 -7 q -1 60 0 35 q 1 114 -3 86 q 13 168 6 142 q 26 211 21 194 q 64 286 39 244 q 123 364 89 328 q 197 424 157 400 q 278 447 238 449 q 367 410 333 443 q 365 324 388 383 z "},"":{"ha":410,"x_min":-3,"x_max":471,"o":"m 318 618 q 335 618 325 619 q 354 614 344 617 q 369 607 364 611 q 374 599 375 603 q 365 581 372 594 q 347 554 357 568 q 324 528 336 540 q 301 514 311 515 q 285 515 296 513 q 263 520 274 517 q 246 528 253 524 q 243 535 239 532 q 283 576 271 554 q 318 618 294 599 m 365 324 q 354 323 364 321 q 333 329 344 325 q 312 339 321 333 q 304 347 303 344 q 311 421 322 396 q 282 413 296 418 q 190 348 238 393 q 107 235 142 303 q 85 182 96 211 q 69 123 75 153 q 61 64 63 93 q 68 10 60 35 q 129 56 99 22 q 187 128 160 89 q 237 208 214 168 q 275 278 260 249 q 287 278 276 281 q 308 271 297 275 q 328 262 319 267 q 336 254 338 257 q 311 199 326 236 q 284 122 296 163 q 269 44 272 81 q 283 -11 267 7 q 355 33 324 0 q 410 100 386 67 q 422 100 411 103 q 443 93 432 97 q 463 84 454 89 q 469 76 471 79 q 420 16 450 49 q 358 -31 390 -17 q 293 -34 331 -43 q 231 -1 256 -25 q 215 24 219 10 q 208 54 210 38 q 168 11 193 35 q 117 -19 143 -12 q 69 -15 100 -24 q 13 19 39 -7 q -1 60 0 35 q 1 114 -3 86 q 13 168 6 142 q 26 211 21 194 q 64 286 39 244 q 123 364 89 328 q 197 424 157 400 q 278 447 238 449 q 367 410 333 443 q 365 324 388 383 z "},"":{"ha":410,"x_min":-3,"x_max":471,"o":"m 365 324 q 354 323 364 321 q 333 329 344 325 q 312 339 321 333 q 304 347 303 344 q 311 421 322 396 q 282 413 296 418 q 190 348 238 393 q 107 235 142 303 q 85 182 96 211 q 69 123 75 153 q 61 64 63 93 q 68 10 60 35 q 129 56 99 22 q 187 128 160 89 q 237 208 214 168 q 275 278 260 249 q 287 278 276 281 q 308 271 297 275 q 328 262 319 267 q 336 254 338 257 q 311 199 326 236 q 284 122 296 163 q 269 44 272 81 q 283 -11 267 7 q 355 33 324 0 q 410 100 386 67 q 422 100 411 103 q 443 93 432 97 q 463 84 454 89 q 469 76 471 79 q 420 16 450 49 q 358 -31 390 -17 q 293 -34 331 -43 q 231 -1 256 -25 q 215 24 219 10 q 208 54 210 38 q 168 11 193 35 q 117 -19 143 -12 q 69 -15 100 -24 q 13 19 39 -7 q -1 60 0 35 q 1 114 -3 86 q 13 168 6 142 q 26 211 21 194 q 64 286 39 244 q 123 364 89 328 q 197 424 157 400 q 278 447 238 449 q 367 410 333 443 q 365 324 388 383 m 256 613 q 291 610 271 610 q 326 613 311 611 q 362 571 350 593 q 401 529 374 549 q 399 522 406 526 q 381 515 392 518 q 360 509 371 511 q 343 508 349 507 q 316 526 331 511 q 290 557 301 540 q 265 526 279 540 q 239 508 250 511 q 222 509 233 507 q 201 515 211 511 q 183 522 190 518 q 181 529 176 526 q 220 571 208 549 q 256 613 232 593 z "},"":{"ha":410,"x_min":-3,"x_max":471,"o":"m 365 324 q 354 323 364 321 q 333 329 344 325 q 312 339 321 333 q 304 347 303 344 q 311 421 322 396 q 282 413 296 418 q 190 348 238 393 q 107 235 142 303 q 85 182 96 211 q 69 123 75 153 q 61 64 63 93 q 68 10 60 35 q 129 56 99 22 q 187 128 160 89 q 237 208 214 168 q 275 278 260 249 q 287 278 276 281 q 308 271 297 275 q 328 262 319 267 q 336 254 338 257 q 311 199 326 236 q 284 122 296 163 q 269 44 272 81 q 283 -11 267 7 q 355 33 324 0 q 410 100 386 67 q 422 100 411 103 q 443 93 432 97 q 463 84 454 89 q 469 76 471 79 q 420 16 450 49 q 358 -31 390 -17 q 293 -34 331 -43 q 231 -1 256 -25 q 215 24 219 10 q 208 54 210 38 q 168 11 193 35 q 117 -19 143 -12 q 69 -15 100 -24 q 13 19 39 -7 q -1 60 0 35 q 1 114 -3 86 q 13 168 6 142 q 26 211 21 194 q 64 286 39 244 q 123 364 89 328 q 197 424 157 400 q 278 447 238 449 q 367 410 333 443 q 365 324 388 383 m 203 514 q 190 514 201 511 q 167 522 179 517 q 146 531 156 526 q 139 539 136 536 q 201 594 172 583 q 256 599 231 606 q 302 578 281 593 q 342 554 324 563 q 375 552 360 546 q 404 596 390 558 q 417 597 406 599 q 440 590 428 594 q 462 579 453 585 q 469 571 471 574 q 409 501 435 517 q 363 492 383 486 q 324 515 342 497 q 288 544 306 532 q 249 552 269 556 q 203 514 229 549 z "},"":{"ha":410,"x_min":-3,"x_max":471,"o":"m 365 324 q 354 323 364 321 q 333 329 344 325 q 312 339 321 333 q 304 347 303 344 q 311 421 322 396 q 282 413 296 418 q 190 348 238 393 q 107 235 142 303 q 85 182 96 211 q 69 123 75 153 q 61 64 63 93 q 68 10 60 35 q 129 56 99 22 q 187 128 160 89 q 237 208 214 168 q 275 278 260 249 q 287 278 276 281 q 308 271 297 275 q 328 262 319 267 q 336 254 338 257 q 311 199 326 236 q 284 122 296 163 q 269 44 272 81 q 283 -11 267 7 q 355 33 324 0 q 410 100 386 67 q 422 100 411 103 q 443 93 432 97 q 463 84 454 89 q 469 76 471 79 q 420 16 450 49 q 358 -31 390 -17 q 293 -34 331 -43 q 231 -1 256 -25 q 215 24 219 10 q 208 54 210 38 q 168 11 193 35 q 117 -19 143 -12 q 69 -15 100 -24 q 13 19 39 -7 q -1 60 0 35 q 1 114 -3 86 q 13 168 6 142 q 26 211 21 194 q 64 286 39 244 q 123 364 89 328 q 197 424 157 400 q 278 447 238 449 q 367 410 333 443 q 365 324 388 383 m 161 565 q 185 597 167 593 q 219 589 204 601 q 235 569 231 581 q 225 540 240 557 q 206 532 217 532 q 184 538 194 532 q 167 551 174 543 q 161 565 160 558 m 346 565 q 370 597 351 593 q 404 589 389 601 q 420 569 415 581 q 410 540 425 557 q 390 532 401 532 q 369 538 379 532 q 351 551 358 543 q 346 565 344 558 z "},"":{"ha":410,"x_min":-3,"x_max":471,"o":"m 285 575 q 290 560 283 568 q 308 547 297 553 q 329 542 318 542 q 349 550 340 542 q 359 578 364 567 q 343 599 354 590 q 309 607 328 611 q 285 575 290 603 m 250 579 q 269 619 256 606 q 298 638 282 633 q 331 638 314 643 q 364 622 349 633 q 392 582 386 607 q 371 525 399 557 q 333 509 356 510 q 292 517 311 508 q 259 543 272 526 q 250 579 246 560 m 365 324 q 354 323 364 321 q 333 329 344 325 q 312 339 321 333 q 304 347 303 344 q 311 421 322 396 q 282 413 296 418 q 190 348 238 393 q 107 235 142 303 q 85 182 96 211 q 69 123 75 153 q 61 64 63 93 q 68 10 60 35 q 129 56 99 22 q 187 128 160 89 q 237 208 214 168 q 275 278 260 249 q 287 278 276 281 q 308 271 297 275 q 328 262 319 267 q 336 254 338 257 q 311 199 326 236 q 284 122 296 163 q 269 44 272 81 q 283 -11 267 7 q 355 33 324 0 q 410 100 386 67 q 422 100 411 103 q 443 93 432 97 q 463 84 454 89 q 469 76 471 79 q 420 16 450 49 q 358 -31 390 -17 q 293 -34 331 -43 q 231 -1 256 -25 q 215 24 219 10 q 208 54 210 38 q 168 11 193 35 q 117 -19 143 -12 q 69 -15 100 -24 q 13 19 39 -7 q -1 60 0 35 q 1 114 -3 86 q 13 168 6 142 q 26 211 21 194 q 64 286 39 244 q 123 364 89 328 q 197 424 157 400 q 278 447 238 449 q 367 410 333 443 q 365 324 388 383 z "},"":{"ha":726,"x_min":-3,"x_max":789,"o":"m 365 324 q 354 323 364 321 q 333 329 344 325 q 312 339 321 333 q 304 347 303 344 q 311 421 322 396 q 282 413 296 418 q 190 348 238 393 q 107 235 142 303 q 85 182 96 211 q 69 123 75 153 q 61 64 63 93 q 68 10 60 35 q 129 56 99 22 q 187 128 160 89 q 237 208 214 168 q 275 278 260 249 q 287 278 276 281 q 308 271 297 275 q 328 262 319 267 q 336 254 338 257 q 311 199 326 236 q 284 122 296 163 q 269 44 272 81 q 283 -11 267 7 q 347 24 315 -3 q 413 81 379 50 q 412 145 406 113 q 429 210 418 178 q 488 320 449 264 q 574 411 526 376 q 628 435 599 431 q 690 429 658 440 q 739 400 726 417 q 744 355 753 383 q 713 293 735 326 q 658 224 690 260 q 591 157 625 189 q 526 100 557 125 q 474 63 494 75 q 492 17 478 38 q 537 -19 513 -15 q 597 -7 561 -22 q 631 11 613 -1 q 667 39 650 24 q 701 70 685 54 q 726 100 717 86 q 738 100 728 103 q 760 93 749 97 q 781 84 772 89 q 788 76 789 79 q 761 47 776 63 q 728 15 746 31 q 691 -12 710 0 q 656 -32 672 -25 q 604 -43 632 -42 q 549 -38 576 -44 q 497 -19 522 -32 q 453 11 471 -6 l 438 28 q 358 -31 403 -11 q 293 -34 331 -43 q 231 -1 256 -25 q 215 24 219 10 q 208 54 210 38 q 168 11 193 35 q 117 -19 143 -12 q 69 -15 100 -24 q 13 19 39 -7 q -1 60 0 35 q 1 114 -3 86 q 13 168 6 142 q 26 211 21 194 q 64 286 39 244 q 123 364 89 328 q 197 424 157 400 q 278 447 238 449 q 367 410 333 443 q 365 324 388 383 m 683 413 q 663 404 676 410 q 633 386 650 399 q 589 347 610 369 q 549 297 568 324 q 515 242 531 271 q 490 188 500 214 q 482 164 486 176 q 475 136 478 151 q 551 200 510 163 q 625 277 592 238 q 677 353 658 317 q 683 413 696 389 z "},"":{"ha":233,"x_min":-6,"x_max":304,"o":"m 215 290 q 199 292 211 289 q 176 300 188 294 q 158 310 164 306 q 157 315 153 314 q 214 344 194 326 q 239 379 233 361 q 238 410 243 397 q 160 353 196 394 q 101 260 125 313 q 66 151 76 207 q 65 51 56 96 q 104 -10 74 8 q 175 31 144 0 q 233 100 206 61 q 245 100 235 103 q 267 93 256 97 q 288 84 279 89 q 294 76 296 79 q 247 19 271 44 q 199 -21 222 -6 q 131 -33 169 -40 q 131 -42 131 -39 q 129 -51 131 -44 q 177 -65 156 -54 q 209 -90 199 -75 q 217 -126 219 -106 q 196 -171 215 -147 q 163 -193 183 -186 q 119 -199 142 -200 q 74 -192 96 -199 q 39 -172 53 -185 q 42 -164 38 -171 q 53 -150 47 -157 q 66 -138 60 -143 q 74 -133 72 -133 q 90 -145 79 -140 q 112 -153 100 -150 q 134 -156 124 -157 q 150 -149 144 -156 q 156 -124 160 -135 q 141 -106 153 -112 q 113 -100 129 -100 q 85 -107 97 -100 q 80 -101 81 -110 q 80 -78 79 -92 q 82 -48 81 -64 q 83 -19 83 -32 q 24 28 46 -3 q 4 72 8 47 q 1 165 -6 115 q 28 263 8 215 q 77 351 47 311 q 143 417 107 392 q 201 435 171 436 q 260 422 232 435 q 299 389 290 408 q 300 357 304 376 q 274 319 293 338 q 215 290 254 301 z "},"":{"ha":317,"x_min":-1,"x_max":379,"o":"m 275 618 q 292 618 282 619 q 311 614 301 617 q 326 607 321 611 q 331 599 332 603 q 322 581 329 594 q 303 554 314 568 q 281 528 293 540 q 258 514 268 515 q 242 515 253 513 q 220 520 231 517 q 203 528 210 524 q 200 535 196 532 q 240 576 228 554 q 275 618 251 599 m 139 139 q 124 140 135 138 q 101 148 113 143 q 83 158 90 153 q 79 164 75 163 q 140 204 101 175 q 214 270 179 233 q 269 345 249 307 q 274 413 289 383 q 253 404 267 410 q 224 386 240 399 q 179 347 200 369 q 140 297 158 324 q 106 242 121 271 q 81 188 90 214 q 69 151 75 172 q 62 108 64 131 q 64 63 60 86 q 82 17 68 39 q 127 -19 103 -15 q 188 -7 151 -22 q 222 11 203 -1 q 258 39 240 24 q 291 70 275 54 q 317 100 307 86 q 328 100 318 103 q 351 93 339 97 q 371 84 363 89 q 378 76 379 79 q 351 47 367 63 q 318 15 336 31 q 281 -12 300 0 q 246 -32 263 -25 q 194 -43 222 -42 q 140 -38 167 -44 q 87 -19 113 -32 q 43 11 61 -6 q 12 54 22 31 q 0 104 1 78 q 4 157 -1 131 q 19 210 10 183 q 78 320 39 264 q 164 411 117 376 q 219 435 189 431 q 281 429 249 440 q 329 400 317 417 q 340 358 343 382 q 320 307 336 333 q 280 253 304 281 q 230 203 256 226 q 180 163 204 181 q 139 139 156 146 z "},"":{"ha":317,"x_min":-1,"x_max":379,"o":"m 267 618 q 302 576 290 599 q 342 535 314 554 q 339 528 346 532 q 322 520 332 524 q 300 515 311 517 q 283 514 289 513 q 260 528 272 515 q 238 554 249 540 q 220 581 228 568 q 211 599 213 594 q 215 607 210 603 q 231 614 221 611 q 250 618 240 617 q 267 618 260 619 m 139 139 q 124 140 135 138 q 101 148 113 143 q 83 158 90 153 q 79 164 75 163 q 140 204 101 175 q 214 270 179 233 q 269 345 249 307 q 274 413 289 383 q 253 404 267 410 q 224 386 240 399 q 179 347 200 369 q 140 297 158 324 q 106 242 121 271 q 81 188 90 214 q 69 151 75 172 q 62 108 64 131 q 64 63 60 86 q 82 17 68 39 q 127 -19 103 -15 q 188 -7 151 -22 q 222 11 203 -1 q 258 39 240 24 q 291 70 275 54 q 317 100 307 86 q 328 100 318 103 q 351 93 339 97 q 371 84 363 89 q 378 76 379 79 q 351 47 367 63 q 318 15 336 31 q 281 -12 300 0 q 246 -32 263 -25 q 194 -43 222 -42 q 140 -38 167 -44 q 87 -19 113 -32 q 43 11 61 -6 q 12 54 22 31 q 0 104 1 78 q 4 157 -1 131 q 19 210 10 183 q 78 320 39 264 q 164 411 117 376 q 219 435 189 431 q 281 429 249 440 q 329 400 317 417 q 340 358 343 382 q 320 307 336 333 q 280 253 304 281 q 230 203 256 226 q 180 163 204 181 q 139 139 156 146 z "},"":{"ha":317,"x_min":-1,"x_max":386,"o":"m 139 139 q 124 140 135 138 q 101 148 113 143 q 83 158 90 153 q 79 164 75 163 q 140 204 101 175 q 214 270 179 233 q 269 345 249 307 q 274 413 289 383 q 253 404 267 410 q 224 386 240 399 q 179 347 200 369 q 140 297 158 324 q 106 242 121 271 q 81 188 90 214 q 69 151 75 172 q 62 108 64 131 q 64 63 60 86 q 82 17 68 39 q 127 -19 103 -15 q 188 -7 151 -22 q 222 11 203 -1 q 258 39 240 24 q 291 70 275 54 q 317 100 307 86 q 328 100 318 103 q 351 93 339 97 q 371 84 363 89 q 378 76 379 79 q 351 47 367 63 q 318 15 336 31 q 281 -12 300 0 q 246 -32 263 -25 q 194 -43 222 -42 q 140 -38 167 -44 q 87 -19 113 -32 q 43 11 61 -6 q 12 54 22 31 q 0 104 1 78 q 4 157 -1 131 q 19 210 10 183 q 78 320 39 264 q 164 411 117 376 q 219 435 189 431 q 281 429 249 440 q 329 400 317 417 q 340 358 343 382 q 320 307 336 333 q 280 253 304 281 q 230 203 256 226 q 180 163 204 181 q 139 139 156 146 m 236 611 q 272 609 251 608 q 307 611 292 610 q 342 569 331 592 q 382 528 354 547 q 379 521 386 525 q 362 513 372 517 q 340 508 351 510 q 324 507 329 506 q 297 524 311 510 q 271 556 282 539 q 245 524 260 539 q 219 507 231 510 q 203 508 214 506 q 181 513 192 510 q 164 521 171 517 q 161 528 157 525 q 201 569 189 547 q 236 611 213 592 z "},"":{"ha":317,"x_min":-1,"x_max":421,"o":"m 139 139 q 124 140 135 138 q 101 148 113 143 q 83 158 90 153 q 79 164 75 163 q 140 204 101 175 q 214 270 179 233 q 269 345 249 307 q 274 413 289 383 q 253 404 267 410 q 224 386 240 399 q 179 347 200 369 q 140 297 158 324 q 106 242 121 271 q 81 188 90 214 q 69 151 75 172 q 62 108 64 131 q 64 63 60 86 q 82 17 68 39 q 127 -19 103 -15 q 188 -7 151 -22 q 222 11 203 -1 q 258 39 240 24 q 291 70 275 54 q 317 100 307 86 q 328 100 318 103 q 351 93 339 97 q 371 84 363 89 q 378 76 379 79 q 351 47 367 63 q 318 15 336 31 q 281 -12 300 0 q 246 -32 263 -25 q 194 -43 222 -42 q 140 -38 167 -44 q 87 -19 113 -32 q 43 11 61 -6 q 12 54 22 31 q 0 104 1 78 q 4 157 -1 131 q 19 210 10 183 q 78 320 39 264 q 164 411 117 376 q 219 435 189 431 q 281 429 249 440 q 329 400 317 417 q 340 358 343 382 q 320 307 336 333 q 280 253 304 281 q 230 203 256 226 q 180 163 204 181 q 139 139 156 146 m 157 544 q 181 576 163 572 q 215 568 200 581 q 231 548 226 560 q 221 519 236 536 q 201 511 213 511 q 180 517 190 511 q 163 530 169 522 q 157 544 156 538 m 342 544 q 366 576 347 572 q 400 568 385 581 q 416 548 411 560 q 406 519 421 536 q 386 511 397 511 q 365 517 375 511 q 347 530 354 522 q 342 544 340 538 z "},"":{"ha":203,"x_min":-6,"x_max":293,"o":"m 214 618 q 249 576 238 599 q 289 535 261 554 q 286 528 293 532 q 269 520 279 524 q 247 515 258 517 q 231 514 236 513 q 208 528 219 515 q 185 554 196 540 q 167 581 175 568 q 158 599 160 594 q 163 607 157 603 q 178 614 168 611 q 197 618 188 617 q 214 618 207 619 m 100 326 q 111 327 101 329 q 133 321 121 325 q 153 312 144 317 q 161 304 163 307 q 111 192 138 249 q 69 78 85 135 q 60 33 64 57 q 72 -11 57 8 q 109 5 90 -7 q 145 33 128 17 q 177 67 163 50 q 203 100 192 85 q 215 100 204 103 q 236 93 225 97 q 256 84 247 89 q 264 76 265 79 q 236 42 253 61 q 201 6 219 24 q 161 -24 182 -11 q 121 -39 140 -37 q 76 -34 99 -40 q 31 -10 54 -28 q 6 19 15 0 q 5 83 -6 39 q 34 174 15 126 q 72 265 53 222 q 100 326 92 308 m 150 436 q 161 437 151 439 q 183 431 171 435 q 203 422 194 426 q 210 414 211 417 l 193 376 q 181 376 192 374 q 159 383 171 379 q 139 392 147 388 q 132 400 131 397 q 140 419 136 410 q 150 436 144 428 z "},"":{"ha":203,"x_min":-6,"x_max":297,"o":"m 240 618 q 257 618 247 619 q 276 614 267 617 q 292 607 286 611 q 296 599 297 603 q 287 581 294 594 q 269 554 279 568 q 246 528 258 540 q 224 514 233 515 q 207 515 218 513 q 185 520 196 517 q 168 528 175 524 q 165 535 161 532 q 205 576 193 554 q 240 618 217 599 m 100 326 q 111 327 101 329 q 133 321 121 325 q 153 312 144 317 q 161 304 163 307 q 111 192 138 249 q 69 78 85 135 q 60 33 64 57 q 72 -11 57 8 q 109 5 90 -7 q 145 33 128 17 q 177 67 163 50 q 203 100 192 85 q 215 100 204 103 q 236 93 225 97 q 256 84 247 89 q 264 76 265 79 q 236 42 253 61 q 201 6 219 24 q 161 -24 182 -11 q 121 -39 140 -37 q 76 -34 99 -40 q 31 -10 54 -28 q 6 19 15 0 q 5 83 -6 39 q 34 174 15 126 q 72 265 53 222 q 100 326 92 308 m 150 436 q 161 437 151 439 q 183 431 171 435 q 203 422 194 426 q 210 414 211 417 l 193 376 q 181 376 192 374 q 159 383 171 379 q 139 392 147 388 q 132 400 131 397 q 140 419 136 410 q 150 436 144 428 z "},"":{"ha":203,"x_min":-6,"x_max":321,"o":"m 100 326 q 111 327 101 329 q 133 321 121 325 q 153 312 144 317 q 161 304 163 307 q 111 192 138 249 q 69 78 85 135 q 60 33 64 57 q 72 -11 57 8 q 109 5 90 -7 q 145 33 128 17 q 177 67 163 50 q 203 100 192 85 q 215 100 204 103 q 236 93 225 97 q 256 84 247 89 q 264 76 265 79 q 236 42 253 61 q 201 6 219 24 q 161 -24 182 -11 q 121 -39 140 -37 q 76 -34 99 -40 q 31 -10 54 -28 q 6 19 15 0 q 5 83 -6 39 q 34 174 15 126 q 72 265 53 222 q 100 326 92 308 m 150 436 q 161 437 151 439 q 183 431 171 435 q 203 422 194 426 q 210 414 211 417 l 193 376 q 181 376 192 374 q 159 383 171 379 q 139 392 147 388 q 132 400 131 397 q 140 419 136 410 q 150 436 144 428 m 171 615 q 206 613 186 613 q 242 615 226 614 q 277 574 265 596 q 317 532 289 551 q 314 525 321 529 q 297 517 307 521 q 275 512 286 514 q 258 511 264 510 q 231 528 246 514 q 206 560 217 543 q 180 528 194 543 q 154 511 165 514 q 138 512 149 510 q 116 517 126 514 q 99 525 106 521 q 96 532 92 529 q 135 574 124 551 q 171 615 147 596 z "},"":{"ha":203,"x_min":-6,"x_max":376,"o":"m 100 326 q 111 327 101 329 q 133 321 121 325 q 153 312 144 317 q 161 304 163 307 q 111 192 138 249 q 69 78 85 135 q 60 33 64 57 q 72 -11 57 8 q 109 5 90 -7 q 145 33 128 17 q 177 67 163 50 q 203 100 192 85 q 215 100 204 103 q 236 93 225 97 q 256 84 247 89 q 264 76 265 79 q 236 42 253 61 q 201 6 219 24 q 161 -24 182 -11 q 121 -39 140 -37 q 76 -34 99 -40 q 31 -10 54 -28 q 6 19 15 0 q 5 83 -6 39 q 34 174 15 126 q 72 265 53 222 q 100 326 92 308 m 150 436 q 161 437 151 439 q 183 431 171 435 q 203 422 194 426 q 210 414 211 417 l 193 376 q 181 376 192 374 q 159 383 171 379 q 139 392 147 388 q 132 400 131 397 q 140 419 136 410 q 150 436 144 428 m 113 544 q 137 576 118 572 q 171 568 156 581 q 187 548 182 560 q 176 519 192 536 q 157 511 168 511 q 135 517 146 511 q 118 530 125 522 q 113 544 111 538 m 297 544 q 322 576 303 572 q 356 568 340 581 q 372 548 367 560 q 361 519 376 536 q 342 511 353 511 q 320 517 331 511 q 303 530 310 522 q 297 544 296 538 z "}}}
